<svg xmlns="http://www.w3.org/2000/svg" xmlns:xlink="http://www.w3.org/1999/xlink" width="300" zoomAndPan="magnify" viewBox="0 0 224.87999 225" height="300" preserveAspectRatio="xMidYMid meet" version="1.0"><defs><clipPath id="b8291102a9"><path d="M 129 152 L 202 152 L 202 224.9375 L 129 224.9375 Z M 129 152 " clip-rule="nonzero"/></clipPath><clipPath id="fe7b444b58"><path d="M 68 0.0585938 L 156 0.0585938 L 156 88 L 68 88 Z M 68 0.0585938 " clip-rule="nonzero"/></clipPath><clipPath id="6c3c2477b3"><path d="M 170 106 L 224.761719 106 L 224.761719 149 L 170 149 Z M 170 106 " clip-rule="nonzero"/></clipPath></defs><g clip-path="url(#b8291102a9)"><path fill="#34495e" d="M 165.421875 152.140625 C 164.234375 152.140625 163.050781 152.199219 161.871094 152.3125 C 160.691406 152.429688 159.519531 152.605469 158.355469 152.835938 C 157.191406 153.066406 156.042969 153.355469 154.910156 153.699219 C 153.773438 154.042969 152.660156 154.441406 151.5625 154.894531 C 150.46875 155.351562 149.398438 155.855469 148.351562 156.414062 C 147.304688 156.972656 146.289062 157.582031 145.304688 158.242188 C 144.316406 158.902344 143.367188 159.605469 142.449219 160.359375 C 141.53125 161.113281 140.65625 161.90625 139.816406 162.746094 C 138.976562 163.582031 138.183594 164.460938 137.429688 165.378906 C 136.675781 166.296875 135.972656 167.246094 135.3125 168.230469 C 134.652344 169.21875 134.046875 170.234375 133.484375 171.28125 C 132.925781 172.328125 132.421875 173.398438 131.96875 174.492188 C 131.511719 175.589844 131.113281 176.703125 130.769531 177.839844 C 130.425781 178.972656 130.136719 180.121094 129.90625 181.285156 C 129.675781 182.449219 129.5 183.621094 129.386719 184.800781 C 129.269531 185.980469 129.210938 187.164062 129.210938 188.347656 C 129.210938 189.535156 129.269531 190.71875 129.386719 191.898438 C 129.5 193.078125 129.675781 194.25 129.90625 195.414062 C 130.136719 196.578125 130.425781 197.726562 130.769531 198.859375 C 131.113281 199.996094 131.511719 201.109375 131.96875 202.207031 C 132.421875 203.300781 132.925781 204.371094 133.484375 205.417969 C 134.046875 206.464844 134.652344 207.480469 135.3125 208.464844 C 135.972656 209.453125 136.675781 210.402344 137.429688 211.320312 C 138.183594 212.238281 138.976562 213.113281 139.816406 213.953125 C 140.65625 214.792969 141.53125 215.585938 142.449219 216.339844 C 143.367188 217.09375 144.316406 217.796875 145.304688 218.457031 C 146.289062 219.117188 147.304688 219.722656 148.351562 220.285156 C 149.398438 220.84375 150.46875 221.347656 151.5625 221.800781 C 152.660156 222.257812 153.773438 222.65625 154.910156 223 C 156.042969 223.34375 157.191406 223.632812 158.355469 223.863281 C 159.519531 224.09375 160.691406 224.269531 161.871094 224.382812 C 163.050781 224.5 164.234375 224.558594 165.421875 224.558594 C 166.605469 224.558594 167.789062 224.5 168.96875 224.382812 C 170.148438 224.269531 171.320312 224.09375 172.484375 223.863281 C 173.648438 223.632812 174.796875 223.34375 175.929688 223 C 177.066406 222.65625 178.179688 222.257812 179.277344 221.800781 C 180.371094 221.347656 181.441406 220.84375 182.488281 220.285156 C 183.535156 219.722656 184.550781 219.117188 185.539062 218.457031 C 186.523438 217.796875 187.472656 217.09375 188.390625 216.339844 C 189.308594 215.585938 190.1875 214.792969 191.023438 213.953125 C 191.863281 213.113281 192.65625 212.238281 193.410156 211.320312 C 194.164062 210.402344 194.867188 209.453125 195.527344 208.464844 C 196.1875 207.480469 196.796875 206.464844 197.355469 205.417969 C 197.914062 204.371094 198.417969 203.300781 198.875 202.207031 C 199.328125 201.109375 199.726562 199.996094 200.070312 198.859375 C 200.414062 197.726562 200.703125 196.578125 200.933594 195.414062 C 201.164062 194.25 201.339844 193.078125 201.457031 191.898438 C 201.570312 190.71875 201.628906 189.535156 201.628906 188.347656 C 201.628906 187.164062 201.570312 185.980469 201.453125 184.800781 C 201.335938 183.621094 201.160156 182.449219 200.925781 181.289062 C 200.695312 180.125 200.40625 178.976562 200.0625 177.84375 C 199.714844 176.707031 199.316406 175.59375 198.863281 174.5 C 198.40625 173.402344 197.902344 172.332031 197.339844 171.289062 C 196.78125 170.242188 196.171875 169.226562 195.515625 168.242188 C 194.855469 167.257812 194.148438 166.304688 193.398438 165.390625 C 192.644531 164.472656 191.851562 163.597656 191.011719 162.757812 C 190.171875 161.917969 189.296875 161.125 188.378906 160.371094 C 187.464844 159.621094 186.511719 158.914062 185.527344 158.253906 C 184.542969 157.597656 183.527344 156.988281 182.480469 156.429688 C 181.4375 155.867188 180.367188 155.363281 179.269531 154.90625 C 178.175781 154.453125 177.0625 154.054688 175.925781 153.707031 C 174.792969 153.363281 173.644531 153.074219 172.480469 152.84375 C 171.320312 152.609375 170.148438 152.433594 168.96875 152.316406 C 167.789062 152.199219 166.605469 152.140625 165.421875 152.140625 Z M 180.667969 194.066406 L 171.136719 194.066406 L 171.136719 203.59375 C 171.136719 203.972656 171.101562 204.34375 171.027344 204.710938 C 170.953125 205.078125 170.847656 205.4375 170.703125 205.785156 C 170.558594 206.128906 170.382812 206.460938 170.175781 206.773438 C 169.964844 207.082031 169.726562 207.371094 169.464844 207.636719 C 169.199219 207.902344 168.910156 208.140625 168.597656 208.347656 C 168.285156 208.558594 167.953125 208.734375 167.609375 208.878906 C 167.261719 209.019531 166.902344 209.128906 166.535156 209.203125 C 166.167969 209.277344 165.796875 209.3125 165.421875 209.3125 C 165.042969 209.3125 164.671875 209.277344 164.304688 209.203125 C 163.9375 209.128906 163.578125 209.019531 163.230469 208.878906 C 162.886719 208.734375 162.554688 208.558594 162.242188 208.347656 C 161.933594 208.140625 161.644531 207.902344 161.378906 207.636719 C 161.113281 207.371094 160.875 207.082031 160.667969 206.773438 C 160.457031 206.460938 160.28125 206.128906 160.136719 205.785156 C 159.996094 205.4375 159.886719 205.078125 159.8125 204.710938 C 159.738281 204.34375 159.703125 203.972656 159.703125 203.59375 L 159.703125 194.066406 L 150.175781 194.066406 C 149.796875 194.066406 149.425781 194.03125 149.058594 193.957031 C 148.691406 193.882812 148.332031 193.773438 147.984375 193.632812 C 147.640625 193.488281 147.308594 193.3125 146.996094 193.101562 C 146.6875 192.894531 146.398438 192.65625 146.132812 192.390625 C 145.867188 192.125 145.628906 191.835938 145.421875 191.527344 C 145.210938 191.214844 145.035156 190.882812 144.890625 190.539062 C 144.75 190.191406 144.640625 189.832031 144.566406 189.464844 C 144.492188 189.097656 144.457031 188.726562 144.457031 188.347656 C 144.457031 187.972656 144.492188 187.601562 144.566406 187.234375 C 144.640625 186.867188 144.75 186.507812 144.890625 186.160156 C 145.035156 185.816406 145.210938 185.484375 145.421875 185.171875 C 145.628906 184.859375 145.867188 184.570312 146.132812 184.304688 C 146.398438 184.042969 146.6875 183.804688 146.996094 183.59375 C 147.308594 183.386719 147.640625 183.210938 147.984375 183.066406 C 148.332031 182.921875 148.691406 182.816406 149.058594 182.742188 C 149.425781 182.667969 149.796875 182.632812 150.175781 182.632812 L 159.703125 182.632812 L 159.703125 173.101562 C 159.703125 172.726562 159.738281 172.355469 159.8125 171.988281 C 159.886719 171.621094 159.996094 171.261719 160.136719 170.914062 C 160.28125 170.570312 160.457031 170.238281 160.667969 169.925781 C 160.875 169.613281 161.113281 169.324219 161.378906 169.058594 C 161.644531 168.796875 161.933594 168.558594 162.242188 168.347656 C 162.554688 168.140625 162.886719 167.964844 163.230469 167.820312 C 163.578125 167.675781 163.9375 167.570312 164.304688 167.496094 C 164.671875 167.421875 165.042969 167.386719 165.421875 167.386719 C 165.796875 167.386719 166.167969 167.421875 166.535156 167.496094 C 166.902344 167.570312 167.261719 167.675781 167.609375 167.820312 C 167.953125 167.964844 168.285156 168.140625 168.597656 168.347656 C 168.910156 168.558594 169.199219 168.796875 169.464844 169.058594 C 169.726562 169.324219 169.964844 169.613281 170.175781 169.925781 C 170.382812 170.238281 170.558594 170.570312 170.703125 170.914062 C 170.847656 171.261719 170.953125 171.621094 171.027344 171.988281 C 171.101562 172.355469 171.136719 172.726562 171.136719 173.101562 L 171.136719 182.632812 L 180.667969 182.632812 C 181.042969 182.632812 181.414062 182.667969 181.78125 182.742188 C 182.148438 182.816406 182.507812 182.921875 182.855469 183.066406 C 183.199219 183.210938 183.53125 183.386719 183.84375 183.59375 C 184.15625 183.804688 184.445312 184.042969 184.710938 184.304688 C 184.972656 184.570312 185.210938 184.859375 185.421875 185.171875 C 185.628906 185.484375 185.804688 185.816406 185.949219 186.160156 C 186.09375 186.507812 186.199219 186.867188 186.273438 187.234375 C 186.347656 187.601562 186.382812 187.972656 186.382812 188.347656 C 186.382812 188.726562 186.347656 189.097656 186.273438 189.464844 C 186.199219 189.832031 186.09375 190.191406 185.949219 190.539062 C 185.804688 190.882812 185.628906 191.214844 185.421875 191.527344 C 185.210938 191.835938 184.972656 192.125 184.710938 192.390625 C 184.445312 192.65625 184.15625 192.894531 183.84375 193.101562 C 183.53125 193.3125 183.199219 193.488281 182.855469 193.632812 C 182.507812 193.773438 182.148438 193.882812 181.78125 193.957031 C 181.414062 194.03125 181.042969 194.066406 180.667969 194.066406 Z M 180.667969 194.066406 " fill-opacity="1" fill-rule="nonzero"/></g><g clip-path="url(#fe7b444b58)"><path fill="#34495e" d="M 155.890625 43.511719 C 155.890625 44.945312 155.820312 46.378906 155.679688 47.808594 C 155.539062 49.238281 155.328125 50.65625 155.050781 52.0625 C 154.769531 53.46875 154.421875 54.863281 154.003906 56.234375 C 153.585938 57.609375 153.105469 58.960938 152.554688 60.285156 C 152.003906 61.613281 151.390625 62.90625 150.714844 64.175781 C 150.039062 65.441406 149.300781 66.667969 148.503906 67.863281 C 147.707031 69.058594 146.851562 70.207031 145.941406 71.320312 C 145.03125 72.429688 144.066406 73.492188 143.054688 74.503906 C 142.039062 75.519531 140.976562 76.484375 139.867188 77.394531 C 138.757812 78.304688 137.605469 79.160156 136.410156 79.957031 C 135.21875 80.753906 133.988281 81.492188 132.722656 82.167969 C 131.457031 82.84375 130.160156 83.457031 128.832031 84.007812 C 127.507812 84.558594 126.15625 85.039062 124.78125 85.457031 C 123.410156 85.875 122.019531 86.222656 120.609375 86.5 C 119.203125 86.78125 117.785156 86.992188 116.355469 87.132812 C 114.925781 87.273438 113.496094 87.34375 112.058594 87.34375 C 110.625 87.34375 109.191406 87.273438 107.761719 87.132812 C 106.332031 86.992188 104.914062 86.78125 103.507812 86.5 C 102.097656 86.222656 100.707031 85.875 99.335938 85.457031 C 97.960938 85.039062 96.609375 84.558594 95.285156 84.007812 C 93.957031 83.457031 92.664062 82.84375 91.394531 82.167969 C 90.128906 81.492188 88.902344 80.753906 87.707031 79.957031 C 86.511719 79.160156 85.363281 78.304688 84.25 77.394531 C 83.140625 76.484375 82.078125 75.519531 81.066406 74.503906 C 80.050781 73.492188 79.085938 72.429688 78.175781 71.320312 C 77.265625 70.207031 76.410156 69.058594 75.613281 67.863281 C 74.816406 66.667969 74.078125 65.441406 73.402344 64.175781 C 72.726562 62.90625 72.113281 61.613281 71.5625 60.285156 C 71.011719 58.960938 70.53125 57.609375 70.113281 56.234375 C 69.695312 54.863281 69.347656 53.46875 69.070312 52.0625 C 68.789062 50.65625 68.578125 49.238281 68.4375 47.808594 C 68.296875 46.378906 68.226562 44.945312 68.226562 43.511719 C 68.226562 42.074219 68.296875 40.644531 68.4375 39.214844 C 68.578125 37.785156 68.789062 36.367188 69.070312 34.960938 C 69.347656 33.550781 69.695312 32.160156 70.113281 30.789062 C 70.53125 29.414062 71.011719 28.0625 71.5625 26.738281 C 72.113281 25.410156 72.726562 24.113281 73.402344 22.847656 C 74.078125 21.582031 74.816406 20.351562 75.613281 19.160156 C 76.410156 17.964844 77.265625 16.8125 78.175781 15.703125 C 79.085938 14.59375 80.050781 13.53125 81.066406 12.515625 C 82.078125 11.503906 83.140625 10.539062 84.25 9.628906 C 85.363281 8.71875 86.511719 7.863281 87.707031 7.066406 C 88.902344 6.269531 90.128906 5.53125 91.394531 4.855469 C 92.664062 4.179688 93.957031 3.566406 95.285156 3.015625 C 96.609375 2.464844 97.960938 1.984375 99.335938 1.566406 C 100.707031 1.148438 102.097656 0.800781 103.507812 0.519531 C 104.914062 0.242188 106.332031 0.03125 107.761719 -0.109375 C 109.191406 -0.25 110.625 -0.320312 112.058594 -0.320312 C 113.496094 -0.320312 114.925781 -0.25 116.355469 -0.109375 C 117.785156 0.03125 119.203125 0.242188 120.609375 0.519531 C 122.019531 0.800781 123.410156 1.148438 124.78125 1.566406 C 126.15625 1.984375 127.507812 2.464844 128.832031 3.015625 C 130.160156 3.566406 131.457031 4.179688 132.722656 4.855469 C 133.988281 5.53125 135.21875 6.269531 136.410156 7.066406 C 137.605469 7.863281 138.757812 8.71875 139.867188 9.628906 C 140.976562 10.539062 142.039062 11.503906 143.054688 12.515625 C 144.066406 13.53125 145.03125 14.59375 145.941406 15.703125 C 146.851562 16.8125 147.707031 17.964844 148.503906 19.160156 C 149.300781 20.351562 150.039062 21.582031 150.714844 22.847656 C 151.390625 24.113281 152.003906 25.410156 152.554688 26.738281 C 153.105469 28.0625 153.585938 29.414062 154.003906 30.789062 C 154.421875 32.160156 154.769531 33.550781 155.050781 34.960938 C 155.328125 36.367188 155.539062 37.785156 155.679688 39.214844 C 155.820312 40.644531 155.890625 42.074219 155.890625 43.511719 Z M 155.890625 43.511719 " fill-opacity="1" fill-rule="nonzero"/></g><path fill="#34495e" d="M 64.414062 66.378906 C 64.414062 67.316406 64.367188 68.25 64.277344 69.183594 C 64.183594 70.113281 64.046875 71.039062 63.867188 71.957031 C 63.683594 72.875 63.457031 73.78125 63.183594 74.679688 C 62.910156 75.574219 62.597656 76.457031 62.238281 77.320312 C 61.878906 78.183594 61.480469 79.03125 61.039062 79.855469 C 60.597656 80.683594 60.117188 81.484375 59.597656 82.261719 C 59.078125 83.039062 58.519531 83.792969 57.925781 84.515625 C 57.332031 85.238281 56.703125 85.933594 56.042969 86.59375 C 55.378906 87.257812 54.6875 87.882812 53.964844 88.476562 C 53.238281 89.070312 52.488281 89.628906 51.710938 90.148438 C 50.933594 90.667969 50.128906 91.148438 49.304688 91.589844 C 48.476562 92.03125 47.632812 92.433594 46.769531 92.789062 C 45.902344 93.148438 45.023438 93.464844 44.125 93.734375 C 43.230469 94.007812 42.324219 94.234375 41.40625 94.417969 C 40.488281 94.601562 39.5625 94.738281 38.628906 94.828125 C 37.699219 94.921875 36.765625 94.96875 35.828125 94.96875 C 34.890625 94.96875 33.957031 94.921875 33.027344 94.828125 C 32.09375 94.738281 31.167969 94.601562 30.25 94.417969 C 29.332031 94.234375 28.425781 94.007812 27.53125 93.734375 C 26.632812 93.464844 25.753906 93.148438 24.890625 92.789062 C 24.023438 92.433594 23.179688 92.03125 22.351562 91.589844 C 21.527344 91.148438 20.726562 90.667969 19.945312 90.148438 C 19.167969 89.628906 18.417969 89.070312 17.691406 88.476562 C 16.96875 87.882812 16.277344 87.257812 15.613281 86.59375 C 14.953125 85.933594 14.324219 85.238281 13.730469 84.515625 C 13.136719 83.792969 12.578125 83.039062 12.058594 82.261719 C 11.539062 81.484375 11.058594 80.683594 10.617188 79.855469 C 10.175781 79.03125 9.777344 78.183594 9.417969 77.320312 C 9.058594 76.457031 8.746094 75.574219 8.472656 74.679688 C 8.199219 73.78125 7.972656 72.875 7.792969 71.957031 C 7.609375 71.039062 7.472656 70.113281 7.378906 69.183594 C 7.289062 68.25 7.242188 67.316406 7.242188 66.378906 C 7.242188 65.445312 7.289062 64.511719 7.378906 63.578125 C 7.472656 62.648438 7.609375 61.722656 7.792969 60.804688 C 7.972656 59.886719 8.199219 58.976562 8.472656 58.082031 C 8.746094 57.1875 9.058594 56.304688 9.417969 55.441406 C 9.777344 54.574219 10.175781 53.730469 10.617188 52.90625 C 11.058594 52.078125 11.539062 51.277344 12.058594 50.5 C 12.578125 49.71875 13.136719 48.96875 13.730469 48.246094 C 14.324219 47.523438 14.953125 46.828125 15.613281 46.167969 C 16.277344 45.503906 16.96875 44.875 17.691406 44.28125 C 18.417969 43.6875 19.167969 43.132812 19.945312 42.613281 C 20.726562 42.089844 21.527344 41.609375 22.351562 41.167969 C 23.179688 40.726562 24.023438 40.328125 24.890625 39.96875 C 25.753906 39.613281 26.632812 39.296875 27.53125 39.023438 C 28.425781 38.753906 29.332031 38.527344 30.25 38.34375 C 31.167969 38.160156 32.09375 38.023438 33.027344 37.933594 C 33.957031 37.839844 34.890625 37.792969 35.828125 37.792969 C 36.765625 37.792969 37.699219 37.839844 38.628906 37.933594 C 39.5625 38.023438 40.488281 38.160156 41.40625 38.34375 C 42.324219 38.527344 43.230469 38.753906 44.125 39.023438 C 45.023438 39.296875 45.902344 39.613281 46.769531 39.96875 C 47.632812 40.328125 48.476562 40.726562 49.304688 41.167969 C 50.128906 41.609375 50.933594 42.089844 51.710938 42.613281 C 52.488281 43.132812 53.238281 43.6875 53.964844 44.28125 C 54.6875 44.875 55.378906 45.503906 56.042969 46.167969 C 56.703125 46.828125 57.332031 47.523438 57.925781 48.246094 C 58.519531 48.96875 59.078125 49.71875 59.597656 50.5 C 60.117188 51.277344 60.597656 52.078125 61.039062 52.90625 C 61.480469 53.730469 61.878906 54.574219 62.238281 55.441406 C 62.597656 56.304688 62.910156 57.1875 63.183594 58.082031 C 63.457031 58.976562 63.683594 59.886719 63.867188 60.804688 C 64.046875 61.722656 64.183594 62.648438 64.277344 63.578125 C 64.367188 64.511719 64.414062 65.445312 64.414062 66.378906 Z M 64.414062 66.378906 " fill-opacity="1" fill-rule="nonzero"/><path fill="#34495e" d="M 216.875 66.378906 C 216.875 67.316406 216.828125 68.25 216.738281 69.183594 C 216.644531 70.113281 216.507812 71.039062 216.328125 71.957031 C 216.144531 72.875 215.917969 73.78125 215.644531 74.679688 C 215.375 75.574219 215.058594 76.457031 214.699219 77.320312 C 214.339844 78.183594 213.941406 79.03125 213.5 79.855469 C 213.058594 80.683594 212.578125 81.484375 212.058594 82.261719 C 211.539062 83.039062 210.980469 83.792969 210.386719 84.515625 C 209.792969 85.238281 209.164062 85.933594 208.503906 86.59375 C 207.839844 87.257812 207.148438 87.882812 206.425781 88.476562 C 205.699219 89.070312 204.949219 89.628906 204.171875 90.148438 C 203.394531 90.667969 202.589844 91.148438 201.765625 91.589844 C 200.9375 92.03125 200.09375 92.433594 199.230469 92.789062 C 198.363281 93.148438 197.484375 93.464844 196.585938 93.734375 C 195.691406 94.007812 194.785156 94.234375 193.867188 94.417969 C 192.949219 94.601562 192.023438 94.738281 191.089844 94.828125 C 190.160156 94.921875 189.226562 94.96875 188.289062 94.96875 C 187.351562 94.96875 186.417969 94.921875 185.488281 94.828125 C 184.554688 94.738281 183.628906 94.601562 182.710938 94.417969 C 181.792969 94.234375 180.886719 94.007812 179.992188 93.734375 C 179.09375 93.464844 178.214844 93.148438 177.351562 92.789062 C 176.484375 92.433594 175.640625 92.03125 174.8125 91.589844 C 173.988281 91.148438 173.1875 90.667969 172.40625 90.148438 C 171.628906 89.628906 170.878906 89.070312 170.152344 88.476562 C 169.429688 87.882812 168.738281 87.257812 168.074219 86.59375 C 167.414062 85.933594 166.785156 85.238281 166.191406 84.515625 C 165.597656 83.792969 165.039062 83.039062 164.519531 82.261719 C 164 81.484375 163.519531 80.683594 163.078125 79.855469 C 162.636719 79.03125 162.238281 78.183594 161.878906 77.320312 C 161.519531 76.457031 161.207031 75.574219 160.933594 74.679688 C 160.660156 73.78125 160.433594 72.875 160.253906 71.957031 C 160.070312 71.039062 159.933594 70.113281 159.839844 69.183594 C 159.75 68.25 159.703125 67.316406 159.703125 66.378906 C 159.703125 65.445312 159.75 64.511719 159.839844 63.578125 C 159.933594 62.648438 160.070312 61.722656 160.253906 60.804688 C 160.433594 59.886719 160.660156 58.976562 160.933594 58.082031 C 161.207031 57.1875 161.519531 56.304688 161.878906 55.441406 C 162.238281 54.574219 162.636719 53.730469 163.078125 52.90625 C 163.519531 52.078125 164 51.277344 164.519531 50.5 C 165.039062 49.71875 165.597656 48.96875 166.191406 48.246094 C 166.785156 47.523438 167.414062 46.828125 168.074219 46.167969 C 168.738281 45.503906 169.429688 44.875 170.152344 44.28125 C 170.878906 43.6875 171.628906 43.132812 172.40625 42.613281 C 173.1875 42.089844 173.988281 41.609375 174.8125 41.167969 C 175.640625 40.726562 176.484375 40.328125 177.351562 39.96875 C 178.214844 39.613281 179.09375 39.296875 179.992188 39.023438 C 180.886719 38.753906 181.792969 38.527344 182.710938 38.34375 C 183.628906 38.160156 184.554688 38.023438 185.488281 37.933594 C 186.417969 37.839844 187.351562 37.792969 188.289062 37.792969 C 189.226562 37.792969 190.160156 37.839844 191.089844 37.933594 C 192.023438 38.023438 192.949219 38.160156 193.867188 38.34375 C 194.785156 38.527344 195.691406 38.753906 196.585938 39.023438 C 197.484375 39.296875 198.363281 39.613281 199.230469 39.96875 C 200.09375 40.328125 200.9375 40.726562 201.765625 41.167969 C 202.589844 41.609375 203.394531 42.089844 204.171875 42.613281 C 204.949219 43.132812 205.699219 43.6875 206.425781 44.28125 C 207.148438 44.875 207.839844 45.503906 208.503906 46.167969 C 209.164062 46.828125 209.792969 47.523438 210.386719 48.246094 C 210.980469 48.96875 211.539062 49.71875 212.058594 50.5 C 212.578125 51.277344 213.058594 52.078125 213.5 52.90625 C 213.941406 53.730469 214.339844 54.574219 214.699219 55.441406 C 215.058594 56.304688 215.375 57.1875 215.644531 58.082031 C 215.917969 58.976562 216.144531 59.886719 216.328125 60.804688 C 216.507812 61.722656 216.644531 62.648438 216.738281 63.578125 C 216.828125 64.511719 216.875 65.445312 216.875 66.378906 Z M 216.875 66.378906 " fill-opacity="1" fill-rule="nonzero"/><path fill="#34495e" d="M 179.902344 142.914062 C 179.109375 142.664062 178.308594 142.4375 177.503906 142.226562 C 176.699219 142.019531 175.886719 141.832031 175.070312 141.664062 C 174.257812 141.5 173.4375 141.355469 172.613281 141.230469 C 171.789062 141.109375 170.964844 141.007812 170.136719 140.925781 C 169.308594 140.847656 168.476562 140.789062 167.644531 140.75 C 166.8125 140.714844 165.980469 140.699219 165.148438 140.707031 C 164.316406 140.714844 163.484375 140.742188 162.652344 140.792969 C 161.824219 140.84375 160.992188 140.914062 160.167969 141.007812 C 159.339844 141.101562 158.515625 141.21875 157.695312 141.355469 C 156.875 141.492188 156.054688 141.648438 155.242188 141.828125 C 154.429688 142.007812 153.621094 142.207031 152.820312 142.429688 C 152.019531 142.652344 151.222656 142.894531 150.433594 143.15625 C 149.644531 143.421875 148.859375 143.707031 148.085938 144.007812 C 147.3125 144.3125 146.542969 144.636719 145.785156 144.980469 C 145.027344 145.328125 144.28125 145.691406 143.542969 146.074219 C 142.800781 146.457031 142.074219 146.859375 141.355469 147.28125 C 140.636719 147.703125 139.933594 148.144531 139.238281 148.601562 C 138.542969 149.058594 137.859375 149.535156 137.191406 150.03125 C 136.519531 150.523438 135.863281 151.035156 135.222656 151.566406 C 134.578125 152.09375 133.949219 152.636719 133.335938 153.199219 C 132.71875 153.761719 132.121094 154.339844 131.535156 154.929688 C 130.949219 155.523438 130.382812 156.132812 129.828125 156.753906 C 129.277344 157.375 128.742188 158.011719 128.222656 158.664062 C 127.703125 159.3125 127.199219 159.976562 126.714844 160.652344 C 126.230469 161.332031 125.761719 162.019531 125.316406 162.722656 C 124.867188 163.421875 124.4375 164.132812 124.023438 164.859375 C 123.613281 165.582031 123.222656 166.316406 122.847656 167.058594 C 122.476562 167.804688 122.121094 168.558594 121.789062 169.320312 C 121.453125 170.082031 121.140625 170.855469 120.847656 171.632812 C 120.554688 172.410156 120.28125 173.199219 120.027344 173.992188 C 119.777344 174.785156 119.546875 175.585938 119.335938 176.390625 C 119.125 177.195312 118.933594 178.003906 118.765625 178.820312 L 56.105469 178.820312 C 55.472656 178.8125 54.84375 178.773438 54.214844 178.695312 C 53.589844 178.621094 52.96875 178.511719 52.351562 178.367188 C 51.734375 178.222656 51.128906 178.046875 50.535156 177.835938 C 49.9375 177.625 49.355469 177.382812 48.785156 177.109375 C 48.214844 176.835938 47.664062 176.53125 47.125 176.199219 C 46.589844 175.863281 46.074219 175.5 45.574219 175.109375 C 45.078125 174.71875 44.605469 174.304688 44.152344 173.859375 C 43.703125 173.417969 43.277344 172.953125 42.875 172.464844 C 42.476562 171.972656 42.101562 171.464844 41.757812 170.933594 C 41.414062 170.40625 41.097656 169.859375 40.8125 169.292969 C 40.53125 168.730469 40.277344 168.152344 40.054688 167.558594 C 39.832031 166.96875 39.644531 166.363281 39.488281 165.753906 C 39.332031 165.140625 39.210938 164.519531 39.121094 163.894531 C 39.035156 163.269531 38.980469 162.640625 38.960938 162.007812 C 38.941406 161.375 38.957031 160.746094 39.007812 160.113281 C 39.058594 159.484375 39.140625 158.859375 39.257812 158.238281 C 39.648438 156.324219 40.113281 154.429688 40.652344 152.550781 C 41.1875 150.675781 41.800781 148.820312 42.484375 146.992188 C 43.171875 145.164062 43.925781 143.367188 44.753906 141.597656 C 45.582031 139.828125 46.476562 138.09375 47.4375 136.394531 C 48.402344 134.695312 49.433594 133.039062 50.527344 131.421875 C 51.621094 129.804688 52.777344 128.230469 53.996094 126.707031 C 55.214844 125.179688 56.492188 123.703125 57.824219 122.277344 C 59.160156 120.851562 60.550781 119.480469 61.992188 118.167969 C 63.433594 116.851562 64.929688 115.59375 66.46875 114.394531 C 68.011719 113.199219 69.597656 112.0625 71.230469 110.988281 C 72.863281 109.917969 74.535156 108.910156 76.246094 107.96875 C 77.957031 107.027344 79.703125 106.15625 81.480469 105.351562 C 83.261719 104.546875 85.070312 103.816406 86.910156 103.15625 C 88.746094 102.496094 90.609375 101.90625 92.492188 101.394531 C 94.375 100.878906 96.277344 100.441406 98.195312 100.078125 C 100.113281 99.714844 102.042969 99.425781 103.984375 99.214844 C 105.925781 99.003906 107.875 98.867188 109.824219 98.8125 C 111.777344 98.753906 113.730469 98.773438 115.679688 98.867188 C 117.628906 98.964844 119.574219 99.136719 121.511719 99.386719 C 123.449219 99.636719 125.371094 99.960938 127.28125 100.363281 C 129.195312 100.761719 131.085938 101.238281 132.960938 101.789062 C 134.832031 102.339844 136.683594 102.964844 138.507812 103.660156 C 140.332031 104.355469 142.125 105.125 143.890625 105.960938 C 145.652344 106.800781 147.382812 107.707031 149.074219 108.679688 C 150.765625 109.652344 152.417969 110.691406 154.027344 111.796875 C 155.640625 112.902344 157.203125 114.066406 158.722656 115.296875 C 160.242188 116.523438 161.707031 117.808594 163.125 119.152344 C 164.542969 120.496094 165.90625 121.894531 167.210938 123.347656 C 168.519531 124.796875 169.765625 126.296875 170.953125 127.847656 C 172.144531 129.398438 173.269531 130.992188 174.332031 132.628906 C 175.394531 134.269531 176.390625 135.945312 177.320312 137.664062 C 178.25 139.378906 179.113281 141.132812 179.902344 142.914062 Z M 179.902344 142.914062 " fill-opacity="1" fill-rule="nonzero"/><path fill="#34495e" d="M 53.207031 110.824219 C 47.765625 115.957031 43.074219 121.699219 39.136719 128.058594 C 35.195312 134.414062 32.136719 141.171875 29.957031 148.328125 L 5.335938 148.328125 C 4.960938 148.324219 4.589844 148.285156 4.222656 148.210938 C 3.855469 148.136719 3.5 148.027344 3.15625 147.882812 C 2.808594 147.738281 2.480469 147.5625 2.167969 147.351562 C 1.859375 147.144531 1.570312 146.90625 1.304688 146.640625 C 1.039062 146.375 0.804688 146.089844 0.59375 145.777344 C 0.386719 145.464844 0.210938 145.136719 0.0664062 144.792969 C -0.078125 144.445312 -0.1875 144.089844 -0.265625 143.722656 C -0.339844 143.355469 -0.378906 142.984375 -0.382812 142.609375 C -0.378906 141.828125 -0.355469 141.050781 -0.304688 140.269531 C -0.253906 139.488281 -0.175781 138.710938 -0.0742188 137.9375 C 0.0273438 137.164062 0.152344 136.390625 0.304688 135.625 C 0.457031 134.859375 0.632812 134.097656 0.832031 133.34375 C 1.03125 132.585938 1.257812 131.839844 1.507812 131.097656 C 1.753906 130.359375 2.027344 129.625 2.324219 128.902344 C 2.621094 128.179688 2.941406 127.46875 3.28125 126.765625 C 3.625 126.0625 3.988281 125.371094 4.375 124.695312 C 4.761719 124.015625 5.171875 123.347656 5.601562 122.695312 C 6.03125 122.042969 6.484375 121.40625 6.953125 120.785156 C 7.425781 120.160156 7.917969 119.554688 8.425781 118.960938 C 8.9375 118.371094 9.464844 117.796875 10.015625 117.238281 C 10.5625 116.679688 11.128906 116.140625 11.710938 115.621094 C 12.292969 115.101562 12.890625 114.597656 13.507812 114.117188 C 14.121094 113.636719 14.75 113.171875 15.394531 112.730469 C 16.039062 112.292969 16.699219 111.871094 17.371094 111.472656 C 18.042969 111.074219 18.726562 110.699219 19.425781 110.34375 C 20.121094 109.988281 20.828125 109.65625 21.546875 109.347656 C 22.261719 109.039062 22.988281 108.753906 23.726562 108.492188 C 24.460938 108.230469 25.207031 107.992188 25.957031 107.78125 C 26.710938 107.566406 27.46875 107.378906 28.230469 107.214844 C 28.996094 107.050781 29.765625 106.910156 30.535156 106.792969 C 31.308594 106.679688 32.085938 106.589844 32.863281 106.527344 C 33.644531 106.460938 34.421875 106.421875 35.203125 106.40625 C 35.984375 106.394531 36.765625 106.402344 37.546875 106.441406 C 38.328125 106.476562 39.105469 106.539062 39.882812 106.625 C 40.660156 106.710938 41.433594 106.824219 42.203125 106.960938 C 42.96875 107.097656 43.734375 107.257812 44.492188 107.445312 C 45.253906 107.628906 46.003906 107.839844 46.75 108.074219 C 47.496094 108.308594 48.230469 108.570312 48.960938 108.851562 C 49.6875 109.132812 50.40625 109.441406 51.117188 109.769531 C 51.824219 110.097656 52.523438 110.449219 53.207031 110.824219 Z M 53.207031 110.824219 " fill-opacity="1" fill-rule="nonzero"/><g clip-path="url(#6c3c2477b3)"><path fill="#34495e" d="M 224.5 142.609375 C 224.496094 142.984375 224.457031 143.355469 224.382812 143.722656 C 224.308594 144.089844 224.195312 144.445312 224.050781 144.792969 C 223.90625 145.136719 223.730469 145.464844 223.523438 145.777344 C 223.3125 146.089844 223.078125 146.375 222.8125 146.640625 C 222.546875 146.90625 222.257812 147.144531 221.949219 147.351562 C 221.636719 147.5625 221.308594 147.738281 220.964844 147.882812 C 220.617188 148.027344 220.261719 148.136719 219.894531 148.210938 C 219.527344 148.285156 219.15625 148.324219 218.78125 148.328125 L 194.84375 148.328125 L 190.347656 138.265625 C 188.054688 133.089844 185.269531 128.195312 181.996094 123.574219 C 178.726562 118.957031 175.027344 114.703125 170.910156 110.824219 C 171.59375 110.449219 172.292969 110.097656 173 109.769531 C 173.710938 109.441406 174.429688 109.132812 175.15625 108.851562 C 175.886719 108.570312 176.621094 108.308594 177.367188 108.074219 C 178.113281 107.839844 178.863281 107.628906 179.625 107.445312 C 180.382812 107.257812 181.148438 107.097656 181.917969 106.960938 C 182.6875 106.824219 183.457031 106.710938 184.234375 106.625 C 185.011719 106.539062 185.789062 106.476562 186.570312 106.441406 C 187.351562 106.402344 188.132812 106.394531 188.914062 106.40625 C 189.695312 106.421875 190.476562 106.460938 191.253906 106.527344 C 192.03125 106.589844 192.808594 106.679688 193.582031 106.792969 C 194.355469 106.910156 195.121094 107.050781 195.886719 107.214844 C 196.648438 107.378906 197.40625 107.566406 198.160156 107.78125 C 198.910156 107.992188 199.65625 108.230469 200.390625 108.492188 C 201.128906 108.753906 201.855469 109.039062 202.574219 109.347656 C 203.289062 109.65625 203.996094 109.988281 204.695312 110.34375 C 205.390625 110.699219 206.074219 111.074219 206.746094 111.472656 C 207.417969 111.871094 208.078125 112.292969 208.722656 112.734375 C 209.367188 113.171875 209.996094 113.636719 210.613281 114.117188 C 211.226562 114.597656 211.824219 115.101562 212.40625 115.621094 C 212.992188 116.140625 213.554688 116.679688 214.101562 117.238281 C 214.652344 117.796875 215.179688 118.371094 215.691406 118.960938 C 216.203125 119.554688 216.691406 120.160156 217.164062 120.785156 C 217.636719 121.40625 218.085938 122.042969 218.515625 122.695312 C 218.945312 123.347656 219.355469 124.015625 219.742188 124.695312 C 220.128906 125.371094 220.492188 126.0625 220.835938 126.765625 C 221.179688 127.46875 221.496094 128.179688 221.792969 128.902344 C 222.089844 129.625 222.363281 130.359375 222.609375 131.097656 C 222.859375 131.839844 223.085938 132.585938 223.285156 133.34375 C 223.484375 134.097656 223.660156 134.859375 223.8125 135.625 C 223.964844 136.390625 224.089844 137.164062 224.191406 137.9375 C 224.292969 138.710938 224.371094 139.488281 224.421875 140.269531 C 224.472656 141.050781 224.5 141.828125 224.5 142.609375 Z M 224.5 142.609375 " fill-opacity="1" fill-rule="nonzero"/></g></svg>