<svg xmlns="http://www.w3.org/2000/svg" xmlns:xlink="http://www.w3.org/1999/xlink" width="300" zoomAndPan="magnify" viewBox="0 0 224.87999 185.999996" height="248" preserveAspectRatio="xMidYMid meet" version="1.0"><defs><clipPath id="9840e1dfd4"><path d="M 0 0.0507812 L 224.761719 0.0507812 L 224.761719 185.949219 L 0 185.949219 Z M 0 0.0507812 " clip-rule="nonzero"/></clipPath></defs><g clip-path="url(#9840e1dfd4)"><path fill="#34495e" d="M 18.152344 30.574219 L 22.507812 30.574219 L 22.507812 15.324219 C 22.507812 13.726562 23.816406 12.421875 25.410156 12.421875 L 57.359375 12.421875 C 58.957031 12.421875 60.261719 13.726562 60.261719 15.324219 L 60.261719 30.574219 L 71.316406 30.574219 C 75.074219 18.53125 79.382812 5.714844 92.339844 0.828125 C 104.769531 0.828125 117.199219 0.828125 129.625 0.828125 C 143.976562 0.0507812 150.234375 19.585938 153.800781 30.574219 L 206.925781 30.574219 C 216.910156 30.574219 225.078125 38.742188 225.078125 48.726562 L 225.078125 167.796875 C 225.078125 177.78125 216.910156 185.949219 206.925781 185.949219 L 18.152344 185.949219 C 8.167969 185.949219 0 177.78125 0 167.796875 L 0 48.726562 C 0 38.742188 8.167969 30.574219 18.152344 30.574219 Z M 51.550781 17.503906 L 51.550781 30.574219 L 54.453125 30.574219 L 54.453125 17.503906 Z M 48.648438 30.574219 L 48.648438 17.503906 L 45.742188 17.503906 L 45.742188 30.574219 Z M 42.839844 30.574219 L 42.839844 17.503906 L 39.933594 17.503906 L 39.933594 30.574219 Z M 37.03125 30.574219 L 37.03125 17.503906 L 34.125 17.503906 L 34.125 30.574219 Z M 31.222656 30.574219 L 31.222656 17.503906 L 28.316406 17.503906 L 28.316406 30.574219 Z M 93.660156 8.085938 C 117.863281 8.085938 129.964844 8.085938 129.964844 8.085938 C 135.773438 8.085938 141.019531 14.707031 145.9375 29.871094 C 145.9375 29.871094 123.671875 29.871094 79.140625 29.871094 C 82.988281 17.546875 87.828125 10.285156 93.660156 8.085938 Z M 18.152344 37.832031 L 206.929688 37.832031 C 212.917969 37.832031 217.820312 42.734375 217.820312 48.726562 L 217.820312 167.796875 C 217.820312 173.789062 212.917969 178.691406 206.929688 178.691406 L 18.152344 178.691406 C 12.160156 178.691406 7.261719 173.789062 7.261719 167.796875 L 7.261719 48.726562 C 7.261719 42.734375 12.160156 37.832031 18.152344 37.832031 Z M 18.152344 37.832031 " fill-opacity="1" fill-rule="evenodd"/></g><path fill="#34495e" d="M 164.816406 45.820312 L 193.859375 45.820312 L 193.859375 60.339844 L 164.816406 60.339844 Z M 167.71875 48.726562 L 190.953125 48.726562 L 190.953125 57.4375 L 167.71875 57.4375 Z M 167.71875 48.726562 " fill-opacity="1" fill-rule="evenodd"/><path fill="#34495e" d="M 141.367188 69.054688 L 170.625 69.054688 L 170.625 71.957031 L 145.246094 71.957031 C 144 70.929688 142.707031 69.960938 141.367188 69.054688 Z M 141.367188 69.054688 " fill-opacity="1" fill-rule="evenodd"/><path fill="#34495e" d="M 6.535156 69.054688 L 84.4375 69.054688 C 83.097656 69.960938 81.804688 70.929688 80.558594 71.957031 L 6.535156 71.957031 Z M 6.535156 69.054688 " fill-opacity="1" fill-rule="evenodd"/><path fill="#34495e" d="M 185.144531 69.054688 L 208.378906 69.054688 L 208.378906 71.957031 L 185.144531 71.957031 Z M 185.144531 69.054688 " fill-opacity="1" fill-rule="evenodd"/><path fill="#34495e" d="M 142.230469 152.675781 L 207.652344 152.675781 L 207.652344 156.90625 L 135.078125 156.90625 C 137.585938 155.691406 139.976562 154.273438 142.230469 152.675781 Z M 142.230469 152.675781 " fill-opacity="1" fill-rule="evenodd"/><path fill="#34495e" d="M 7.261719 152.675781 L 83.574219 152.675781 C 85.828125 154.273438 88.21875 155.691406 90.726562 156.90625 L 7.261719 156.90625 Z M 7.261719 152.675781 " fill-opacity="1" fill-rule="evenodd"/><path fill="#34495e" d="M 112.902344 78.128906 C 131.148438 78.128906 145.9375 92.917969 145.9375 111.164062 C 145.9375 129.410156 131.148438 144.199219 112.902344 144.199219 C 94.65625 144.199219 79.867188 129.410156 79.867188 111.164062 C 79.867188 92.917969 94.65625 78.128906 112.902344 78.128906 Z M 112.902344 82.484375 C 128.742188 82.484375 141.582031 95.324219 141.582031 111.164062 C 141.582031 127.003906 128.742188 139.84375 112.902344 139.84375 C 97.0625 139.84375 84.222656 127.003906 84.222656 111.164062 C 84.222656 95.324219 97.0625 82.484375 112.902344 82.484375 Z M 112.902344 82.484375 " fill-opacity="1" fill-rule="evenodd"/><path fill="#34495e" d="M 112.902344 60.339844 C 140.972656 60.339844 163.726562 83.09375 163.726562 111.164062 C 163.726562 139.234375 140.972656 161.988281 112.902344 161.988281 C 84.832031 161.988281 62.078125 139.234375 62.078125 111.164062 C 62.078125 83.09375 84.832031 60.339844 112.902344 60.339844 Z M 112.902344 67.042969 C 137.269531 67.042969 157.023438 86.796875 157.023438 111.164062 C 157.023438 135.535156 137.269531 155.289062 112.902344 155.289062 C 88.535156 155.289062 68.78125 135.535156 68.78125 111.164062 C 68.78125 86.796875 88.535156 67.042969 112.902344 67.042969 Z M 112.902344 67.042969 " fill-opacity="1" fill-rule="evenodd"/><path fill="#34495e" d="M 124.882812 94.566406 C 129.4375 94.566406 133.132812 98.261719 133.132812 102.816406 C 133.132812 107.371094 129.4375 111.066406 124.882812 111.066406 C 120.328125 111.066406 116.632812 107.371094 116.632812 102.816406 C 116.632812 98.257812 120.328125 94.566406 124.882812 94.566406 Z M 124.882812 95.65625 C 128.839844 95.65625 132.042969 98.859375 132.042969 102.816406 C 132.042969 106.769531 128.839844 109.976562 124.882812 109.976562 C 120.925781 109.976562 117.722656 106.769531 117.722656 102.816406 C 117.722656 98.859375 120.925781 95.65625 124.882812 95.65625 Z M 124.882812 95.65625 " fill-opacity="1" fill-rule="evenodd"/></svg>