<svg xmlns="http://www.w3.org/2000/svg" xmlns:xlink="http://www.w3.org/1999/xlink" width="47" zoomAndPan="magnify" viewBox="0 0 35.25 35.250001" height="47" preserveAspectRatio="xMidYMid meet" version="1.0"><defs><clipPath id="67c829106b"><path d="M 0 0 L 34.515625 0 L 34.515625 34.515625 L 0 34.515625 Z M 0 0 " clip-rule="nonzero"/></clipPath><clipPath id="42b6ca7913"><path d="M 33.1875 24.050781 L 30.378906 24.355469 C 30.371094 24.355469 30.359375 24.359375 30.351562 24.363281 L 21.945312 25.285156 C 21.765625 25.308594 21.621094 25.386719 21.507812 25.53125 C 21.394531 25.671875 21.347656 25.832031 21.367188 26.011719 C 21.386719 26.191406 21.46875 26.335938 21.609375 26.453125 C 21.746094 26.566406 21.90625 26.613281 22.085938 26.597656 L 30.515625 25.675781 C 30.695312 25.65625 30.875 25.675781 31.046875 25.726562 C 31.222656 25.78125 31.378906 25.863281 31.519531 25.980469 C 31.660156 26.09375 31.777344 26.234375 31.863281 26.394531 C 31.949219 26.554688 32 26.722656 32.019531 26.90625 C 32.039062 27.085938 32.023438 27.265625 31.96875 27.4375 C 31.917969 27.613281 31.835938 27.773438 31.722656 27.914062 C 31.605469 28.054688 31.46875 28.171875 31.308594 28.257812 C 31.148438 28.34375 30.980469 28.398438 30.796875 28.417969 L 21.265625 29.46875 C 21.082031 29.484375 20.933594 29.566406 20.820312 29.707031 C 20.703125 29.851562 20.65625 30.011719 20.675781 30.195312 C 20.695312 30.375 20.777344 30.523438 20.921875 30.636719 C 21.0625 30.753906 21.226562 30.796875 21.40625 30.777344 L 27.722656 30.082031 C 27.875 30.070312 28.027344 30.082031 28.179688 30.128906 C 28.328125 30.175781 28.460938 30.246094 28.582031 30.34375 C 28.703125 30.441406 28.800781 30.558594 28.878906 30.695312 C 28.953125 30.832031 28.996094 30.980469 29.015625 31.132812 C 29.03125 31.289062 29.019531 31.441406 28.976562 31.589844 C 28.933594 31.742188 28.863281 31.878906 28.769531 32 C 28.671875 32.121094 28.554688 32.222656 28.417969 32.300781 C 28.285156 32.375 28.140625 32.425781 27.984375 32.445312 L 10.285156 34.386719 C 8.902344 34.496094 7.71875 33.164062 6.238281 32.933594 C 4.777344 32.480469 3.03125 32.703125 1.511719 32.890625 C 1.402344 32.902344 1.304688 32.871094 1.21875 32.804688 C 1.132812 32.734375 1.085938 32.644531 1.074219 32.535156 L 0.00390625 22.753906 C -0.0117188 22.636719 0.015625 22.53125 0.0820312 22.4375 C 0.152344 22.339844 0.242188 22.28125 0.359375 22.257812 C 1.121094 22.167969 1.839844 21.933594 2.511719 21.550781 C 3.179688 21.167969 3.75 20.671875 4.21875 20.0625 L 12.195312 10.417969 C 12.308594 10.28125 12.441406 10.171875 12.597656 10.089844 C 12.753906 10.007812 12.921875 9.957031 13.097656 9.9375 C 13.269531 9.917969 13.445312 9.929688 13.613281 9.976562 C 13.785156 10.023438 13.941406 10.097656 14.082031 10.203125 C 14.222656 10.308594 14.339844 10.4375 14.433594 10.585938 C 14.527344 10.738281 14.589844 10.898438 14.621094 11.074219 C 14.652344 11.246094 14.648438 11.417969 14.613281 11.59375 C 14.578125 11.765625 14.515625 11.925781 14.417969 12.074219 L 10.300781 18.269531 C 10.148438 18.5 10.144531 18.734375 10.285156 18.96875 C 10.425781 19.207031 10.636719 19.3125 10.910156 19.289062 L 29.109375 17.589844 C 29.390625 17.566406 29.65625 17.621094 29.90625 17.757812 C 30.152344 17.894531 30.34375 18.085938 30.476562 18.335938 C 30.609375 18.582031 30.664062 18.847656 30.640625 19.128906 C 30.617188 19.410156 30.519531 19.664062 30.34375 19.886719 C 30.101562 20.179688 29.792969 20.351562 29.414062 20.402344 L 22.066406 21.210938 C 21.886719 21.230469 21.738281 21.3125 21.625 21.453125 C 21.511719 21.59375 21.464844 21.757812 21.484375 21.9375 C 21.503906 22.117188 21.585938 22.261719 21.726562 22.378906 C 21.867188 22.492188 22.027344 22.539062 22.207031 22.519531 C 22.21875 22.519531 29.570312 21.722656 29.570312 21.714844 L 32.886719 21.351562 C 33.066406 21.332031 33.242188 21.347656 33.414062 21.398438 C 33.589844 21.449219 33.746094 21.53125 33.882812 21.644531 C 34.023438 21.757812 34.136719 21.890625 34.222656 22.050781 C 34.3125 22.207031 34.363281 22.375 34.382812 22.554688 C 34.402344 22.730469 34.386719 22.90625 34.339844 23.082031 C 34.289062 23.253906 34.207031 23.410156 34.09375 23.550781 C 33.980469 23.691406 33.847656 23.804688 33.691406 23.890625 C 33.53125 23.976562 33.363281 24.03125 33.1875 24.050781 Z M 6.347656 8.617188 C 6.328125 8.429688 6.273438 8.25 6.1875 8.082031 C 6.101562 7.914062 5.984375 7.769531 5.84375 7.644531 C 5.699219 7.519531 5.539062 7.425781 5.363281 7.363281 C 5.183594 7.300781 5 7.273438 4.8125 7.277344 C 4.621094 7.285156 4.441406 7.328125 4.269531 7.402344 C 4.09375 7.476562 3.941406 7.582031 3.808594 7.71875 C 3.675781 7.851562 3.570312 8.003906 3.496094 8.179688 C 3.421875 8.351562 3.382812 8.535156 3.375 8.722656 L 3.222656 19.191406 L 6.898438 14.738281 C 6.910156 14.882812 6.359375 8.734375 6.347656 8.617188 Z M 15.898438 10.679688 C 16.082031 11.441406 15.957031 12.148438 15.523438 12.804688 L 12.171875 17.84375 L 28.984375 16.269531 C 29.59375 16.214844 30.15625 16.347656 30.675781 16.667969 C 30.972656 16.125 31.777344 15.757812 31.703125 15.03125 C 31.699219 14.777344 31.625 14.546875 31.484375 14.339844 C 31.34375 14.132812 31.15625 13.980469 30.925781 13.878906 C 30.695312 13.78125 30.453125 13.753906 30.207031 13.796875 C 29.960938 13.839844 29.742188 13.945312 29.558594 14.117188 L 28.777344 14.882812 C 28.636719 15.015625 28.472656 15.082031 28.277344 15.078125 C 28.085938 15.074219 27.921875 15.003906 27.785156 14.867188 C 27.648438 14.730469 27.582031 14.566406 27.582031 14.371094 C 27.582031 14.175781 27.648438 14.011719 27.785156 13.875 C 28.300781 13.367188 30.445312 11.222656 30.996094 10.671875 C 31.132812 10.53125 31.234375 10.371094 31.304688 10.191406 C 31.378906 10.011719 31.414062 9.824219 31.410156 9.632812 C 31.410156 9.4375 31.371094 9.25 31.296875 9.070312 C 31.222656 8.894531 31.117188 8.734375 30.976562 8.597656 C 30.839844 8.460938 30.683594 8.355469 30.503906 8.28125 C 30.324219 8.207031 30.140625 8.167969 29.945312 8.164062 C 29.75 8.164062 29.566406 8.199219 29.382812 8.269531 C 29.203125 8.34375 29.042969 8.445312 28.90625 8.582031 C 28.90625 8.582031 24.089844 13.394531 24.085938 13.398438 C 23.949219 13.535156 23.78125 13.601562 23.589844 13.597656 C 23.394531 13.597656 23.230469 13.53125 23.09375 13.394531 C 22.957031 13.257812 22.886719 13.09375 22.882812 12.898438 C 22.882812 12.707031 22.945312 12.539062 23.078125 12.402344 L 30.054688 5.425781 C 30.1875 5.289062 30.289062 5.132812 30.363281 4.953125 C 30.433594 4.777344 30.46875 4.59375 30.46875 4.402344 C 30.464844 4.210938 30.429688 4.027344 30.355469 3.851562 C 30.28125 3.671875 30.179688 3.515625 30.042969 3.382812 C 29.90625 3.246094 29.753906 3.140625 29.574219 3.066406 C 29.398438 2.992188 29.214844 2.957031 29.023438 2.953125 C 28.832031 2.953125 28.648438 2.988281 28.472656 3.058594 C 28.292969 3.128906 28.136719 3.230469 28 3.363281 C 26.515625 4.84375 23.296875 8.074219 21.789062 9.578125 C 21.648438 9.714844 21.484375 9.777344 21.289062 9.777344 C 21.097656 9.773438 20.933594 9.703125 20.796875 9.566406 C 20.660156 9.429688 20.589844 9.265625 20.589844 9.070312 C 20.589844 8.878906 20.65625 8.710938 20.789062 8.574219 L 24.449219 4.917969 C 24.589844 4.773438 24.695312 4.613281 24.773438 4.425781 C 24.851562 4.242188 24.890625 4.050781 24.890625 3.851562 C 24.890625 3.652344 24.851562 3.460938 24.777344 3.273438 C 24.703125 3.089844 24.59375 2.925781 24.453125 2.78125 C 24.3125 2.640625 24.152344 2.53125 23.96875 2.453125 C 23.785156 2.375 23.59375 2.332031 23.394531 2.332031 C 23.195312 2.328125 23 2.363281 22.816406 2.4375 C 22.628906 2.511719 22.464844 2.617188 22.320312 2.753906 L 15.320312 9.539062 C 15.605469 9.871094 15.800781 10.25 15.898438 10.679688 Z M 8.039062 6.433594 C 8.066406 6.4375 11.179688 7.15625 11.203125 7.15625 C 11.394531 7.191406 11.566406 7.15625 11.726562 7.050781 C 11.886719 6.945312 11.988281 6.796875 12.027344 6.609375 C 12.070312 6.421875 12.039062 6.246094 11.9375 6.082031 C 11.835938 5.921875 11.691406 5.816406 11.503906 5.769531 C 11.472656 5.769531 8.363281 5.050781 8.335938 5.050781 C 8.148438 5.015625 7.972656 5.050781 7.8125 5.15625 C 7.652344 5.261719 7.554688 5.410156 7.511719 5.597656 C 7.472656 5.785156 7.503906 5.960938 7.605469 6.121094 C 7.707031 6.285156 7.851562 6.390625 8.039062 6.433594 Z M 14.875 5.039062 C 15.058594 5.105469 15.242188 5.09375 15.417969 5.007812 C 15.59375 4.921875 15.710938 4.785156 15.773438 4.601562 L 16.824219 1.546875 C 16.886719 1.359375 16.875 1.179688 16.789062 1.003906 C 16.703125 0.832031 16.566406 0.710938 16.382812 0.648438 C 16.199219 0.585938 16.019531 0.59375 15.84375 0.679688 C 15.667969 0.765625 15.546875 0.902344 15.484375 1.085938 L 14.433594 4.140625 C 14.371094 4.324219 14.382812 4.507812 14.46875 4.683594 C 14.554688 4.859375 14.691406 4.976562 14.875 5.039062 Z M 11.742188 4.207031 C 11.839844 4.375 11.980469 4.484375 12.167969 4.535156 C 12.351562 4.585938 12.53125 4.5625 12.699219 4.46875 C 12.867188 4.375 12.980469 4.238281 13.035156 4.050781 C 13.089844 3.867188 13.070312 3.6875 12.980469 3.519531 L 11.257812 0.425781 C 11.164062 0.253906 11.023438 0.140625 10.832031 0.0898438 C 10.644531 0.0351562 10.464844 0.0546875 10.292969 0.152344 C 10.125 0.246094 10.011719 0.386719 9.957031 0.578125 C 9.902344 0.765625 9.925781 0.945312 10.019531 1.117188 Z M 11.742188 4.207031 " clip-rule="nonzero"/></clipPath><linearGradient x1="4" gradientTransform="matrix(0.614157, 0, 0, 0.614157, -2.456628, -2.425917)" y1="32" x2="60.016979" gradientUnits="userSpaceOnUse" y2="32" id="7f2ba353e0"><stop stop-opacity="1" stop-color="rgb(100%, 65.098572%, 55.299377%)" offset="0"/><stop stop-opacity="1" stop-color="rgb(99.995422%, 64.932251%, 55.285645%)" offset="0.0078125"/><stop stop-opacity="1" stop-color="rgb(99.989319%, 64.601135%, 55.258179%)" offset="0.015625"/><stop stop-opacity="1" stop-color="rgb(99.983215%, 64.27002%, 55.230713%)" offset="0.0234375"/><stop stop-opacity="1" stop-color="rgb(99.977112%, 63.938904%, 55.203247%)" offset="0.03125"/><stop stop-opacity="1" stop-color="rgb(99.971008%, 63.607788%, 55.175781%)" offset="0.0390625"/><stop stop-opacity="1" stop-color="rgb(99.964905%, 63.276672%, 55.148315%)" offset="0.046875"/><stop stop-opacity="1" stop-color="rgb(99.958801%, 62.945557%, 55.12085%)" offset="0.0546875"/><stop stop-opacity="1" stop-color="rgb(99.952698%, 62.612915%, 55.093384%)" offset="0.0625"/><stop stop-opacity="1" stop-color="rgb(99.946594%, 62.281799%, 55.067444%)" offset="0.0703125"/><stop stop-opacity="1" stop-color="rgb(99.940491%, 61.950684%, 55.039978%)" offset="0.078125"/><stop stop-opacity="1" stop-color="rgb(99.932861%, 61.619568%, 55.012512%)" offset="0.0859375"/><stop stop-opacity="1" stop-color="rgb(99.926758%, 61.288452%, 54.985046%)" offset="0.09375"/><stop stop-opacity="1" stop-color="rgb(99.920654%, 60.957336%, 54.957581%)" offset="0.101562"/><stop stop-opacity="1" stop-color="rgb(99.914551%, 60.624695%, 54.930115%)" offset="0.109375"/><stop stop-opacity="1" stop-color="rgb(99.908447%, 60.293579%, 54.902649%)" offset="0.117187"/><stop stop-opacity="1" stop-color="rgb(99.902344%, 59.962463%, 54.875183%)" offset="0.125"/><stop stop-opacity="1" stop-color="rgb(99.89624%, 59.631348%, 54.847717%)" offset="0.132813"/><stop stop-opacity="1" stop-color="rgb(99.890137%, 59.300232%, 54.820251%)" offset="0.140625"/><stop stop-opacity="1" stop-color="rgb(99.884033%, 58.969116%, 54.792786%)" offset="0.148438"/><stop stop-opacity="1" stop-color="rgb(99.87793%, 58.638%, 54.76532%)" offset="0.15625"/><stop stop-opacity="1" stop-color="rgb(99.8703%, 58.305359%, 54.737854%)" offset="0.164062"/><stop stop-opacity="1" stop-color="rgb(99.864197%, 57.974243%, 54.710388%)" offset="0.171875"/><stop stop-opacity="1" stop-color="rgb(99.858093%, 57.643127%, 54.684448%)" offset="0.179688"/><stop stop-opacity="1" stop-color="rgb(99.85199%, 57.312012%, 54.656982%)" offset="0.1875"/><stop stop-opacity="1" stop-color="rgb(99.845886%, 56.980896%, 54.629517%)" offset="0.195312"/><stop stop-opacity="1" stop-color="rgb(99.839783%, 56.64978%, 54.602051%)" offset="0.203125"/><stop stop-opacity="1" stop-color="rgb(99.833679%, 56.317139%, 54.574585%)" offset="0.210938"/><stop stop-opacity="1" stop-color="rgb(99.827576%, 55.986023%, 54.547119%)" offset="0.21875"/><stop stop-opacity="1" stop-color="rgb(99.821472%, 55.654907%, 54.519653%)" offset="0.226562"/><stop stop-opacity="1" stop-color="rgb(99.815369%, 55.323792%, 54.492188%)" offset="0.234375"/><stop stop-opacity="1" stop-color="rgb(99.807739%, 54.992676%, 54.464722%)" offset="0.242187"/><stop stop-opacity="1" stop-color="rgb(99.801636%, 54.66156%, 54.437256%)" offset="0.25"/><stop stop-opacity="1" stop-color="rgb(99.795532%, 54.330444%, 54.40979%)" offset="0.257812"/><stop stop-opacity="1" stop-color="rgb(99.789429%, 53.997803%, 54.382324%)" offset="0.265625"/><stop stop-opacity="1" stop-color="rgb(99.783325%, 53.666687%, 54.354858%)" offset="0.273438"/><stop stop-opacity="1" stop-color="rgb(99.777222%, 53.335571%, 54.328918%)" offset="0.28125"/><stop stop-opacity="1" stop-color="rgb(99.771118%, 53.004456%, 54.301453%)" offset="0.289063"/><stop stop-opacity="1" stop-color="rgb(99.765015%, 52.67334%, 54.273987%)" offset="0.296875"/><stop stop-opacity="1" stop-color="rgb(99.758911%, 52.342224%, 54.246521%)" offset="0.304688"/><stop stop-opacity="1" stop-color="rgb(99.752808%, 52.009583%, 54.219055%)" offset="0.3125"/><stop stop-opacity="1" stop-color="rgb(99.746704%, 51.678467%, 54.191589%)" offset="0.320312"/><stop stop-opacity="1" stop-color="rgb(99.739075%, 51.347351%, 54.164124%)" offset="0.328125"/><stop stop-opacity="1" stop-color="rgb(99.732971%, 51.016235%, 54.136658%)" offset="0.335938"/><stop stop-opacity="1" stop-color="rgb(99.726868%, 50.68512%, 54.109192%)" offset="0.34375"/><stop stop-opacity="1" stop-color="rgb(99.720764%, 50.354004%, 54.081726%)" offset="0.351562"/><stop stop-opacity="1" stop-color="rgb(99.714661%, 50.022888%, 54.05426%)" offset="0.359375"/><stop stop-opacity="1" stop-color="rgb(99.708557%, 49.690247%, 54.026794%)" offset="0.367188"/><stop stop-opacity="1" stop-color="rgb(99.702454%, 49.359131%, 53.999329%)" offset="0.375"/><stop stop-opacity="1" stop-color="rgb(99.69635%, 49.028015%, 53.971863%)" offset="0.382812"/><stop stop-opacity="1" stop-color="rgb(99.690247%, 48.696899%, 53.945923%)" offset="0.390625"/><stop stop-opacity="1" stop-color="rgb(99.684143%, 48.365784%, 53.918457%)" offset="0.398438"/><stop stop-opacity="1" stop-color="rgb(99.676514%, 48.034668%, 53.890991%)" offset="0.40625"/><stop stop-opacity="1" stop-color="rgb(99.67041%, 47.702026%, 53.863525%)" offset="0.414062"/><stop stop-opacity="1" stop-color="rgb(99.664307%, 47.370911%, 53.83606%)" offset="0.421875"/><stop stop-opacity="1" stop-color="rgb(99.658203%, 47.039795%, 53.808594%)" offset="0.429688"/><stop stop-opacity="1" stop-color="rgb(99.6521%, 46.708679%, 53.781128%)" offset="0.4375"/><stop stop-opacity="1" stop-color="rgb(99.645996%, 46.377563%, 53.753662%)" offset="0.445312"/><stop stop-opacity="1" stop-color="rgb(99.639893%, 46.046448%, 53.726196%)" offset="0.453125"/><stop stop-opacity="1" stop-color="rgb(99.633789%, 45.715332%, 53.69873%)" offset="0.460937"/><stop stop-opacity="1" stop-color="rgb(99.627686%, 45.38269%, 53.671265%)" offset="0.46875"/><stop stop-opacity="1" stop-color="rgb(99.621582%, 45.051575%, 53.643799%)" offset="0.476562"/><stop stop-opacity="1" stop-color="rgb(99.613953%, 44.720459%, 53.616333%)" offset="0.484375"/><stop stop-opacity="1" stop-color="rgb(99.607849%, 44.389343%, 53.590393%)" offset="0.492188"/><stop stop-opacity="1" stop-color="rgb(99.601746%, 44.058228%, 53.562927%)" offset="0.5"/><stop stop-opacity="1" stop-color="rgb(99.595642%, 43.727112%, 53.535461%)" offset="0.507812"/><stop stop-opacity="1" stop-color="rgb(99.589539%, 43.39447%, 53.507996%)" offset="0.515625"/><stop stop-opacity="1" stop-color="rgb(99.583435%, 43.063354%, 53.48053%)" offset="0.523438"/><stop stop-opacity="1" stop-color="rgb(99.577332%, 42.732239%, 53.453064%)" offset="0.53125"/><stop stop-opacity="1" stop-color="rgb(99.571228%, 42.401123%, 53.425598%)" offset="0.539062"/><stop stop-opacity="1" stop-color="rgb(99.565125%, 42.070007%, 53.398132%)" offset="0.546875"/><stop stop-opacity="1" stop-color="rgb(99.559021%, 41.738892%, 53.370667%)" offset="0.554688"/><stop stop-opacity="1" stop-color="rgb(99.551392%, 41.407776%, 53.343201%)" offset="0.5625"/><stop stop-opacity="1" stop-color="rgb(99.545288%, 41.075134%, 53.315735%)" offset="0.570313"/><stop stop-opacity="1" stop-color="rgb(99.539185%, 40.744019%, 53.288269%)" offset="0.578125"/><stop stop-opacity="1" stop-color="rgb(99.533081%, 40.412903%, 53.260803%)" offset="0.585938"/><stop stop-opacity="1" stop-color="rgb(99.526978%, 40.081787%, 53.234863%)" offset="0.59375"/><stop stop-opacity="1" stop-color="rgb(99.520874%, 39.750671%, 53.207397%)" offset="0.601562"/><stop stop-opacity="1" stop-color="rgb(99.514771%, 39.419556%, 53.179932%)" offset="0.609375"/><stop stop-opacity="1" stop-color="rgb(99.508667%, 39.086914%, 53.152466%)" offset="0.617188"/><stop stop-opacity="1" stop-color="rgb(99.502563%, 38.755798%, 53.125%)" offset="0.625"/><stop stop-opacity="1" stop-color="rgb(99.49646%, 38.424683%, 53.097534%)" offset="0.632812"/><stop stop-opacity="1" stop-color="rgb(99.490356%, 38.093567%, 53.070068%)" offset="0.640625"/><stop stop-opacity="1" stop-color="rgb(99.482727%, 37.762451%, 53.042603%)" offset="0.648437"/><stop stop-opacity="1" stop-color="rgb(99.476624%, 37.431335%, 53.015137%)" offset="0.65625"/><stop stop-opacity="1" stop-color="rgb(99.47052%, 37.10022%, 52.987671%)" offset="0.664063"/><stop stop-opacity="1" stop-color="rgb(99.464417%, 36.767578%, 52.960205%)" offset="0.671875"/><stop stop-opacity="1" stop-color="rgb(99.458313%, 36.436462%, 52.932739%)" offset="0.679688"/><stop stop-opacity="1" stop-color="rgb(99.452209%, 36.105347%, 52.905273%)" offset="0.6875"/><stop stop-opacity="1" stop-color="rgb(99.446106%, 35.774231%, 52.877808%)" offset="0.695312"/><stop stop-opacity="1" stop-color="rgb(99.440002%, 35.443115%, 52.851868%)" offset="0.703125"/><stop stop-opacity="1" stop-color="rgb(99.433899%, 35.112%, 52.824402%)" offset="0.710938"/><stop stop-opacity="1" stop-color="rgb(99.427795%, 34.779358%, 52.796936%)" offset="0.71875"/><stop stop-opacity="1" stop-color="rgb(99.420166%, 34.448242%, 52.76947%)" offset="0.726562"/><stop stop-opacity="1" stop-color="rgb(99.414062%, 34.117126%, 52.742004%)" offset="0.734375"/><stop stop-opacity="1" stop-color="rgb(99.407959%, 33.786011%, 52.714539%)" offset="0.742187"/><stop stop-opacity="1" stop-color="rgb(99.401855%, 33.454895%, 52.687073%)" offset="0.75"/><stop stop-opacity="1" stop-color="rgb(99.395752%, 33.123779%, 52.659607%)" offset="0.757813"/><stop stop-opacity="1" stop-color="rgb(99.389648%, 32.792664%, 52.632141%)" offset="0.765625"/><stop stop-opacity="1" stop-color="rgb(99.383545%, 32.460022%, 52.604675%)" offset="0.773438"/><stop stop-opacity="1" stop-color="rgb(99.377441%, 32.128906%, 52.577209%)" offset="0.78125"/><stop stop-opacity="1" stop-color="rgb(99.371338%, 31.797791%, 52.549744%)" offset="0.789062"/><stop stop-opacity="1" stop-color="rgb(99.365234%, 31.466675%, 52.522278%)" offset="0.796875"/><stop stop-opacity="1" stop-color="rgb(99.357605%, 31.135559%, 52.496338%)" offset="0.804688"/><stop stop-opacity="1" stop-color="rgb(99.351501%, 30.804443%, 52.468872%)" offset="0.8125"/><stop stop-opacity="1" stop-color="rgb(99.345398%, 30.471802%, 52.441406%)" offset="0.820312"/><stop stop-opacity="1" stop-color="rgb(99.339294%, 30.140686%, 52.41394%)" offset="0.828125"/><stop stop-opacity="1" stop-color="rgb(99.333191%, 29.80957%, 52.386475%)" offset="0.835937"/><stop stop-opacity="1" stop-color="rgb(99.327087%, 29.478455%, 52.359009%)" offset="0.84375"/><stop stop-opacity="1" stop-color="rgb(99.320984%, 29.147339%, 52.331543%)" offset="0.851563"/><stop stop-opacity="1" stop-color="rgb(99.31488%, 28.816223%, 52.304077%)" offset="0.859375"/><stop stop-opacity="1" stop-color="rgb(99.308777%, 28.485107%, 52.276611%)" offset="0.867188"/><stop stop-opacity="1" stop-color="rgb(99.302673%, 28.152466%, 52.249146%)" offset="0.875"/><stop stop-opacity="1" stop-color="rgb(99.29657%, 27.82135%, 52.22168%)" offset="0.882812"/><stop stop-opacity="1" stop-color="rgb(99.28894%, 27.490234%, 52.194214%)" offset="0.890625"/><stop stop-opacity="1" stop-color="rgb(99.282837%, 27.159119%, 52.166748%)" offset="0.898438"/><stop stop-opacity="1" stop-color="rgb(99.276733%, 26.828003%, 52.139282%)" offset="0.90625"/><stop stop-opacity="1" stop-color="rgb(99.27063%, 26.496887%, 52.113342%)" offset="0.914062"/><stop stop-opacity="1" stop-color="rgb(99.264526%, 26.164246%, 52.085876%)" offset="0.921875"/><stop stop-opacity="1" stop-color="rgb(99.258423%, 25.83313%, 52.058411%)" offset="0.929687"/><stop stop-opacity="1" stop-color="rgb(99.252319%, 25.502014%, 52.030945%)" offset="0.9375"/><stop stop-opacity="1" stop-color="rgb(99.246216%, 25.170898%, 52.003479%)" offset="0.945312"/><stop stop-opacity="1" stop-color="rgb(99.240112%, 24.839783%, 51.976013%)" offset="0.953125"/><stop stop-opacity="1" stop-color="rgb(99.234009%, 24.508667%, 51.948547%)" offset="0.960938"/><stop stop-opacity="1" stop-color="rgb(99.226379%, 24.177551%, 51.921082%)" offset="0.96875"/><stop stop-opacity="1" stop-color="rgb(99.220276%, 23.84491%, 51.893616%)" offset="0.976562"/><stop stop-opacity="1" stop-color="rgb(99.214172%, 23.513794%, 51.86615%)" offset="0.984375"/><stop stop-opacity="1" stop-color="rgb(99.208069%, 23.182678%, 51.838684%)" offset="0.992188"/><stop stop-opacity="1" stop-color="rgb(99.201965%, 22.857666%, 51.811218%)" offset="1"/></linearGradient></defs><g clip-path="url(#67c829106b)"><g clip-path="url(#42b6ca7913)"><path fill="url(#7f2ba353e0)" d="M 0 0.0351562 L 0 34.496094 L 34.402344 34.496094 L 34.402344 0.0351562 Z M 0 0.0351562 " fill-rule="nonzero"/></g></g></svg>