<svg xmlns="http://www.w3.org/2000/svg" xmlns:xlink="http://www.w3.org/1999/xlink" width="46" zoomAndPan="magnify" viewBox="0 0 34.5 30.000001" height="40" preserveAspectRatio="xMidYMid meet" version="1.0"><defs><clipPath id="5a0cd3f52d"><path d="M 0.316406 0 L 33.703125 0 L 33.703125 29 L 0.316406 29 Z M 0.316406 0 " clip-rule="nonzero"/></clipPath></defs><g clip-path="url(#5a0cd3f52d)"><path fill="#34495e" d="M 11.0625 0.0429688 L 22.832031 0.0429688 C 25.789062 0.0429688 28.476562 1.253906 30.425781 3.199219 C 32.371094 5.148438 33.582031 7.835938 33.582031 10.792969 C 33.582031 13.75 32.371094 16.4375 30.425781 18.382812 C 28.476562 20.332031 25.789062 21.539062 22.832031 21.539062 L 17.867188 21.539062 L 8.242188 28.742188 C 7.898438 29 7.410156 28.929688 7.152344 28.585938 C 7.046875 28.445312 6.996094 28.285156 6.996094 28.121094 L 6.996094 20.734375 C 5.097656 19.953125 3.46875 18.640625 2.296875 16.988281 C 1.050781 15.230469 0.3125 13.09375 0.3125 10.789062 C 0.3125 7.835938 1.519531 5.144531 3.46875 3.199219 C 5.417969 1.25 8.105469 0.0429688 11.0625 0.0429688 Z M 8.992188 14.488281 C 8.5625 14.488281 8.214844 14.140625 8.214844 13.707031 C 8.214844 13.277344 8.5625 12.929688 8.992188 12.929688 L 16.257812 12.929688 C 16.6875 12.929688 17.039062 13.277344 17.039062 13.707031 C 17.039062 14.136719 16.6875 14.488281 16.257812 14.488281 Z M 22.886719 14.488281 C 22.457031 14.488281 22.105469 14.140625 22.105469 13.707031 C 22.105469 13.277344 22.453125 12.929688 22.886719 12.929688 L 24.902344 12.929688 C 25.332031 12.929688 25.679688 13.277344 25.679688 13.707031 C 25.679688 14.136719 25.332031 14.488281 24.902344 14.488281 Z M 8.992188 8.65625 C 8.5625 8.65625 8.214844 8.308594 8.214844 7.875 C 8.214844 7.445312 8.5625 7.09375 8.992188 7.09375 L 24.902344 7.09375 C 25.332031 7.09375 25.679688 7.445312 25.679688 7.875 C 25.679688 8.304688 25.332031 8.65625 24.902344 8.65625 Z M 22.832031 1.605469 L 11.0625 1.605469 C 8.535156 1.605469 6.238281 2.636719 4.574219 4.304688 C 2.90625 5.96875 1.871094 8.265625 1.871094 10.792969 C 1.871094 12.761719 2.5 14.589844 3.5625 16.089844 C 4.652344 17.617188 6.191406 18.808594 7.988281 19.449219 C 8.316406 19.542969 8.554688 19.84375 8.554688 20.199219 L 8.554688 26.570312 L 17.09375 20.179688 C 17.230469 20.054688 17.414062 19.980469 17.613281 19.980469 L 22.832031 19.980469 C 25.359375 19.980469 27.65625 18.945312 29.320312 17.28125 C 30.984375 15.613281 32.019531 13.316406 32.019531 10.792969 C 32.019531 8.265625 30.984375 5.96875 29.320312 4.304688 C 27.65625 2.636719 25.359375 1.605469 22.832031 1.605469 Z M 22.832031 1.605469 " fill-opacity="1" fill-rule="nonzero"/></g></svg>