<svg xmlns="http://www.w3.org/2000/svg" xmlns:xlink="http://www.w3.org/1999/xlink" width="164" zoomAndPan="magnify" viewBox="0 0 123 30.000001" height="40" preserveAspectRatio="xMidYMid meet" version="1.0"><path fill="#34495e" d="M 30.765625 14.355469 C 30.765625 15.300781 30.671875 16.234375 30.488281 17.160156 C 30.304688 18.082031 30.03125 18.980469 29.671875 19.851562 C 29.308594 20.722656 28.867188 21.550781 28.34375 22.332031 C 27.820312 23.117188 27.226562 23.84375 26.558594 24.507812 C 25.890625 25.175781 25.167969 25.769531 24.382812 26.296875 C 23.597656 26.820312 22.773438 27.261719 21.902344 27.621094 C 21.03125 27.984375 20.132812 28.253906 19.207031 28.4375 C 18.28125 28.621094 17.347656 28.714844 16.40625 28.714844 C 15.464844 28.714844 14.53125 28.621094 13.605469 28.4375 C 12.679688 28.253906 11.785156 27.984375 10.914062 27.621094 C 10.042969 27.261719 9.214844 26.820312 8.429688 26.296875 C 7.644531 25.769531 6.921875 25.175781 6.253906 24.507812 C 5.589844 23.84375 4.992188 23.117188 4.46875 22.332031 C 3.945312 21.550781 3.503906 20.722656 3.140625 19.851562 C 2.78125 18.980469 2.507812 18.082031 2.324219 17.160156 C 2.140625 16.234375 2.050781 15.300781 2.050781 14.355469 C 2.050781 13.414062 2.140625 12.480469 2.324219 11.554688 C 2.507812 10.632812 2.78125 9.734375 3.140625 8.863281 C 3.503906 7.992188 3.945312 7.164062 4.46875 6.378906 C 4.992188 5.597656 5.589844 4.871094 6.253906 4.207031 C 6.921875 3.539062 7.644531 2.945312 8.429688 2.417969 C 9.214844 1.894531 10.042969 1.453125 10.914062 1.09375 C 11.785156 0.730469 12.679688 0.460938 13.605469 0.277344 C 14.53125 0.09375 15.464844 0 16.40625 0 C 17.347656 0 18.28125 0.09375 19.207031 0.277344 C 20.132812 0.460938 21.03125 0.730469 21.902344 1.09375 C 22.773438 1.453125 23.597656 1.894531 24.382812 2.417969 C 25.167969 2.945312 25.890625 3.539062 26.558594 4.207031 C 27.226562 4.871094 27.820312 5.597656 28.34375 6.378906 C 28.867188 7.164062 29.308594 7.992188 29.671875 8.863281 C 30.03125 9.734375 30.304688 10.632812 30.488281 11.554688 C 30.671875 12.480469 30.765625 13.414062 30.765625 14.355469 Z M 30.765625 14.355469 " fill-opacity="1" fill-rule="nonzero"/><path fill="#34495e" d="M 75.855469 14.355469 C 75.855469 15.300781 75.765625 16.234375 75.582031 17.160156 C 75.398438 18.082031 75.125 18.980469 74.765625 19.851562 C 74.402344 20.722656 73.960938 21.550781 73.4375 22.332031 C 72.914062 23.117188 72.320312 23.84375 71.652344 24.507812 C 70.984375 25.175781 70.261719 25.769531 69.476562 26.296875 C 68.691406 26.820312 67.867188 27.261719 66.996094 27.621094 C 66.125 27.984375 65.226562 28.253906 64.300781 28.4375 C 63.375 28.621094 62.441406 28.714844 61.5 28.714844 C 60.558594 28.714844 59.625 28.621094 58.699219 28.4375 C 57.773438 28.253906 56.875 27.984375 56.003906 27.621094 C 55.132812 27.261719 54.308594 26.820312 53.523438 26.296875 C 52.738281 25.769531 52.015625 25.175781 51.347656 24.507812 C 50.679688 23.84375 50.085938 23.117188 49.5625 22.332031 C 49.039062 21.550781 48.597656 20.722656 48.234375 19.851562 C 47.875 18.980469 47.601562 18.082031 47.417969 17.160156 C 47.234375 16.234375 47.144531 15.300781 47.144531 14.355469 C 47.144531 13.414062 47.234375 12.480469 47.417969 11.554688 C 47.601562 10.632812 47.875 9.734375 48.234375 8.863281 C 48.597656 7.992188 49.039062 7.164062 49.5625 6.378906 C 50.085938 5.597656 50.679688 4.871094 51.347656 4.207031 C 52.015625 3.539062 52.738281 2.945312 53.523438 2.417969 C 54.308594 1.894531 55.132812 1.453125 56.003906 1.09375 C 56.875 0.730469 57.773438 0.460938 58.699219 0.277344 C 59.625 0.09375 60.558594 0 61.5 0 C 62.441406 0 63.375 0.09375 64.300781 0.277344 C 65.226562 0.460938 66.125 0.730469 66.996094 1.09375 C 67.867188 1.453125 68.691406 1.894531 69.476562 2.417969 C 70.261719 2.945312 70.984375 3.539062 71.652344 4.207031 C 72.320312 4.871094 72.914062 5.597656 73.4375 6.378906 C 73.960938 7.164062 74.402344 7.992188 74.765625 8.863281 C 75.125 9.734375 75.398438 10.632812 75.582031 11.554688 C 75.765625 12.480469 75.855469 13.414062 75.855469 14.355469 Z M 75.855469 14.355469 " fill-opacity="1" fill-rule="nonzero"/><path fill="#34495e" d="M 120.949219 14.355469 C 120.949219 15.300781 120.859375 16.234375 120.675781 17.160156 C 120.492188 18.082031 120.21875 18.980469 119.859375 19.851562 C 119.496094 20.722656 119.054688 21.550781 118.53125 22.332031 C 118.007812 23.117188 117.410156 23.84375 116.746094 24.507812 C 116.078125 25.175781 115.355469 25.769531 114.570312 26.296875 C 113.785156 26.820312 112.957031 27.261719 112.085938 27.621094 C 111.214844 27.984375 110.320312 28.253906 109.394531 28.4375 C 108.46875 28.621094 107.535156 28.714844 106.59375 28.714844 C 105.652344 28.714844 104.71875 28.621094 103.792969 28.4375 C 102.867188 28.253906 101.96875 27.984375 101.097656 27.621094 C 100.226562 27.261719 99.402344 26.820312 98.617188 26.296875 C 97.832031 25.769531 97.109375 25.175781 96.441406 24.507812 C 95.773438 23.84375 95.179688 23.117188 94.65625 22.332031 C 94.132812 21.550781 93.691406 20.722656 93.328125 19.851562 C 92.96875 18.980469 92.695312 18.082031 92.511719 17.160156 C 92.328125 16.234375 92.234375 15.300781 92.234375 14.355469 C 92.234375 13.414062 92.328125 12.480469 92.511719 11.554688 C 92.695312 10.632812 92.96875 9.734375 93.328125 8.863281 C 93.691406 7.992188 94.132812 7.164062 94.65625 6.378906 C 95.179688 5.597656 95.773438 4.871094 96.441406 4.207031 C 97.109375 3.539062 97.832031 2.945312 98.617188 2.417969 C 99.402344 1.894531 100.226562 1.453125 101.097656 1.09375 C 101.96875 0.730469 102.867188 0.460938 103.792969 0.277344 C 104.71875 0.09375 105.652344 0 106.59375 0 C 107.535156 0 108.46875 0.09375 109.394531 0.277344 C 110.320312 0.460938 111.214844 0.730469 112.085938 1.09375 C 112.957031 1.453125 113.785156 1.894531 114.570312 2.417969 C 115.355469 2.945312 116.078125 3.539062 116.746094 4.207031 C 117.410156 4.871094 118.007812 5.597656 118.53125 6.378906 C 119.054688 7.164062 119.496094 7.992188 119.859375 8.863281 C 120.21875 9.734375 120.492188 10.632812 120.675781 11.554688 C 120.859375 12.480469 120.949219 13.414062 120.949219 14.355469 Z M 120.949219 14.355469 " fill-opacity="1" fill-rule="nonzero"/></svg>