<svg xmlns="http://www.w3.org/2000/svg" xmlns:xlink="http://www.w3.org/1999/xlink" width="44" zoomAndPan="magnify" viewBox="0 0 33 35.25" height="47" preserveAspectRatio="xMidYMid meet" version="1.0"><defs><clipPath id="3546a108d3"><path d="M 8 0 L 32.480469 0 L 32.480469 34.515625 L 8 34.515625 Z M 8 0 " clip-rule="nonzero"/></clipPath><clipPath id="d5afbee72a"><path d="M 0.34375 17 L 8 17 L 8 34 L 0.34375 34 Z M 0.34375 17 " clip-rule="nonzero"/></clipPath></defs><g clip-path="url(#3546a108d3)"><path fill="#34495e" d="M 31.363281 19.378906 C 31.433594 18.828125 32.453125 18.007812 32.488281 17.453125 C 32.546875 16.441406 31.179688 14.460938 30.238281 14.078125 C 28.746094 13.476562 21.164062 13.757812 21.164062 13.757812 C 20.421875 12.460938 22.484375 9.265625 23.050781 7.882812 C 23.882812 5.859375 23.742188 3.171875 22.691406 1.792969 C 21.40625 0.109375 19.042969 -0.00390625 18.996094 0.75 C 18.644531 6.21875 17.597656 7.738281 16.195312 8.820312 C 15.351562 9.46875 14.617188 10.039062 14.226562 11.027344 C 11.839844 17.113281 10.066406 18.523438 9.054688 18.523438 L 8.378906 18.523438 L 8.378906 32.355469 L 15.464844 33.671875 C 15.464844 33.671875 24.257812 34.503906 27.027344 33.671875 C 27.898438 33.414062 29.402344 32.105469 29.757812 31.265625 C 29.960938 30.78125 29.679688 29.640625 29.917969 29.175781 C 30.273438 28.488281 31.765625 27.625 31.765625 26.6875 C 31.765625 26.019531 30.984375 24.863281 31.042969 24.199219 C 31.097656 23.53125 32.488281 22.617188 32.488281 21.949219 C 32.484375 21.25 31.269531 20.074219 31.363281 19.378906 Z M 31.363281 19.378906 " fill-opacity="1" fill-rule="nonzero"/></g><g clip-path="url(#d5afbee72a)"><path fill="#34495e" d="M 7.03125 32.019531 C 7.03125 32.765625 6.425781 33.367188 5.679688 33.367188 L 1.632812 33.367188 C 0.886719 33.367188 0.28125 32.765625 0.28125 32.019531 L 0.28125 19.199219 C 0.28125 18.453125 0.886719 17.847656 1.632812 17.847656 L 5.679688 17.847656 C 6.425781 17.847656 7.03125 18.453125 7.03125 19.199219 Z M 7.03125 32.019531 " fill-opacity="1" fill-rule="nonzero"/></g></svg>