<svg xmlns="http://www.w3.org/2000/svg" xmlns:xlink="http://www.w3.org/1999/xlink" width="48" zoomAndPan="magnify" viewBox="0 0 36 30.000001" height="40" preserveAspectRatio="xMidYMid meet" version="1.0"><defs><clipPath id="343ef9fdd1"><path d="M 1 0.0820312 L 35 0.0820312 L 35 29.03125 L 1 29.03125 Z M 1 0.0820312 " clip-rule="nonzero"/></clipPath></defs><g clip-path="url(#343ef9fdd1)"><path fill="#ff3131" d="M 31.71875 2.726562 C 30.015625 1.019531 27.746094 0.0820312 25.335938 0.0820312 C 22.925781 0.0820312 20.660156 1.019531 18.953125 2.726562 L 17.917969 3.757812 L 16.882812 2.722656 C 15.179688 1.019531 12.914062 0.0820312 10.5 0.0820312 C 8.089844 0.0820312 5.824219 1.019531 4.121094 2.722656 C 0.601562 6.242188 0.601562 11.96875 4.121094 15.488281 L 17.472656 28.839844 C 17.59375 28.964844 17.757812 29.027344 17.917969 29.027344 C 18.082031 29.027344 18.242188 28.964844 18.367188 28.839844 L 31.71875 15.488281 C 35.238281 11.96875 35.238281 6.242188 31.71875 2.726562 Z M 31.71875 2.726562 " fill-opacity="1" fill-rule="nonzero"/></g></svg>