<svg xmlns="http://www.w3.org/2000/svg" xmlns:xlink="http://www.w3.org/1999/xlink" width="121" zoomAndPan="magnify" viewBox="0 0 90.75 90.75" height="121" preserveAspectRatio="xMidYMid meet" version="1.0"><defs><clipPath id="37e6edd54b"><path d="M 0 0 L 90.5 0 L 90.5 90.5 L 0 90.5 Z M 0 0 " clip-rule="nonzero"/></clipPath></defs><g clip-path="url(#37e6edd54b)"><path fill="#34495e" d="M 45.210938 -0.0273438 C 20.226562 -0.0273438 -0.0273438 20.226562 -0.0273438 45.210938 C -0.0273438 70.195312 20.226562 90.449219 45.210938 90.449219 C 70.195312 90.449219 90.449219 70.195312 90.449219 45.210938 C 90.449219 20.226562 70.195312 -0.0273438 45.210938 -0.0273438 Z M 55.949219 69.332031 C 53.625 70.25 51.769531 70.945312 50.386719 71.425781 C 49.003906 71.910156 47.398438 72.148438 45.566406 72.148438 C 42.753906 72.148438 40.5625 71.460938 39.003906 70.089844 C 37.441406 68.714844 36.660156 66.976562 36.660156 64.863281 C 36.660156 64.042969 36.71875 63.203125 36.835938 62.34375 C 36.957031 61.488281 37.144531 60.519531 37.402344 59.441406 L 40.304688 49.160156 C 40.5625 48.175781 40.785156 47.246094 40.960938 46.363281 C 41.136719 45.484375 41.222656 44.679688 41.222656 43.953125 C 41.222656 42.640625 40.953125 41.722656 40.410156 41.207031 C 39.871094 40.691406 38.835938 40.429688 37.304688 40.429688 C 36.554688 40.429688 35.78125 40.550781 34.996094 40.78125 C 34.207031 41.015625 33.53125 41.242188 32.964844 41.453125 L 33.742188 38.28125 C 35.640625 37.507812 37.460938 36.84375 39.199219 36.292969 C 40.941406 35.742188 42.582031 35.464844 44.140625 35.464844 C 46.933594 35.464844 49.089844 36.140625 50.601562 37.492188 C 52.117188 38.84375 52.875 40.59375 52.875 42.753906 C 52.875 43.199219 52.824219 43.988281 52.71875 45.113281 C 52.613281 46.238281 52.417969 47.273438 52.136719 48.210938 L 49.242188 58.449219 C 49.007812 59.273438 48.792969 60.214844 48.609375 61.269531 C 48.417969 62.320312 48.324219 63.125 48.324219 63.664062 C 48.324219 65.023438 48.628906 65.953125 49.234375 66.445312 C 49.847656 66.9375 50.902344 67.183594 52.398438 67.183594 C 53.101562 67.183594 53.902344 67.058594 54.792969 66.8125 C 55.679688 66.570312 56.328125 66.351562 56.726562 66.164062 Z M 55.4375 27.742188 C 54.089844 29 52.464844 29.628906 50.566406 29.628906 C 48.660156 29.628906 47.03125 29 45.667969 27.742188 C 44.308594 26.488281 43.625 24.96875 43.625 23.183594 C 43.625 21.402344 44.308594 19.878906 45.667969 18.609375 C 47.027344 17.34375 48.660156 16.710938 50.566406 16.710938 C 52.464844 16.710938 54.089844 17.34375 55.4375 18.609375 C 56.789062 19.878906 57.460938 21.402344 57.460938 23.183594 C 57.460938 24.96875 56.789062 26.492188 55.4375 27.742188 Z M 55.4375 27.742188 " fill-opacity="1" fill-rule="nonzero"/></g></svg>