<svg xmlns="http://www.w3.org/2000/svg" xmlns:xlink="http://www.w3.org/1999/xlink" width="42" zoomAndPan="magnify" viewBox="0 0 31.5 30.000001" height="40" preserveAspectRatio="xMidYMid meet" version="1.0"><defs><clipPath id="deb9b97fd5"><path d="M 0.429688 0 L 30.75 0 L 30.75 29 L 0.429688 29 Z M 0.429688 0 " clip-rule="nonzero"/></clipPath></defs><g clip-path="url(#deb9b97fd5)"><path fill="#34495e" d="M 30.617188 17.347656 C 30.617188 16.589844 30.316406 15.886719 29.800781 15.367188 C 30.386719 14.722656 30.683594 13.859375 30.601562 12.964844 C 30.457031 11.367188 29.015625 10.113281 27.324219 10.113281 L 19.554688 10.113281 C 19.9375 8.945312 20.554688 6.804688 20.554688 5.082031 C 20.554688 2.355469 18.234375 0.0507812 16.78125 0.0507812 C 15.472656 0.0507812 14.539062 0.785156 14.5 0.816406 C 14.351562 0.9375 14.265625 1.117188 14.265625 1.308594 L 14.265625 5.574219 L 10.644531 13.421875 L 10.492188 13.5 L 10.492188 13.257812 C 10.492188 12.910156 10.210938 12.628906 9.863281 12.628906 L 3.574219 12.628906 C 1.839844 12.628906 0.429688 14.039062 0.429688 15.773438 L 0.429688 25.835938 C 0.429688 27.570312 1.839844 28.980469 3.574219 28.980469 L 7.347656 28.980469 C 8.707031 28.980469 9.867188 28.113281 10.308594 26.902344 C 11.355469 27.441406 12.761719 27.726562 13.636719 27.726562 L 25.183594 27.726562 C 26.554688 27.726562 27.75 26.800781 28.03125 25.527344 C 28.175781 24.871094 28.09375 24.210938 27.804688 23.636719 C 28.734375 23.171875 29.359375 22.210938 29.359375 21.121094 C 29.359375 20.675781 29.257812 20.25 29.0625 19.863281 C 29.992188 19.394531 30.617188 18.4375 30.617188 17.347656 Z M 7.347656 27.722656 L 3.574219 27.722656 C 2.53125 27.722656 1.6875 26.875 1.6875 25.835938 L 1.6875 15.773438 C 1.6875 14.734375 2.535156 13.886719 3.574219 13.886719 L 3.574219 13.894531 L 9.230469 13.894531 L 9.230469 14.523438 C 9.230469 14.527344 9.234375 14.527344 9.234375 14.53125 L 9.234375 25.835938 C 9.234375 26.875 8.386719 27.722656 7.347656 27.722656 Z M 27.964844 18.902344 C 27.71875 18.929688 27.515625 19.09375 27.4375 19.324219 C 27.363281 19.558594 27.425781 19.8125 27.601562 19.980469 C 27.925781 20.285156 28.101562 20.691406 28.101562 21.121094 C 28.101562 21.914062 27.5 22.582031 26.707031 22.671875 C 26.464844 22.699219 26.257812 22.867188 26.183594 23.097656 C 26.105469 23.328125 26.167969 23.585938 26.347656 23.753906 C 26.761719 24.144531 26.929688 24.691406 26.804688 25.253906 C 26.648438 25.957031 25.96875 26.464844 25.183594 26.464844 L 13.636719 26.464844 C 12.703125 26.464844 11.199219 26.0625 10.492188 25.539062 L 10.492188 14.910156 L 11.398438 14.457031 C 11.527344 14.390625 11.628906 14.285156 11.6875 14.15625 L 15.460938 5.980469 C 15.5 5.898438 15.519531 5.808594 15.519531 5.71875 L 15.519531 1.65625 C 15.78125 1.511719 16.234375 1.316406 16.777344 1.316406 C 17.464844 1.316406 19.292969 3.03125 19.292969 5.089844 C 19.292969 7.300781 18.089844 10.492188 18.078125 10.523438 C 18.003906 10.71875 18.027344 10.933594 18.148438 11.105469 C 18.265625 11.273438 18.457031 11.375 18.664062 11.375 L 27.320312 11.375 C 28.371094 11.375 29.261719 12.125 29.347656 13.085938 C 29.414062 13.800781 29.074219 14.484375 28.453125 14.863281 C 28.261719 14.984375 28.148438 15.199219 28.15625 15.425781 C 28.164062 15.652344 28.292969 15.855469 28.496094 15.957031 C 29.027344 16.230469 29.355469 16.765625 29.355469 17.351562 C 29.355469 18.140625 28.757812 18.808594 27.964844 18.902344 Z M 27.964844 18.902344 " fill-opacity="1" fill-rule="nonzero"/></g></svg>