<svg xmlns="http://www.w3.org/2000/svg" xmlns:xlink="http://www.w3.org/1999/xlink" width="404" zoomAndPan="magnify" viewBox="0 0 303 114.749999" height="153" preserveAspectRatio="xMidYMid meet" version="1.0"><defs><g/></defs><g fill="#34495e" fill-opacity="1"><g transform="translate(34.81615, 68.4301)"><g><path d="M 56.09375 -13.679688 C 51.621094 -9.292969 45.339844 -6.625 38.371094 -6.625 C 24.175781 -6.625 12.648438 -18.238281 12.648438 -33.296875 C 12.648438 -47.921875 23.402344 -59.964844 38.371094 -59.964844 C 44.566406 -59.964844 50.328125 -57.902344 54.71875 -54.113281 C 55.75 -53.253906 56.953125 -52.738281 58.074219 -52.738281 C 60.136719 -52.738281 62.375 -54.375 62.375 -56.867188 C 62.375 -57.816406 62.03125 -58.761719 61.253906 -59.449219 C 55.148438 -64.78125 47.230469 -67.621094 38.285156 -67.621094 C 19.703125 -67.621094 4.128906 -53.683594 4.128906 -33.46875 C 4.128906 -13.25 19.703125 1.03125 38.285156 1.03125 C 47.578125 1.03125 56.351562 -2.410156 62.71875 -8.601562 C 63.40625 -9.292969 63.664062 -10.152344 63.664062 -11.011719 C 63.664062 -13.25 61.773438 -15.140625 59.449219 -15.140625 C 58.246094 -15.140625 57.039062 -14.625 56.09375 -13.679688 Z M 56.09375 -13.679688 "/></g></g></g><g fill="#34495e" fill-opacity="1"><g transform="translate(103.812419, 68.4301)"><g><path d="M 4.472656 -22.800781 C 4.472656 -9.378906 14.710938 1.03125 28.304688 1.03125 C 41.898438 1.03125 52.222656 -9.378906 52.222656 -22.800781 C 52.222656 -36.21875 41.898438 -46.714844 28.304688 -46.714844 C 14.710938 -46.714844 4.472656 -36.21875 4.472656 -22.800781 Z M 12.214844 -22.800781 C 12.214844 -32.175781 18.925781 -39.488281 28.304688 -39.488281 C 37.683594 -39.488281 44.480469 -32.175781 44.480469 -22.800781 C 44.480469 -13.507812 37.683594 -6.195312 28.304688 -6.195312 C 18.925781 -6.195312 12.214844 -13.507812 12.214844 -22.800781 Z M 12.214844 -22.800781 "/></g></g></g><g fill="#34495e" fill-opacity="1"><g transform="translate(160.506351, 68.4301)"><g><path d="M 12.214844 -23.144531 C 12.304688 -31.488281 18.238281 -39.488281 27.101562 -39.488281 C 35.875 -39.488281 42.070312 -31.660156 42.070312 -22.710938 C 42.070312 -14.28125 36.5625 -6.195312 27.1875 -6.195312 C 17.636719 -6.195312 12.214844 -14.367188 12.214844 -23.144531 Z M 45.855469 -67.105469 C 43.703125 -67.105469 41.984375 -65.386719 41.984375 -63.320312 L 41.984375 -38.457031 C 38.027344 -43.703125 32.691406 -46.714844 26.238281 -46.714844 C 14.453125 -46.714844 4.472656 -36.734375 4.472656 -23.316406 C 4.472656 -11.097656 12.734375 1.03125 26.152344 1.03125 C 32.777344 1.03125 38.199219 -1.980469 42.242188 -7.3125 L 42.5 -2.839844 C 42.585938 -0.773438 44.394531 0.515625 46.027344 0.515625 C 48.007812 0.515625 49.640625 -1.117188 49.640625 -3.097656 L 49.640625 -63.320312 C 49.640625 -65.386719 47.921875 -67.105469 45.855469 -67.105469 Z M 45.855469 -67.105469 "/></g></g></g><g fill="#34495e" fill-opacity="1"><g transform="translate(217.372349, 68.4301)"><g><path d="M 25.894531 -39.660156 C 33.46875 -39.660156 39.144531 -34.5 40.089844 -26.414062 L 12.128906 -26.414062 C 13.078125 -33.898438 17.808594 -39.660156 25.894531 -39.660156 Z M 37.339844 -10.753906 C 35.359375 -8.6875 32.777344 -6.109375 27.015625 -6.109375 C 17.808594 -6.109375 12.90625 -12.648438 12.128906 -20.304688 L 45.339844 -20.304688 C 46.714844 -20.304688 47.835938 -21.335938 47.835938 -22.710938 C 47.75 -35.53125 39.746094 -46.714844 26.066406 -46.714844 C 12.390625 -46.714844 4.472656 -35.445312 4.472656 -22.886719 C 4.472656 -8.863281 14.28125 1.03125 26.757812 1.03125 C 36.734375 1.03125 43.878906 -5.335938 43.878906 -8.949219 C 43.878906 -10.667969 42.328125 -12.304688 40.351562 -12.304688 C 38.972656 -12.304688 38.113281 -11.527344 37.339844 -10.753906 Z M 37.339844 -10.753906 "/></g></g></g><g fill="#34495e" fill-opacity="1"><g transform="translate(0.963488, 107.416438)"><g><path d="M 14.277344 -6.480469 C 10.730469 -6.480469 7.863281 -9.515625 7.863281 -13.0625 C 7.863281 -16.976562 10.699219 -19.675781 14.277344 -19.675781 C 17.347656 -19.675781 18.191406 -17.921875 20.25 -17.921875 C 22.105469 -17.921875 23.894531 -19.4375 23.894531 -21.566406 C 23.894531 -25.175781 18.324219 -26.832031 14.277344 -26.832031 C 6.3125 -26.832031 0.472656 -20.824219 0.472656 -13.0625 C 0.472656 -5.097656 6.140625 0.707031 14.277344 0.707031 C 18.324219 0.707031 23.996094 -1.148438 23.996094 -4.792969 C 23.996094 -6.816406 22.273438 -8.570312 20.25 -8.570312 C 18.054688 -8.570312 16.90625 -6.480469 14.277344 -6.480469 Z M 14.277344 -6.480469 "/></g></g></g><g fill="#34495e" fill-opacity="1"><g transform="translate(47.559173, 107.416438)"><g><path d="M 14.578125 0.40625 C 22.441406 0.40625 28.179688 -5.027344 28.179688 -13.160156 C 28.179688 -21.125 22.375 -26.832031 14.578125 -26.832031 C 6.613281 -26.832031 0.777344 -20.890625 0.777344 -13.160156 C 0.777344 -5.164062 6.445312 0.40625 14.578125 0.40625 Z M 20.753906 -13.160156 C 20.753906 -9.585938 17.953125 -6.546875 14.578125 -6.546875 C 11.035156 -6.546875 8.199219 -9.617188 8.199219 -13.160156 C 8.199219 -17.078125 11.003906 -19.609375 14.578125 -19.609375 C 17.886719 -19.609375 20.753906 -17.210938 20.753906 -13.160156 Z M 20.753906 -13.160156 "/></g></g></g><g fill="#34495e" fill-opacity="1"><g transform="translate(96.751786, 107.416438)"><g><path d="M 1.28125 -3.476562 C 1.28125 -1.453125 2.9375 0.203125 4.960938 0.203125 C 6.984375 0.203125 8.640625 -1.453125 8.640625 -3.476562 L 8.640625 -14.78125 L 16.570312 -1.722656 C 17.3125 -0.507812 18.59375 0.203125 20.046875 0.203125 C 22.339844 0.203125 24.199219 -1.652344 24.199219 -3.914062 L 24.199219 -22.679688 C 24.199219 -24.703125 22.578125 -26.324219 20.554688 -26.324219 C 18.5625 -26.324219 16.941406 -24.703125 16.941406 -22.679688 L 16.941406 -12.890625 L 10.496094 -23.929688 C 9.617188 -25.445312 8 -26.324219 6.242188 -26.324219 C 3.511719 -26.324219 1.28125 -24.097656 1.28125 -21.328125 Z M 1.28125 -3.476562 "/></g></g></g><g fill="#34495e" fill-opacity="1"><g transform="translate(142.436862, 107.416438)"><g><path d="M 1.28125 -3.476562 C 1.28125 -1.453125 2.9375 0.203125 4.960938 0.203125 C 6.984375 0.203125 8.640625 -1.453125 8.640625 -3.476562 L 8.640625 -14.78125 L 16.570312 -1.722656 C 17.3125 -0.507812 18.59375 0.203125 20.046875 0.203125 C 22.339844 0.203125 24.199219 -1.652344 24.199219 -3.914062 L 24.199219 -22.679688 C 24.199219 -24.703125 22.578125 -26.324219 20.554688 -26.324219 C 18.5625 -26.324219 16.941406 -24.703125 16.941406 -22.679688 L 16.941406 -12.890625 L 10.496094 -23.929688 C 9.617188 -25.445312 8 -26.324219 6.242188 -26.324219 C 3.511719 -26.324219 1.28125 -24.097656 1.28125 -21.328125 Z M 1.28125 -3.476562 "/></g></g></g><g fill="#34495e" fill-opacity="1"><g transform="translate(188.121925, 107.416438)"><g><path d="M 1.28125 -23.929688 L 1.28125 -2.195312 C 1.28125 -0.980469 2.261719 0 3.476562 0 L 19.878906 0 C 21.429688 0 22.679688 -1.25 22.679688 -2.800781 C 22.679688 -4.355469 21.429688 -5.601562 19.878906 -5.601562 L 8.640625 -5.601562 L 8.640625 -10.496094 L 16.4375 -10.496094 C 17.988281 -10.496094 19.238281 -11.746094 19.238281 -13.332031 C 19.238281 -14.882812 17.988281 -16.132812 16.4375 -16.132812 L 8.640625 -16.132812 L 8.640625 -20.519531 L 19.675781 -20.519531 C 21.226562 -20.519531 22.476562 -21.769531 22.476562 -23.320312 C 22.476562 -24.871094 21.226562 -26.121094 19.675781 -26.121094 L 3.476562 -26.121094 C 2.261719 -26.121094 1.28125 -25.144531 1.28125 -23.929688 Z M 1.28125 -23.929688 "/></g></g></g><g fill="#34495e" fill-opacity="1"><g transform="translate(231.581021, 107.416438)"><g><path d="M 14.277344 -6.480469 C 10.730469 -6.480469 7.863281 -9.515625 7.863281 -13.0625 C 7.863281 -16.976562 10.699219 -19.675781 14.277344 -19.675781 C 17.347656 -19.675781 18.191406 -17.921875 20.25 -17.921875 C 22.105469 -17.921875 23.894531 -19.4375 23.894531 -21.566406 C 23.894531 -25.175781 18.324219 -26.832031 14.277344 -26.832031 C 6.3125 -26.832031 0.472656 -20.824219 0.472656 -13.0625 C 0.472656 -5.097656 6.140625 0.707031 14.277344 0.707031 C 18.324219 0.707031 23.996094 -1.148438 23.996094 -4.792969 C 23.996094 -6.816406 22.273438 -8.570312 20.25 -8.570312 C 18.054688 -8.570312 16.90625 -6.480469 14.277344 -6.480469 Z M 14.277344 -6.480469 "/></g></g></g><g fill="#34495e" fill-opacity="1"><g transform="translate(278.176699, 107.416438)"><g><path d="M 2.96875 -20.351562 L 8.234375 -20.351562 L 8.234375 -3.476562 C 8.234375 -1.453125 9.886719 0.203125 11.914062 0.203125 C 13.972656 0.203125 15.625 -1.453125 15.625 -3.476562 L 15.625 -20.351562 L 20.855469 -20.351562 C 22.476562 -20.351562 23.757812 -21.632812 23.757812 -23.21875 C 23.757812 -24.839844 22.476562 -26.121094 20.855469 -26.121094 L 2.96875 -26.121094 C 1.382812 -26.121094 0.101562 -24.839844 0.101562 -23.21875 C 0.101562 -21.632812 1.382812 -20.351562 2.96875 -20.351562 Z M 2.96875 -20.351562 "/></g></g></g></svg>