<svg xmlns="http://www.w3.org/2000/svg" xmlns:xlink="http://www.w3.org/1999/xlink" width="300" zoomAndPan="magnify" viewBox="0 0 224.87999 225" height="300" preserveAspectRatio="xMidYMid meet" version="1.0"><defs><g/><clipPath id="edd78ab669"><path d="M 0 0.0585938 L 224.761719 0.0585938 L 224.761719 224.9375 L 0 224.9375 Z M 0 0.0585938 " clip-rule="nonzero"/></clipPath><clipPath id="98e11aa187"><path d="M 32.980469 0.0585938 L 191.898438 0.0585938 C 210.113281 0.0585938 224.878906 14.828125 224.878906 33.042969 L 224.878906 191.957031 C 224.878906 210.171875 210.113281 224.941406 191.898438 224.941406 L 32.980469 224.941406 C 14.765625 224.941406 0 210.171875 0 191.957031 L 0 33.042969 C 0 14.828125 14.765625 0.0585938 32.980469 0.0585938 Z M 32.980469 0.0585938 " clip-rule="nonzero"/></clipPath></defs><g clip-path="url(#edd78ab669)"><g clip-path="url(#98e11aa187)"><path fill="#34495e" d="M 0 0.0585938 L 224.878906 0.0585938 L 224.878906 224.941406 L 0 224.941406 Z M 0 0.0585938 " fill-opacity="1" fill-rule="nonzero"/></g></g><g fill="#ffffff" fill-opacity="1"><g transform="translate(41.603415, 185.168335)"><g><path d="M 110.785156 -30.882812 C 102.703125 -23.878906 92.109375 -19.390625 79.722656 -19.390625 C 51.351562 -19.390625 32.679688 -41.65625 32.679688 -69.488281 C 32.679688 -98.753906 53.507812 -119.582031 79.722656 -119.582031 C 89.957031 -119.582031 99.472656 -116.53125 107.371094 -110.964844 C 110.605469 -108.628906 113.835938 -107.371094 117.246094 -107.371094 C 122.8125 -107.371094 129.097656 -111.859375 129.097656 -119.042969 C 129.097656 -121.558594 128.199219 -124.429688 126.046875 -126.046875 C 113.835938 -135.742188 97.675781 -141.128906 79.722656 -141.128906 C 37.707031 -141.128906 8.4375 -108.628906 8.4375 -69.667969 C 8.4375 -30.703125 37.707031 2.15625 79.722656 2.15625 C 99.832031 2.15625 117.425781 -4.847656 129.996094 -17.058594 C 131.613281 -18.671875 132.507812 -20.828125 132.507812 -23.164062 C 132.507812 -29.625 126.765625 -34.832031 120.300781 -34.832031 C 117.066406 -34.832031 113.65625 -33.398438 110.785156 -30.882812 Z M 110.785156 -30.882812 "/></g></g></g></svg>