<svg xmlns="http://www.w3.org/2000/svg" xmlns:xlink="http://www.w3.org/1999/xlink" width="203" zoomAndPan="magnify" viewBox="0 0 152.25 30.750001" height="41" preserveAspectRatio="xMidYMid meet" version="1.0"><defs><clipPath id="27384e3b6a"><path d="M 0.242188 0.0117188 L 151.265625 0.0117188 L 151.265625 30.503906 L 0.242188 30.503906 Z M 0.242188 0.0117188 " clip-rule="nonzero"/></clipPath></defs><g clip-path="url(#27384e3b6a)"><path fill="#34495e" d="M 30.542969 15.246094 C 30.542969 23.613281 23.761719 30.394531 15.394531 30.394531 C 7.023438 30.394531 0.242188 23.613281 0.242188 15.246094 C 0.242188 6.878906 7.023438 0.09375 15.394531 0.09375 C 23.761719 0.09375 30.542969 6.878906 30.542969 15.246094 Z M 75.785156 0.09375 C 67.417969 0.09375 60.636719 6.878906 60.636719 15.246094 C 60.636719 23.613281 67.417969 30.394531 75.785156 30.394531 C 84.152344 30.394531 90.9375 23.613281 90.9375 15.246094 C 90.9375 6.878906 84.152344 0.09375 75.785156 0.09375 Z M 136.113281 0.09375 C 127.746094 0.09375 120.964844 6.878906 120.964844 15.246094 C 120.964844 23.613281 127.746094 30.394531 136.113281 30.394531 C 144.480469 30.394531 151.265625 23.613281 151.265625 15.246094 C 151.265625 6.878906 144.480469 0.09375 136.113281 0.09375 Z M 136.113281 0.09375 " fill-opacity="1" fill-rule="nonzero"/></g></svg>