<svg xmlns="http://www.w3.org/2000/svg" xmlns:xlink="http://www.w3.org/1999/xlink" width="300" zoomAndPan="magnify" viewBox="0 0 224.87999 225" height="300" preserveAspectRatio="xMidYMid meet" version="1.0"><defs><clipPath id="04cb44be7b"><path d="M 0 0.0585938 L 224.761719 0.0585938 L 224.761719 224 L 0 224 Z M 0 0.0585938 " clip-rule="nonzero"/></clipPath></defs><g clip-path="url(#04cb44be7b)"><path fill="#34495e" d="M 112.167969 -0.195312 C 111.558594 -0.183594 110.953125 -0.144531 110.347656 -0.078125 C 109.742188 -0.0078125 109.144531 0.0898438 108.550781 0.214844 C 107.953125 0.34375 107.367188 0.5 106.789062 0.683594 C 106.207031 0.871094 105.640625 1.082031 105.082031 1.324219 C 104.523438 1.5625 103.976562 1.832031 103.445312 2.125 C 102.910156 2.421875 102.394531 2.742188 101.894531 3.085938 C 101.394531 3.429688 100.910156 3.800781 100.445312 4.191406 C 99.980469 4.585938 99.535156 5 99.113281 5.433594 C 98.6875 5.871094 98.285156 6.328125 97.90625 6.804688 C 97.527344 7.277344 97.171875 7.773438 96.84375 8.28125 C 96.511719 8.792969 96.207031 9.320312 95.925781 9.859375 C 95.648438 10.398438 95.394531 10.953125 95.171875 11.519531 C 94.945312 12.082031 94.75 12.65625 94.582031 13.242188 C 94.410156 13.828125 94.273438 14.417969 94.160156 15.015625 C 94.050781 15.613281 93.96875 16.21875 93.917969 16.824219 C 93.867188 17.429688 93.847656 18.035156 93.855469 18.644531 L 93.855469 92.984375 L 19.515625 92.984375 C 18.898438 92.976562 18.289062 93 17.675781 93.050781 C 17.0625 93.101562 16.457031 93.183594 15.851562 93.296875 C 15.246094 93.410156 14.652344 93.550781 14.0625 93.722656 C 13.472656 93.894531 12.890625 94.09375 12.320312 94.324219 C 11.75 94.554688 11.195312 94.808594 10.648438 95.09375 C 10.105469 95.378906 9.574219 95.6875 9.0625 96.027344 C 8.546875 96.363281 8.050781 96.722656 7.574219 97.109375 C 7.097656 97.496094 6.640625 97.902344 6.203125 98.335938 C 5.765625 98.765625 5.347656 99.21875 4.957031 99.691406 C 4.5625 100.164062 4.195312 100.652344 3.851562 101.164062 C 3.507812 101.671875 3.191406 102.195312 2.898438 102.738281 C 2.605469 103.277344 2.34375 103.832031 2.105469 104.398438 C 1.867188 104.964844 1.660156 105.539062 1.480469 106.128906 C 1.300781 106.714844 1.148438 107.308594 1.027344 107.914062 C 0.90625 108.515625 0.816406 109.121094 0.753906 109.734375 C 0.695312 110.34375 0.664062 110.957031 0.664062 111.570312 C 0.664062 112.183594 0.695312 112.796875 0.753906 113.410156 C 0.816406 114.019531 0.90625 114.625 1.027344 115.230469 C 1.148438 115.832031 1.300781 116.425781 1.480469 117.011719 C 1.660156 117.601562 1.867188 118.175781 2.105469 118.746094 C 2.34375 119.3125 2.605469 119.863281 2.898438 120.40625 C 3.191406 120.945312 3.507812 121.46875 3.851562 121.980469 C 4.195312 122.488281 4.5625 122.976562 4.957031 123.449219 C 5.347656 123.921875 5.765625 124.375 6.203125 124.804688 C 6.640625 125.238281 7.097656 125.644531 7.574219 126.03125 C 8.050781 126.417969 8.546875 126.777344 9.0625 127.117188 C 9.574219 127.453125 10.105469 127.761719 10.648438 128.046875 C 11.195312 128.332031 11.75 128.589844 12.320312 128.816406 C 12.890625 129.046875 13.472656 129.246094 14.0625 129.417969 C 14.652344 129.589844 15.246094 129.730469 15.851562 129.84375 C 16.457031 129.957031 17.0625 130.039062 17.675781 130.089844 C 18.289062 130.144531 18.898438 130.164062 19.515625 130.15625 L 93.855469 130.15625 L 93.855469 204.496094 C 93.847656 205.109375 93.867188 205.722656 93.921875 206.335938 C 93.972656 206.949219 94.054688 207.554688 94.167969 208.160156 C 94.277344 208.761719 94.421875 209.359375 94.59375 209.949219 C 94.765625 210.539062 94.964844 211.121094 95.195312 211.691406 C 95.421875 212.257812 95.679688 212.816406 95.964844 213.359375 C 96.246094 213.90625 96.558594 214.433594 96.894531 214.949219 C 97.230469 215.460938 97.59375 215.957031 97.980469 216.4375 C 98.363281 216.914062 98.773438 217.371094 99.203125 217.808594 C 99.636719 218.246094 100.085938 218.660156 100.558594 219.054688 C 101.03125 219.445312 101.523438 219.816406 102.03125 220.160156 C 102.539062 220.503906 103.066406 220.820312 103.605469 221.113281 C 104.144531 221.40625 104.699219 221.667969 105.265625 221.90625 C 105.832031 222.144531 106.410156 222.351562 106.996094 222.53125 C 107.585938 222.710938 108.179688 222.863281 108.78125 222.984375 C 109.382812 223.101562 109.992188 223.195312 110.601562 223.253906 C 111.214844 223.316406 111.824219 223.347656 112.441406 223.347656 C 113.054688 223.347656 113.667969 223.316406 114.277344 223.253906 C 114.890625 223.195312 115.496094 223.101562 116.097656 222.984375 C 116.699219 222.863281 117.296875 222.710938 117.882812 222.53125 C 118.46875 222.351562 119.046875 222.144531 119.613281 221.90625 C 120.179688 221.667969 120.734375 221.40625 121.273438 221.113281 C 121.816406 220.820312 122.339844 220.503906 122.847656 220.160156 C 123.355469 219.816406 123.847656 219.445312 124.320312 219.054688 C 124.792969 218.660156 125.246094 218.246094 125.675781 217.808594 C 126.105469 217.371094 126.515625 216.914062 126.902344 216.4375 C 127.289062 215.957031 127.648438 215.460938 127.984375 214.949219 C 128.320312 214.433594 128.632812 213.90625 128.917969 213.359375 C 129.199219 212.816406 129.457031 212.257812 129.6875 211.691406 C 129.914062 211.121094 130.117188 210.539062 130.289062 209.949219 C 130.457031 209.359375 130.601562 208.761719 130.714844 208.160156 C 130.824219 207.554688 130.90625 206.949219 130.960938 206.335938 C 131.011719 205.722656 131.035156 205.109375 131.023438 204.496094 L 131.023438 130.15625 L 205.367188 130.15625 C 205.980469 130.164062 206.59375 130.144531 207.203125 130.089844 C 207.816406 130.039062 208.425781 129.957031 209.027344 129.84375 C 209.632812 129.730469 210.230469 129.589844 210.820312 129.417969 C 211.410156 129.246094 211.988281 129.046875 212.558594 128.816406 C 213.128906 128.589844 213.6875 128.332031 214.230469 128.046875 C 214.773438 127.761719 215.304688 127.453125 215.816406 127.117188 C 216.332031 126.777344 216.828125 126.417969 217.304688 126.03125 C 217.78125 125.644531 218.242188 125.238281 218.679688 124.804688 C 219.117188 124.375 219.53125 123.921875 219.921875 123.449219 C 220.316406 122.976562 220.683594 122.488281 221.027344 121.980469 C 221.371094 121.46875 221.691406 120.945312 221.980469 120.40625 C 222.273438 119.863281 222.539062 119.3125 222.773438 118.746094 C 223.011719 118.175781 223.222656 117.601562 223.402344 117.011719 C 223.582031 116.425781 223.730469 115.832031 223.851562 115.230469 C 223.972656 114.625 224.0625 114.019531 224.125 113.410156 C 224.183594 112.796875 224.214844 112.183594 224.214844 111.570312 C 224.214844 110.957031 224.183594 110.34375 224.125 109.734375 C 224.0625 109.121094 223.972656 108.515625 223.851562 107.914062 C 223.730469 107.308594 223.582031 106.714844 223.402344 106.128906 C 223.222656 105.539062 223.011719 104.964844 222.773438 104.398438 C 222.539062 103.832031 222.273438 103.277344 221.980469 102.738281 C 221.691406 102.195312 221.371094 101.671875 221.027344 101.164062 C 220.683594 100.652344 220.316406 100.164062 219.921875 99.691406 C 219.53125 99.21875 219.117188 98.765625 218.679688 98.335938 C 218.242188 97.902344 217.78125 97.496094 217.304688 97.109375 C 216.828125 96.722656 216.332031 96.363281 215.816406 96.027344 C 215.304688 95.6875 214.773438 95.378906 214.230469 95.09375 C 213.6875 94.808594 213.128906 94.554688 212.558594 94.324219 C 211.988281 94.09375 211.410156 93.894531 210.820312 93.722656 C 210.230469 93.550781 209.632812 93.410156 209.027344 93.296875 C 208.425781 93.183594 207.816406 93.101562 207.203125 93.050781 C 206.59375 93 205.980469 92.976562 205.367188 92.984375 L 131.023438 92.984375 L 131.023438 18.644531 C 131.035156 18.027344 131.011719 17.40625 130.957031 16.789062 C 130.90625 16.171875 130.820312 15.558594 130.707031 14.949219 C 130.589844 14.339844 130.445312 13.738281 130.269531 13.144531 C 130.097656 12.550781 129.890625 11.964844 129.660156 11.390625 C 129.425781 10.816406 129.164062 10.257812 128.875 9.707031 C 128.585938 9.160156 128.269531 8.628906 127.925781 8.113281 C 127.582031 7.59375 127.214844 7.097656 126.824219 6.617188 C 126.429688 6.136719 126.015625 5.679688 125.578125 5.242188 C 125.136719 4.804688 124.679688 4.386719 124.199219 3.996094 C 123.71875 3.605469 123.21875 3.238281 122.703125 2.894531 C 122.1875 2.554688 121.65625 2.238281 121.105469 1.949219 C 120.558594 1.660156 119.996094 1.398438 119.421875 1.164062 C 118.847656 0.933594 118.265625 0.730469 117.667969 0.554688 C 117.074219 0.378906 116.472656 0.234375 115.863281 0.121094 C 115.253906 0.0078125 114.640625 -0.0742188 114.023438 -0.128906 C 113.40625 -0.179688 112.789062 -0.203125 112.167969 -0.195312 Z M 112.167969 -0.195312 " fill-opacity="1" fill-rule="nonzero"/></g></svg>