<svg xmlns="http://www.w3.org/2000/svg" xmlns:xlink="http://www.w3.org/1999/xlink" width="121" zoomAndPan="magnify" viewBox="0 0 90.75 90.75" height="121" preserveAspectRatio="xMidYMid meet" version="1.0"><defs><clipPath id="f8123dc9b0"><path d="M 0 0 L 90.5 0 L 90.5 90.5 L 0 90.5 Z M 0 0 " clip-rule="nonzero"/></clipPath></defs><g clip-path="url(#f8123dc9b0)"><path fill="#ffffff" d="M 45.210938 -0.0273438 C 20.226562 -0.0273438 -0.0273438 20.226562 -0.0273438 45.210938 C -0.0273438 70.195312 20.226562 90.449219 45.210938 90.449219 C 70.195312 90.449219 90.449219 70.195312 90.449219 45.210938 C 90.449219 20.226562 70.195312 -0.0273438 45.210938 -0.0273438 Z M 55.949219 69.332031 C 53.625 70.25 51.769531 70.945312 50.386719 71.425781 C 49.003906 71.910156 47.398438 72.148438 45.566406 72.148438 C 42.753906 72.148438 40.5625 71.460938 39.003906 70.089844 C 37.441406 68.714844 36.660156 66.976562 36.660156 64.863281 C 36.660156 64.042969 36.71875 63.203125 36.835938 62.34375 C 36.957031 61.488281 37.144531 60.519531 37.402344 59.441406 L 40.304688 49.160156 C 40.5625 48.175781 40.785156 47.246094 40.960938 46.363281 C 41.136719 45.484375 41.222656 44.679688 41.222656 43.953125 C 41.222656 42.640625 40.953125 41.722656 40.410156 41.207031 C 39.871094 40.691406 38.835938 40.429688 37.304688 40.429688 C 36.554688 40.429688 35.78125 40.550781 34.996094 40.78125 C 34.207031 41.015625 33.53125 41.242188 32.964844 41.453125 L 33.742188 38.28125 C 35.640625 37.507812 37.460938 36.84375 39.199219 36.292969 C 40.941406 35.742188 42.582031 35.464844 44.140625 35.464844 C 46.933594 35.464844 49.089844 36.140625 50.601562 37.492188 C 52.117188 38.84375 52.875 40.59375 52.875 42.753906 C 52.875 43.199219 52.824219 43.988281 52.71875 45.113281 C 52.613281 46.238281 52.417969 47.273438 52.136719 48.210938 L 49.242188 58.449219 C 49.007812 59.273438 48.792969 60.214844 48.609375 61.269531 C 48.417969 62.320312 48.324219 63.125 48.324219 63.664062 C 48.324219 65.023438 48.628906 65.953125 49.234375 66.445312 C 49.847656 66.9375 50.902344 67.183594 52.398438 67.183594 C 53.101562 67.183594 53.902344 67.058594 54.792969 66.8125 C 55.679688 66.570312 56.328125 66.351562 56.726562 66.164062 Z M 55.4375 27.742188 C 54.089844 29 52.464844 29.628906 50.566406 29.628906 C 48.660156 29.628906 47.03125 29 45.667969 27.742188 C 44.308594 26.488281 43.625 24.96875 43.625 23.183594 C 43.625 21.402344 44.308594 19.878906 45.667969 18.609375 C 47.027344 17.34375 48.660156 16.710938 50.566406 16.710938 C 52.464844 16.710938 54.089844 17.34375 55.4375 18.609375 C 56.789062 19.878906 57.460938 21.402344 57.460938 23.183594 C 57.460938 24.96875 56.789062 26.492188 55.4375 27.742188 Z M 55.4375 27.742188 " fill-opacity="1" fill-rule="nonzero"/><path fill="#11a65e" d="M 83.402344 7.097656 L 83.402344 6.210938 C 83.402344 2.785156 80.617188 0 77.191406 0 C 73.765625 0 70.980469 2.785156 70.980469 6.210938 L 70.980469 7.097656 L 67.433594 7.097656 L 67.433594 6.210938 C 67.433594 2.785156 64.644531 0 61.222656 0 C 57.796875 0 55.011719 2.785156 55.011719 6.210938 L 55.011719 7.097656 L 51.460938 7.097656 L 51.460938 6.210938 C 51.460938 2.785156 48.675781 0 45.25 0 C 41.824219 0 39.039062 2.785156 39.039062 6.210938 L 39.039062 7.097656 L 35.492188 7.097656 L 35.492188 6.210938 C 35.492188 2.785156 32.703125 0 29.28125 0 C 25.855469 0 23.070312 2.785156 23.070312 6.210938 L 23.070312 7.097656 L 19.519531 7.097656 L 19.519531 6.210938 C 19.519531 2.785156 16.734375 0 13.308594 0 C 9.882812 0 7.097656 2.785156 7.097656 6.210938 L 7.097656 7.097656 C 3.183594 7.097656 0 10.28125 0 14.195312 L 0 83.402344 C 0 87.316406 3.183594 90.5 7.097656 90.5 L 83.402344 90.5 C 87.316406 90.5 90.5 87.316406 90.5 83.402344 L 90.5 14.195312 C 90.5 10.28125 87.316406 7.097656 83.402344 7.097656 Z M 74.53125 6.210938 C 74.53125 4.742188 75.722656 3.550781 77.191406 3.550781 C 78.660156 3.550781 79.855469 4.742188 79.855469 6.210938 L 79.855469 11.535156 C 79.855469 13.003906 78.660156 14.195312 77.191406 14.195312 C 75.722656 14.195312 74.53125 13.003906 74.53125 11.535156 Z M 58.558594 6.210938 C 58.558594 4.742188 59.753906 3.550781 61.222656 3.550781 C 62.6875 3.550781 63.882812 4.742188 63.882812 6.210938 L 63.882812 11.535156 C 63.882812 13.003906 62.6875 14.195312 61.222656 14.195312 C 59.753906 14.195312 58.558594 13.003906 58.558594 11.535156 Z M 42.589844 6.210938 C 42.589844 4.742188 43.78125 3.550781 45.25 3.550781 C 46.71875 3.550781 47.914062 4.742188 47.914062 6.210938 L 47.914062 11.535156 C 47.914062 13.003906 46.71875 14.195312 45.25 14.195312 C 43.78125 14.195312 42.589844 13.003906 42.589844 11.535156 Z M 26.617188 6.210938 C 26.617188 4.742188 27.8125 3.550781 29.28125 3.550781 C 30.746094 3.550781 31.941406 4.742188 31.941406 6.210938 L 31.941406 11.535156 C 31.941406 13.003906 30.746094 14.195312 29.28125 14.195312 C 27.8125 14.195312 26.617188 13.003906 26.617188 11.535156 Z M 10.648438 6.210938 C 10.648438 4.742188 11.839844 3.550781 13.308594 3.550781 C 14.777344 3.550781 15.972656 4.742188 15.972656 6.210938 L 15.972656 11.535156 C 15.972656 13.003906 14.777344 14.195312 13.308594 14.195312 C 11.839844 14.195312 10.648438 13.003906 10.648438 11.535156 Z M 7.097656 10.648438 L 7.097656 11.535156 C 7.097656 14.960938 9.882812 17.746094 13.308594 17.746094 C 16.734375 17.746094 19.519531 14.960938 19.519531 11.535156 L 19.519531 10.648438 L 23.070312 10.648438 L 23.070312 11.535156 C 23.070312 14.960938 25.855469 17.746094 29.28125 17.746094 C 32.703125 17.746094 35.492188 14.960938 35.492188 11.535156 L 35.492188 10.648438 L 39.039062 10.648438 L 39.039062 11.535156 C 39.039062 14.960938 41.824219 17.746094 45.25 17.746094 C 48.675781 17.746094 51.460938 14.960938 51.460938 11.535156 L 51.460938 10.648438 L 55.011719 10.648438 L 55.011719 11.535156 C 55.011719 14.960938 57.796875 17.746094 61.222656 17.746094 C 64.644531 17.746094 67.433594 14.960938 67.433594 11.535156 L 67.433594 10.648438 L 70.980469 10.648438 L 70.980469 11.535156 C 70.980469 14.960938 73.765625 17.746094 77.191406 17.746094 C 80.617188 17.746094 83.402344 14.960938 83.402344 11.535156 L 83.402344 10.648438 C 85.359375 10.648438 86.953125 12.238281 86.953125 14.195312 L 86.953125 21.292969 C 83.964844 21.292969 6.390625 21.292969 3.550781 21.292969 L 3.550781 14.195312 C 3.550781 12.238281 5.140625 10.648438 7.097656 10.648438 Z M 10.648438 24.84375 L 79.855469 24.84375 L 79.855469 79.855469 L 10.648438 79.855469 Z M 83.402344 86.953125 L 7.097656 86.953125 C 5.140625 86.953125 3.550781 85.359375 3.550781 83.402344 L 3.550781 24.84375 L 7.097656 24.84375 L 7.097656 81.628906 C 7.097656 82.609375 7.894531 83.402344 8.871094 83.402344 L 81.628906 83.402344 C 82.609375 83.402344 83.402344 82.609375 83.402344 81.628906 L 83.402344 24.84375 L 86.953125 24.84375 L 86.953125 83.402344 C 86.953125 85.359375 85.359375 86.953125 83.402344 86.953125 Z M 83.402344 86.953125 " fill-opacity="1" fill-rule="nonzero"/></g><path fill="#11a65e" d="M 24.84375 32.828125 L 17.746094 32.828125 C 16.765625 32.828125 15.972656 33.625 15.972656 34.601562 L 15.972656 41.703125 C 15.972656 42.679688 16.765625 43.476562 17.746094 43.476562 L 24.84375 43.476562 C 25.824219 43.476562 26.617188 42.679688 26.617188 41.703125 L 26.617188 34.601562 C 26.617188 33.625 25.824219 32.828125 24.84375 32.828125 Z M 23.070312 39.925781 L 19.519531 39.925781 L 19.519531 36.378906 L 23.070312 36.378906 Z M 23.070312 39.925781 " fill-opacity="1" fill-rule="nonzero"/><path fill="#11a65e" d="M 40.8125 32.828125 L 33.714844 32.828125 C 32.734375 32.828125 31.941406 33.625 31.941406 34.601562 L 31.941406 41.703125 C 31.941406 42.679688 32.734375 43.476562 33.714844 43.476562 L 40.8125 43.476562 C 41.792969 43.476562 42.589844 42.679688 42.589844 41.703125 L 42.589844 34.601562 C 42.589844 33.625 41.792969 32.828125 40.8125 32.828125 Z M 39.039062 39.925781 L 35.492188 39.925781 L 35.492188 36.378906 L 39.039062 36.378906 Z M 39.039062 39.925781 " fill-opacity="1" fill-rule="nonzero"/><path fill="#11a65e" d="M 56.785156 32.828125 L 49.6875 32.828125 C 48.707031 32.828125 47.914062 33.625 47.914062 34.601562 L 47.914062 41.703125 C 47.914062 42.679688 48.707031 43.476562 49.6875 43.476562 L 56.785156 43.476562 C 57.765625 43.476562 58.558594 42.679688 58.558594 41.703125 L 58.558594 34.601562 C 58.558594 33.625 57.765625 32.828125 56.785156 32.828125 Z M 55.011719 39.925781 L 51.460938 39.925781 L 51.460938 36.378906 L 55.011719 36.378906 Z M 55.011719 39.925781 " fill-opacity="1" fill-rule="nonzero"/><path fill="#11a65e" d="M 72.753906 32.828125 L 65.65625 32.828125 C 64.675781 32.828125 63.882812 33.625 63.882812 34.601562 L 63.882812 41.703125 C 63.882812 42.679688 64.675781 43.476562 65.65625 43.476562 L 72.753906 43.476562 C 73.734375 43.476562 74.53125 42.679688 74.53125 41.703125 L 74.53125 34.601562 C 74.53125 33.625 73.734375 32.828125 72.753906 32.828125 Z M 70.980469 39.925781 L 67.433594 39.925781 L 67.433594 36.378906 L 70.980469 36.378906 Z M 70.980469 39.925781 " fill-opacity="1" fill-rule="nonzero"/><path fill="#11a65e" d="M 24.84375 47.023438 L 17.746094 47.023438 C 16.765625 47.023438 15.972656 47.820312 15.972656 48.800781 L 15.972656 55.898438 C 15.972656 56.878906 16.765625 57.671875 17.746094 57.671875 L 24.84375 57.671875 C 25.824219 57.671875 26.617188 56.878906 26.617188 55.898438 L 26.617188 48.800781 C 26.617188 47.820312 25.824219 47.023438 24.84375 47.023438 Z M 23.070312 54.121094 L 19.519531 54.121094 L 19.519531 50.574219 L 23.070312 50.574219 Z M 23.070312 54.121094 " fill-opacity="1" fill-rule="nonzero"/><path fill="#11a65e" d="M 40.8125 47.023438 L 33.714844 47.023438 C 32.734375 47.023438 31.941406 47.820312 31.941406 48.800781 L 31.941406 55.898438 C 31.941406 56.878906 32.734375 57.671875 33.714844 57.671875 L 40.8125 57.671875 C 41.792969 57.671875 42.589844 56.878906 42.589844 55.898438 L 42.589844 48.800781 C 42.589844 47.820312 41.792969 47.023438 40.8125 47.023438 Z M 39.039062 54.121094 L 35.492188 54.121094 L 35.492188 50.574219 L 39.039062 50.574219 Z M 39.039062 54.121094 " fill-opacity="1" fill-rule="nonzero"/><path fill="#11a65e" d="M 56.785156 47.023438 L 49.6875 47.023438 C 48.707031 47.023438 47.914062 47.820312 47.914062 48.800781 L 47.914062 55.898438 C 47.914062 56.878906 48.707031 57.671875 49.6875 57.671875 L 56.785156 57.671875 C 57.765625 57.671875 58.558594 56.878906 58.558594 55.898438 L 58.558594 48.800781 C 58.558594 47.820312 57.765625 47.023438 56.785156 47.023438 Z M 55.011719 54.121094 L 51.460938 54.121094 L 51.460938 50.574219 L 55.011719 50.574219 Z M 55.011719 54.121094 " fill-opacity="1" fill-rule="nonzero"/><path fill="#11a65e" d="M 72.753906 47.023438 L 65.65625 47.023438 C 64.675781 47.023438 63.882812 47.820312 63.882812 48.800781 L 63.882812 55.898438 C 63.882812 56.878906 64.675781 57.671875 65.65625 57.671875 L 72.753906 57.671875 C 73.734375 57.671875 74.53125 56.878906 74.53125 55.898438 L 74.53125 48.800781 C 74.53125 47.820312 73.734375 47.023438 72.753906 47.023438 Z M 70.980469 54.121094 L 67.433594 54.121094 L 67.433594 50.574219 L 70.980469 50.574219 Z M 70.980469 54.121094 " fill-opacity="1" fill-rule="nonzero"/><path fill="#11a65e" d="M 24.84375 61.222656 L 17.746094 61.222656 C 16.765625 61.222656 15.972656 62.015625 15.972656 62.996094 L 15.972656 70.09375 C 15.972656 71.074219 16.765625 71.867188 17.746094 71.867188 L 24.84375 71.867188 C 25.824219 71.867188 26.617188 71.074219 26.617188 70.09375 L 26.617188 62.996094 C 26.617188 62.015625 25.824219 61.222656 24.84375 61.222656 Z M 23.070312 68.320312 L 19.519531 68.320312 L 19.519531 64.769531 L 23.070312 64.769531 Z M 23.070312 68.320312 " fill-opacity="1" fill-rule="nonzero"/><path fill="#11a65e" d="M 40.8125 61.222656 L 33.714844 61.222656 C 32.734375 61.222656 31.941406 62.015625 31.941406 62.996094 L 31.941406 70.09375 C 31.941406 71.074219 32.734375 71.867188 33.714844 71.867188 L 40.8125 71.867188 C 41.792969 71.867188 42.589844 71.074219 42.589844 70.09375 L 42.589844 62.996094 C 42.589844 62.015625 41.792969 61.222656 40.8125 61.222656 Z M 39.039062 68.320312 L 35.492188 68.320312 L 35.492188 64.769531 L 39.039062 64.769531 Z M 39.039062 68.320312 " fill-opacity="1" fill-rule="nonzero"/><path fill="#11a65e" d="M 56.785156 61.222656 L 49.6875 61.222656 C 48.707031 61.222656 47.914062 62.015625 47.914062 62.996094 L 47.914062 70.09375 C 47.914062 71.074219 48.707031 71.867188 49.6875 71.867188 L 56.785156 71.867188 C 57.765625 71.867188 58.558594 71.074219 58.558594 70.09375 L 58.558594 62.996094 C 58.558594 62.015625 57.765625 61.222656 56.785156 61.222656 Z M 55.011719 68.320312 L 51.460938 68.320312 L 51.460938 64.769531 L 55.011719 64.769531 Z M 55.011719 68.320312 " fill-opacity="1" fill-rule="nonzero"/><path fill="#11a65e" d="M 72.753906 61.222656 L 65.65625 61.222656 C 64.675781 61.222656 63.882812 62.015625 63.882812 62.996094 L 63.882812 70.09375 C 63.882812 71.074219 64.675781 71.867188 65.65625 71.867188 L 72.753906 71.867188 C 73.734375 71.867188 74.53125 71.074219 74.53125 70.09375 L 74.53125 62.996094 C 74.53125 62.015625 73.734375 61.222656 72.753906 61.222656 Z M 70.980469 68.320312 L 67.433594 68.320312 L 67.433594 64.769531 L 70.980469 64.769531 Z M 70.980469 68.320312 " fill-opacity="1" fill-rule="nonzero"/></svg>