<svg xmlns="http://www.w3.org/2000/svg" xmlns:xlink="http://www.w3.org/1999/xlink" width="80" zoomAndPan="magnify" viewBox="0 0 60 73.499998" height="98" preserveAspectRatio="xMidYMid meet" version="1.0"><defs><clipPath id="a47e6d3c59"><path d="M 0.203125 0 L 59.796875 0 L 59.796875 73.003906 L 0.203125 73.003906 Z M 0.203125 0 " clip-rule="nonzero"/></clipPath></defs><path fill="#ff5757" d="M 7.078125 35.582031 L 30 35.582031 C 30.6875 35.582031 31.144531 35.125 31.144531 34.4375 C 31.144531 33.746094 30.6875 33.289062 30 33.289062 L 7.078125 33.289062 C 6.390625 33.289062 5.933594 33.746094 5.933594 34.4375 C 5.933594 35.125 6.390625 35.582031 7.078125 35.582031 Z M 7.078125 35.582031 " fill-opacity="1" fill-rule="nonzero"/><path fill="#ff5757" d="M 7.078125 41.3125 L 30 41.3125 C 30.6875 41.3125 31.144531 40.855469 31.144531 40.164062 C 31.144531 39.476562 30.6875 39.019531 30 39.019531 L 7.078125 39.019531 C 6.390625 39.019531 5.933594 39.476562 5.933594 40.164062 C 5.933594 40.855469 6.390625 41.3125 7.078125 41.3125 Z M 7.078125 41.3125 " fill-opacity="1" fill-rule="nonzero"/><path fill="#ff5757" d="M 7.078125 47.042969 L 30 47.042969 C 30.6875 47.042969 31.144531 46.582031 31.144531 45.894531 C 31.144531 45.207031 30.6875 44.75 30 44.75 L 7.078125 44.75 C 6.390625 44.75 5.933594 45.207031 5.933594 45.894531 C 5.933594 46.582031 6.390625 47.042969 7.078125 47.042969 Z M 7.078125 47.042969 " fill-opacity="1" fill-rule="nonzero"/><path fill="#ff5757" d="M 42.605469 51.625 L 26.5625 51.625 C 25.875 51.625 25.414062 52.085938 25.414062 52.773438 C 25.414062 53.460938 25.875 53.917969 26.5625 53.917969 L 42.605469 53.917969 C 43.292969 53.917969 43.753906 53.460938 43.753906 52.773438 C 43.753906 52.085938 43.292969 51.625 42.605469 51.625 Z M 42.605469 51.625 " fill-opacity="1" fill-rule="nonzero"/><path fill="#ff5757" d="M 42.605469 57.355469 L 26.5625 57.355469 C 25.875 57.355469 25.414062 57.816406 25.414062 58.503906 C 25.414062 59.191406 25.875 59.648438 26.5625 59.648438 L 42.605469 59.648438 C 43.292969 59.648438 43.753906 59.191406 43.753906 58.503906 C 43.753906 57.816406 43.292969 57.355469 42.605469 57.355469 Z M 42.605469 57.355469 " fill-opacity="1" fill-rule="nonzero"/><path fill="#ff5757" d="M 42.605469 63.085938 L 26.5625 63.085938 C 25.875 63.085938 25.414062 63.546875 25.414062 64.234375 C 25.414062 64.921875 25.875 65.378906 26.5625 65.378906 L 42.605469 65.378906 C 43.292969 65.378906 43.753906 64.921875 43.753906 64.234375 C 43.753906 63.546875 43.292969 63.085938 42.605469 63.085938 Z M 42.605469 63.085938 " fill-opacity="1" fill-rule="nonzero"/><path fill="#ff5757" d="M 42.605469 33.289062 L 35.730469 33.289062 C 35.042969 33.289062 34.585938 33.746094 34.585938 34.4375 C 34.585938 35.125 35.042969 35.582031 35.730469 35.582031 L 42.605469 35.582031 C 43.292969 35.582031 43.753906 35.125 43.753906 34.4375 C 43.753906 33.746094 43.292969 33.289062 42.605469 33.289062 Z M 42.605469 33.289062 " fill-opacity="1" fill-rule="nonzero"/><path fill="#ff5757" d="M 42.605469 39.019531 L 35.730469 39.019531 C 35.042969 39.019531 34.585938 39.476562 34.585938 40.164062 C 34.585938 40.855469 35.042969 41.3125 35.730469 41.3125 L 42.605469 41.3125 C 43.292969 41.3125 43.753906 40.855469 43.753906 40.164062 C 43.753906 39.476562 43.292969 39.019531 42.605469 39.019531 Z M 42.605469 39.019531 " fill-opacity="1" fill-rule="nonzero"/><path fill="#ff5757" d="M 42.605469 44.75 L 35.730469 44.75 C 35.042969 44.75 34.585938 45.207031 34.585938 45.894531 C 34.585938 46.582031 35.042969 47.042969 35.730469 47.042969 L 42.605469 47.042969 C 43.292969 47.042969 43.753906 46.582031 43.753906 45.894531 C 43.753906 45.207031 43.292969 44.75 42.605469 44.75 Z M 42.605469 44.75 " fill-opacity="1" fill-rule="nonzero"/><g clip-path="url(#a47e6d3c59)"><path fill="#ff5757" d="M 5.933594 10.367188 L 2.265625 10.367188 C 1.121094 10.367188 0.203125 11.285156 0.203125 12.429688 L 0.203125 71.222656 C 0.203125 72.371094 1.121094 73.285156 2.265625 73.285156 L 47.304688 73.285156 C 48.453125 73.285156 49.367188 72.371094 49.367188 71.222656 L 49.367188 67.671875 L 53.265625 67.671875 C 54.066406 67.671875 55.097656 66.984375 55.097656 65.265625 L 55.097656 63.085938 L 57.964844 63.085938 C 58.421875 63.085938 59.683594 62.859375 59.683594 60.566406 L 59.683594 1.886719 C 59.796875 0.285156 58.652344 0.0546875 58.078125 0.0546875 L 12.925781 0.0546875 C 11.320312 0.0546875 10.515625 0.972656 10.515625 1.886719 L 10.515625 4.636719 L 8.339844 4.636719 C 6.964844 4.636719 5.933594 5.441406 5.933594 6.472656 Z M 47.191406 71.109375 L 2.496094 71.109375 L 2.496094 12.660156 L 47.191406 12.660156 Z M 12.808594 2.347656 L 57.503906 2.347656 L 57.503906 60.792969 L 55.214844 60.792969 L 55.214844 6.472656 C 55.214844 5.324219 54.527344 4.636719 53.378906 4.636719 L 12.808594 4.636719 Z M 8.339844 6.929688 L 52.921875 6.929688 L 52.921875 65.378906 L 49.484375 65.378906 L 49.484375 12.429688 C 49.484375 11.285156 48.566406 10.367188 47.421875 10.367188 L 8.226562 10.367188 L 8.339844 6.929688 C 8.226562 6.929688 8.339844 6.929688 8.339844 6.929688 Z M 8.339844 6.929688 " fill-opacity="1" fill-rule="nonzero"/></g><path fill="#ff5757" d="M 42.605469 16.097656 L 7.078125 16.097656 C 6.390625 16.097656 5.933594 16.558594 5.933594 17.246094 L 5.933594 28.707031 C 5.933594 29.394531 6.390625 29.851562 7.078125 29.851562 L 42.605469 29.851562 C 43.292969 29.851562 43.753906 29.394531 43.753906 28.707031 L 43.753906 17.246094 C 43.753906 16.558594 43.292969 16.097656 42.605469 16.097656 Z M 41.460938 27.558594 L 8.226562 27.558594 L 8.226562 18.390625 L 41.460938 18.390625 Z M 41.460938 27.558594 " fill-opacity="1" fill-rule="nonzero"/><path fill="#ff5757" d="M 21.976562 51.625 L 7.078125 51.625 C 6.390625 51.625 5.933594 52.085938 5.933594 52.773438 L 5.933594 64.234375 C 5.933594 64.921875 6.390625 65.378906 7.078125 65.378906 L 21.976562 65.378906 C 22.664062 65.378906 23.125 64.921875 23.125 64.234375 L 23.125 52.773438 C 23.125 52.085938 22.664062 51.625 21.976562 51.625 Z M 20.832031 63.085938 L 8.226562 63.085938 L 8.226562 53.917969 L 20.832031 53.917969 Z M 20.832031 63.085938 " fill-opacity="1" fill-rule="nonzero"/></svg>