<svg xmlns="http://www.w3.org/2000/svg" xmlns:xlink="http://www.w3.org/1999/xlink" width="82" zoomAndPan="magnify" viewBox="0 0 61.5 34.499999" height="46" preserveAspectRatio="xMidYMid meet" version="1.0"><defs><clipPath id="fda38844da"><path d="M 26.382812 0 L 60.464844 0 L 60.464844 34.007812 L 26.382812 34.007812 Z M 26.382812 0 " clip-rule="nonzero"/></clipPath><clipPath id="22ad3be889"><path d="M 0.191406 0 L 34.273438 0 L 34.273438 34.007812 L 0.191406 34.007812 Z M 0.191406 0 " clip-rule="nonzero"/></clipPath></defs><g clip-path="url(#fda38844da)"><path fill="#1b67f4" d="M 60.464844 17.039062 C 60.464844 17.597656 60.4375 18.15625 60.382812 18.710938 C 60.328125 19.265625 60.246094 19.816406 60.136719 20.363281 C 60.027344 20.914062 59.890625 21.453125 59.730469 21.988281 C 59.566406 22.519531 59.378906 23.046875 59.167969 23.5625 C 58.953125 24.078125 58.714844 24.582031 58.453125 25.074219 C 58.1875 25.566406 57.902344 26.042969 57.589844 26.507812 C 57.28125 26.972656 56.949219 27.417969 56.59375 27.851562 C 56.242188 28.28125 55.867188 28.695312 55.472656 29.089844 C 55.078125 29.484375 54.664062 29.859375 54.234375 30.214844 C 53.800781 30.566406 53.355469 30.898438 52.890625 31.210938 C 52.425781 31.519531 51.949219 31.804688 51.457031 32.070312 C 50.964844 32.332031 50.460938 32.570312 49.945312 32.785156 C 49.429688 32.996094 48.902344 33.183594 48.371094 33.347656 C 47.835938 33.507812 47.292969 33.644531 46.746094 33.753906 C 46.199219 33.863281 45.648438 33.945312 45.09375 34 C 44.539062 34.054688 43.980469 34.082031 43.421875 34.082031 C 42.863281 34.082031 42.308594 34.054688 41.753906 34 C 41.195312 33.945312 40.644531 33.863281 40.097656 33.753906 C 39.550781 33.644531 39.011719 33.507812 38.476562 33.347656 C 37.941406 33.183594 37.417969 32.996094 36.902344 32.785156 C 36.386719 32.570312 35.882812 32.332031 35.390625 32.070312 C 34.898438 31.804688 34.417969 31.519531 33.957031 31.210938 C 33.492188 30.898438 33.042969 30.566406 32.613281 30.214844 C 32.179688 29.859375 31.769531 29.484375 31.375 29.089844 C 30.980469 28.695312 30.605469 28.28125 30.25 27.851562 C 29.894531 27.417969 29.5625 26.972656 29.253906 26.507812 C 28.945312 26.042969 28.65625 25.566406 28.394531 25.074219 C 28.132812 24.582031 27.894531 24.078125 27.679688 23.5625 C 27.464844 23.046875 27.277344 22.519531 27.117188 21.988281 C 26.953125 21.453125 26.820312 20.914062 26.710938 20.363281 C 26.601562 19.816406 26.519531 19.265625 26.464844 18.710938 C 26.410156 18.15625 26.382812 17.597656 26.382812 17.039062 C 26.382812 16.484375 26.410156 15.925781 26.464844 15.371094 C 26.519531 14.816406 26.601562 14.261719 26.710938 13.714844 C 26.820312 13.167969 26.953125 12.628906 27.117188 12.09375 C 27.277344 11.558594 27.464844 11.035156 27.679688 10.519531 C 27.894531 10.003906 28.132812 9.5 28.394531 9.007812 C 28.65625 8.515625 28.945312 8.039062 29.253906 7.574219 C 29.5625 7.109375 29.894531 6.660156 30.25 6.230469 C 30.605469 5.796875 30.980469 5.386719 31.375 4.992188 C 31.769531 4.597656 32.179688 4.222656 32.613281 3.867188 C 33.042969 3.515625 33.492188 3.183594 33.957031 2.871094 C 34.417969 2.5625 34.898438 2.273438 35.390625 2.011719 C 35.882812 1.75 36.386719 1.511719 36.902344 1.296875 C 37.417969 1.082031 37.941406 0.894531 38.476562 0.734375 C 39.011719 0.570312 39.550781 0.4375 40.097656 0.328125 C 40.644531 0.21875 41.195312 0.136719 41.753906 0.0820312 C 42.308594 0.0273438 42.863281 0 43.421875 0 C 43.980469 0 44.539062 0.0273438 45.09375 0.0820312 C 45.648438 0.136719 46.199219 0.21875 46.746094 0.328125 C 47.292969 0.4375 47.835938 0.570312 48.371094 0.734375 C 48.902344 0.894531 49.429688 1.082031 49.945312 1.296875 C 50.460938 1.511719 50.964844 1.75 51.457031 2.011719 C 51.949219 2.273438 52.425781 2.5625 52.890625 2.871094 C 53.355469 3.183594 53.800781 3.515625 54.234375 3.867188 C 54.664062 4.222656 55.078125 4.597656 55.472656 4.992188 C 55.867188 5.386719 56.242188 5.796875 56.59375 6.230469 C 56.949219 6.660156 57.28125 7.109375 57.589844 7.574219 C 57.902344 8.039062 58.1875 8.515625 58.453125 9.007812 C 58.714844 9.5 58.953125 10.003906 59.167969 10.519531 C 59.378906 11.035156 59.566406 11.558594 59.730469 12.09375 C 59.890625 12.628906 60.027344 13.167969 60.136719 13.714844 C 60.246094 14.261719 60.328125 14.816406 60.382812 15.371094 C 60.4375 15.925781 60.464844 16.484375 60.464844 17.039062 Z M 60.464844 17.039062 " fill-opacity="1" fill-rule="nonzero"/></g><path fill="#0e489f" d="M 35.691406 15.207031 L 38.597656 15.207031 C 39.238281 15.207031 39.761719 15.730469 39.761719 16.371094 L 39.761719 26.199219 C 39.761719 26.839844 39.238281 27.359375 38.597656 27.359375 L 35.691406 27.359375 C 35.050781 27.359375 34.527344 26.839844 34.527344 26.199219 L 34.527344 16.371094 C 34.527344 15.730469 35.050781 15.207031 35.691406 15.207031 Z M 35.691406 15.207031 " fill-opacity="1" fill-rule="evenodd"/><path fill="#0e489f" d="M 42.683594 15.074219 L 43.191406 15.074219 C 43.65625 14.640625 44.167969 14.15625 44.585938 13.679688 C 45.355469 12.796875 45.792969 11.941406 45.898438 11.21875 C 46.011719 10.496094 45.792969 9.902344 45.730469 9.332031 C 45.667969 8.761719 45.757812 8.210938 46.191406 7.925781 C 46.625 7.640625 47.402344 7.621094 47.972656 8.039062 C 48.546875 8.453125 48.914062 9.308594 49.066406 10.25 C 49.222656 11.1875 49.164062 12.214844 48.972656 13.035156 C 48.785156 13.820312 48.472656 14.414062 48.195312 15.074219 L 52.222656 15.074219 C 53.214844 15.074219 53.867188 15.886719 53.671875 16.882812 L 51.996094 25.363281 C 51.808594 26.3125 50.914062 27.09375 49.96875 27.164062 L 49.921875 27.171875 L 42.589844 27.171875 L 42.546875 27.164062 C 41.617188 27.09375 40.875 26.3125 40.875 25.363281 L 40.875 16.882812 C 40.875 15.886719 41.691406 15.074219 42.683594 15.074219 Z M 42.683594 15.074219 " fill-opacity="1" fill-rule="evenodd"/><path fill="#ffffff" d="M 34.304688 13.691406 L 37.210938 13.691406 C 37.851562 13.691406 38.375 14.214844 38.375 14.851562 L 38.375 24.679688 C 38.375 25.320312 37.851562 25.84375 37.210938 25.84375 L 34.304688 25.84375 C 33.664062 25.84375 33.140625 25.320312 33.140625 24.679688 L 33.140625 14.851562 C 33.140625 14.214844 33.664062 13.691406 34.304688 13.691406 Z M 34.304688 13.691406 " fill-opacity="1" fill-rule="evenodd"/><path fill="#ffffff" d="M 41.296875 13.558594 L 41.804688 13.558594 C 42.265625 13.125 42.78125 12.640625 43.199219 12.160156 C 43.96875 11.277344 44.40625 10.425781 44.515625 9.703125 C 44.621094 8.980469 44.40625 8.386719 44.34375 7.816406 C 44.277344 7.242188 44.371094 6.695312 44.804688 6.40625 C 45.238281 6.121094 46.011719 6.105469 46.585938 6.519531 C 47.160156 6.9375 47.523438 7.789062 47.679688 8.730469 C 47.835938 9.671875 47.777344 10.695312 47.582031 11.515625 C 47.398438 12.300781 47.085938 12.894531 46.804688 13.558594 L 50.832031 13.558594 C 51.828125 13.558594 52.480469 14.371094 52.28125 15.363281 L 50.605469 23.847656 C 50.417969 24.796875 49.523438 25.578125 48.582031 25.648438 L 48.535156 25.652344 L 48.488281 25.652344 L 48.441406 25.65625 L 41.296875 25.65625 L 41.25 25.652344 L 41.203125 25.652344 L 41.160156 25.648438 C 40.230469 25.578125 39.492188 24.796875 39.492188 23.847656 L 39.492188 15.363281 C 39.492188 14.371094 40.304688 13.558594 41.296875 13.558594 Z M 41.296875 13.558594 " fill-opacity="1" fill-rule="evenodd"/><g clip-path="url(#22ad3be889)"><path fill="#ffda6a" d="M 34.277344 17.042969 C 34.277344 26.453125 26.648438 34.082031 17.234375 34.082031 C 7.824219 34.082031 0.191406 26.453125 0.191406 17.042969 C 0.191406 7.628906 7.824219 0 17.234375 0 C 26.648438 0 34.277344 7.628906 34.277344 17.042969 " fill-opacity="1" fill-rule="nonzero"/></g><path fill="#000000" d="M 11.816406 11.449219 C 11.554688 13.078125 10.457031 14.253906 9.367188 14.078125 C 8.277344 13.902344 7.605469 12.4375 7.871094 10.808594 C 8.132812 9.179688 9.230469 8.003906 10.320312 8.179688 C 11.414062 8.355469 12.082031 9.820312 11.816406 11.449219 " fill-opacity="1" fill-rule="nonzero"/><path fill="#000000" d="M 21.78125 11.449219 C 22.046875 13.078125 23.144531 14.253906 24.234375 14.078125 C 25.324219 13.902344 25.992188 12.4375 25.730469 10.808594 C 25.464844 9.179688 24.367188 8.003906 23.277344 8.179688 C 22.1875 8.355469 21.519531 9.820312 21.78125 11.449219 " fill-opacity="1" fill-rule="nonzero"/><path fill="#000000" d="M 21.601562 23.019531 C 21.601562 26.519531 19.664062 29.355469 17.269531 29.355469 C 14.878906 29.355469 12.9375 26.519531 12.9375 23.019531 C 12.9375 19.519531 14.878906 16.683594 17.269531 16.683594 C 19.664062 16.683594 21.601562 19.519531 21.601562 23.019531 " fill-opacity="1" fill-rule="nonzero"/><path fill="#000000" d="M 12.1875 3.945312 C 10.542969 3.3125 8.675781 3.644531 7.351562 4.78125 C 7.148438 4.957031 7.148438 5.273438 7.359375 5.445312 L 7.367188 5.449219 C 7.527344 5.582031 7.761719 5.574219 7.921875 5.4375 C 9.003906 4.511719 10.527344 4.242188 11.871094 4.757812 C 12.074219 4.835938 12.304688 4.757812 12.410156 4.566406 L 12.414062 4.558594 C 12.542969 4.328125 12.433594 4.042969 12.1875 3.945312 " fill-opacity="1" fill-rule="nonzero"/><path fill="#000000" d="M 21.394531 3.945312 C 23.035156 3.3125 24.902344 3.644531 26.230469 4.78125 C 26.433594 4.957031 26.429688 5.273438 26.222656 5.445312 L 26.214844 5.449219 C 26.050781 5.582031 25.820312 5.574219 25.660156 5.4375 C 24.574219 4.511719 23.050781 4.242188 21.710938 4.757812 C 21.503906 4.835938 21.273438 4.757812 21.167969 4.566406 L 21.164062 4.558594 C 21.039062 4.328125 21.148438 4.042969 21.394531 3.945312 " fill-opacity="1" fill-rule="nonzero"/></svg>