<svg xmlns="http://www.w3.org/2000/svg" xmlns:xlink="http://www.w3.org/1999/xlink" width="120" zoomAndPan="magnify" viewBox="0 0 90 34.499999" height="46" preserveAspectRatio="xMidYMid meet" version="1.0"><defs><clipPath id="ff25172ee8"><path d="M 55.285156 0.113281 L 89.070312 0.113281 L 89.070312 33.894531 L 55.285156 33.894531 Z M 55.285156 0.113281 " clip-rule="nonzero"/></clipPath><clipPath id="e4b9e0b5de"><path d="M 23 0.113281 L 62 0.113281 L 62 33.894531 L 23 33.894531 Z M 23 0.113281 " clip-rule="nonzero"/></clipPath><clipPath id="2a7f16fb66"><path d="M 0.644531 0.113281 L 34.425781 0.113281 L 34.425781 33.894531 L 0.644531 33.894531 Z M 0.644531 0.113281 " clip-rule="nonzero"/></clipPath></defs><g clip-path="url(#ff25172ee8)"><path fill="#ffda6a" d="M 89.070312 17.003906 C 89.070312 26.335938 81.507812 33.898438 72.175781 33.898438 C 62.847656 33.898438 55.285156 26.335938 55.285156 17.003906 C 55.285156 7.675781 62.847656 0.109375 72.175781 0.109375 C 81.507812 0.109375 89.070312 7.675781 89.070312 17.003906 " fill-opacity="1" fill-rule="nonzero"/></g><path fill="#000000" d="M 66.808594 11.460938 C 66.546875 13.074219 65.457031 14.242188 64.378906 14.066406 C 63.296875 13.890625 62.632812 12.441406 62.894531 10.828125 C 63.15625 9.210938 64.246094 8.042969 65.324219 8.21875 C 66.40625 8.394531 67.070312 9.847656 66.808594 11.460938 " fill-opacity="1" fill-rule="nonzero"/><path fill="#000000" d="M 76.683594 11.460938 C 76.945312 13.074219 78.035156 14.242188 79.117188 14.066406 C 80.195312 13.890625 80.859375 12.441406 80.597656 10.828125 C 80.335938 9.210938 79.25 8.042969 78.167969 8.21875 C 77.085938 8.394531 76.421875 9.847656 76.683594 11.460938 " fill-opacity="1" fill-rule="nonzero"/><path fill="#000000" d="M 76.507812 22.929688 C 76.507812 26.398438 74.585938 29.210938 72.214844 29.210938 C 69.839844 29.210938 67.917969 26.398438 67.917969 22.929688 C 67.917969 19.460938 69.839844 16.648438 72.214844 16.648438 C 74.585938 16.648438 76.507812 19.460938 76.507812 22.929688 " fill-opacity="1" fill-rule="nonzero"/><path fill="#000000" d="M 67.175781 4.023438 C 65.546875 3.394531 63.695312 3.722656 62.378906 4.851562 C 62.175781 5.023438 62.179688 5.339844 62.386719 5.507812 L 62.394531 5.515625 C 62.554688 5.648438 62.789062 5.640625 62.945312 5.503906 C 64.019531 4.582031 65.53125 4.316406 66.859375 4.828125 C 67.0625 4.90625 67.292969 4.828125 67.394531 4.636719 L 67.402344 4.628906 C 67.527344 4.402344 67.417969 4.117188 67.175781 4.023438 " fill-opacity="1" fill-rule="nonzero"/><path fill="#000000" d="M 76.300781 4.023438 C 77.929688 3.394531 79.78125 3.722656 81.09375 4.851562 C 81.296875 5.023438 81.292969 5.339844 81.085938 5.507812 L 81.078125 5.515625 C 80.917969 5.648438 80.6875 5.640625 80.527344 5.503906 C 79.453125 4.582031 77.945312 4.316406 76.613281 4.828125 C 76.410156 4.90625 76.183594 4.828125 76.078125 4.636719 L 76.074219 4.628906 C 75.949219 4.402344 76.058594 4.117188 76.300781 4.023438 " fill-opacity="1" fill-rule="nonzero"/><g clip-path="url(#e4b9e0b5de)"><path fill="#ff3131" d="M 58.582031 3.195312 C 56.589844 1.207031 53.945312 0.109375 51.132812 0.109375 C 48.316406 0.109375 45.671875 1.207031 43.683594 3.195312 L 42.472656 4.402344 L 41.265625 3.195312 C 39.273438 1.207031 36.628906 0.109375 33.8125 0.109375 C 31 0.109375 28.355469 1.203125 26.363281 3.195312 C 22.257812 7.304688 22.257812 13.988281 26.363281 18.09375 L 41.949219 33.679688 C 42.09375 33.824219 42.285156 33.898438 42.472656 33.898438 C 42.664062 33.898438 42.851562 33.824219 42.996094 33.679688 L 58.582031 18.09375 C 62.6875 13.988281 62.6875 7.304688 58.582031 3.195312 Z M 58.582031 3.195312 " fill-opacity="1" fill-rule="nonzero"/></g><g clip-path="url(#2a7f16fb66)"><path fill="#1b67f4" d="M 34.425781 17.003906 C 34.425781 17.558594 34.398438 18.109375 34.34375 18.660156 C 34.292969 19.210938 34.210938 19.757812 34.101562 20.300781 C 33.996094 20.839844 33.859375 21.378906 33.699219 21.90625 C 33.539062 22.4375 33.351562 22.957031 33.140625 23.46875 C 32.929688 23.980469 32.691406 24.476562 32.433594 24.964844 C 32.171875 25.453125 31.886719 25.929688 31.578125 26.386719 C 31.273438 26.847656 30.945312 27.292969 30.59375 27.71875 C 30.242188 28.148438 29.871094 28.558594 29.480469 28.949219 C 29.089844 29.339844 28.679688 29.710938 28.25 30.0625 C 27.824219 30.414062 27.378906 30.742188 26.917969 31.046875 C 26.460938 31.355469 25.984375 31.640625 25.496094 31.902344 C 25.007812 32.160156 24.511719 32.398438 24 32.609375 C 23.488281 32.820312 22.96875 33.007812 22.4375 33.167969 C 21.910156 33.328125 21.371094 33.464844 20.832031 33.570312 C 20.289062 33.679688 19.742188 33.761719 19.191406 33.8125 C 18.640625 33.867188 18.089844 33.894531 17.535156 33.894531 C 16.980469 33.894531 16.429688 33.867188 15.878906 33.8125 C 15.328125 33.761719 14.78125 33.679688 14.238281 33.570312 C 13.695312 33.464844 13.160156 33.328125 12.632812 33.167969 C 12.101562 33.007812 11.582031 32.820312 11.070312 32.609375 C 10.558594 32.398438 10.058594 32.160156 9.570312 31.902344 C 9.085938 31.640625 8.609375 31.355469 8.148438 31.046875 C 7.691406 30.742188 7.246094 30.414062 6.820312 30.0625 C 6.390625 29.710938 5.980469 29.339844 5.589844 28.949219 C 5.199219 28.558594 4.828125 28.148438 4.476562 27.71875 C 4.125 27.292969 3.796875 26.847656 3.488281 26.386719 C 3.183594 25.929688 2.898438 25.453125 2.636719 24.964844 C 2.375 24.476562 2.140625 23.980469 1.929688 23.46875 C 1.71875 22.957031 1.53125 22.4375 1.371094 21.90625 C 1.210938 21.378906 1.074219 20.839844 0.96875 20.300781 C 0.859375 19.757812 0.777344 19.210938 0.722656 18.660156 C 0.671875 18.109375 0.644531 17.558594 0.644531 17.003906 C 0.644531 16.449219 0.671875 15.898438 0.722656 15.347656 C 0.777344 14.796875 0.859375 14.25 0.96875 13.707031 C 1.074219 13.164062 1.210938 12.628906 1.371094 12.101562 C 1.53125 11.570312 1.71875 11.050781 1.929688 10.539062 C 2.140625 10.027344 2.375 9.527344 2.636719 9.039062 C 2.898438 8.554688 3.183594 8.078125 3.488281 7.617188 C 3.796875 7.160156 4.125 6.714844 4.476562 6.289062 C 4.828125 5.859375 5.199219 5.449219 5.589844 5.058594 C 5.980469 4.667969 6.390625 4.296875 6.820312 3.945312 C 7.246094 3.59375 7.691406 3.265625 8.148438 2.957031 C 8.609375 2.652344 9.085938 2.367188 9.570312 2.105469 C 10.058594 1.84375 10.558594 1.609375 11.070312 1.398438 C 11.582031 1.1875 12.101562 1 12.632812 0.839844 C 13.160156 0.679688 13.695312 0.542969 14.238281 0.4375 C 14.78125 0.328125 15.328125 0.246094 15.878906 0.191406 C 16.429688 0.140625 16.980469 0.113281 17.535156 0.113281 C 18.089844 0.113281 18.640625 0.140625 19.191406 0.191406 C 19.742188 0.246094 20.289062 0.328125 20.832031 0.4375 C 21.371094 0.542969 21.910156 0.679688 22.4375 0.839844 C 22.96875 1 23.488281 1.1875 24 1.398438 C 24.511719 1.609375 25.007812 1.84375 25.496094 2.105469 C 25.984375 2.367188 26.460938 2.652344 26.917969 2.957031 C 27.378906 3.265625 27.824219 3.59375 28.25 3.945312 C 28.679688 4.296875 29.089844 4.667969 29.480469 5.058594 C 29.871094 5.449219 30.242188 5.859375 30.59375 6.289062 C 30.945312 6.714844 31.273438 7.160156 31.578125 7.617188 C 31.886719 8.078125 32.171875 8.554688 32.433594 9.039062 C 32.691406 9.527344 32.929688 10.027344 33.140625 10.539062 C 33.351562 11.050781 33.539062 11.570312 33.699219 12.101562 C 33.859375 12.628906 33.996094 13.164062 34.101562 13.707031 C 34.210938 14.25 34.292969 14.796875 34.34375 15.347656 C 34.398438 15.898438 34.425781 16.449219 34.425781 17.003906 Z M 34.425781 17.003906 " fill-opacity="1" fill-rule="nonzero"/></g><path fill="#0e489f" d="M 9.871094 15.1875 L 12.753906 15.1875 C 13.386719 15.1875 13.90625 15.703125 13.90625 16.339844 L 13.90625 26.082031 C 13.90625 26.714844 13.386719 27.234375 12.753906 27.234375 L 9.871094 27.234375 C 9.234375 27.234375 8.714844 26.714844 8.714844 26.082031 L 8.714844 16.339844 C 8.714844 15.703125 9.234375 15.1875 9.871094 15.1875 Z M 9.871094 15.1875 " fill-opacity="1" fill-rule="evenodd"/><path fill="#0e489f" d="M 16.800781 15.054688 L 17.304688 15.054688 C 17.765625 14.625 18.273438 14.144531 18.6875 13.671875 C 19.453125 12.796875 19.882812 11.949219 19.992188 11.234375 C 20.101562 10.519531 19.882812 9.929688 19.820312 9.363281 C 19.757812 8.796875 19.847656 8.25 20.28125 7.96875 C 20.707031 7.683594 21.480469 7.667969 22.046875 8.078125 C 22.613281 8.492188 22.976562 9.339844 23.128906 10.269531 C 23.285156 11.203125 23.226562 12.21875 23.035156 13.03125 C 22.851562 13.808594 22.542969 14.398438 22.265625 15.054688 L 26.257812 15.054688 C 27.242188 15.054688 27.886719 15.859375 27.695312 16.847656 L 26.03125 25.253906 C 25.847656 26.195312 24.960938 26.972656 24.023438 27.039062 L 23.980469 27.042969 L 23.933594 27.042969 L 23.886719 27.046875 L 16.800781 27.046875 L 16.757812 27.042969 L 16.710938 27.042969 L 16.667969 27.039062 L 16.664062 27.039062 C 15.742188 26.972656 15.011719 26.195312 15.011719 25.253906 L 15.011719 16.847656 C 15.011719 15.859375 15.816406 15.054688 16.800781 15.054688 Z M 16.800781 15.054688 " fill-opacity="1" fill-rule="evenodd"/><path fill="#ffffff" d="M 8.496094 13.683594 L 11.378906 13.683594 C 12.011719 13.683594 12.53125 14.199219 12.53125 14.832031 L 12.53125 24.578125 C 12.53125 25.210938 12.011719 25.730469 11.378906 25.730469 L 8.496094 25.730469 C 7.859375 25.730469 7.34375 25.210938 7.34375 24.578125 L 7.34375 14.832031 C 7.34375 14.199219 7.859375 13.683594 8.496094 13.683594 Z M 8.496094 13.683594 " fill-opacity="1" fill-rule="evenodd"/><path fill="#ffffff" d="M 15.425781 13.550781 L 15.929688 13.550781 C 16.386719 13.121094 16.898438 12.640625 17.3125 12.167969 C 18.074219 11.292969 18.507812 10.445312 18.617188 9.730469 C 18.722656 9.011719 18.507812 8.425781 18.445312 7.859375 C 18.382812 7.292969 18.472656 6.746094 18.902344 6.464844 C 19.335938 6.179688 20.101562 6.164062 20.667969 6.574219 C 21.238281 6.988281 21.601562 7.835938 21.757812 8.765625 C 21.910156 9.699219 21.851562 10.714844 21.660156 11.527344 C 21.476562 12.304688 21.167969 12.894531 20.886719 13.550781 L 24.878906 13.550781 C 25.867188 13.550781 26.511719 14.355469 26.316406 15.339844 L 24.65625 23.75 C 24.46875 24.691406 23.582031 25.464844 22.648438 25.535156 L 22.601562 25.539062 L 22.554688 25.539062 L 22.511719 25.542969 L 15.425781 25.542969 L 15.378906 25.539062 L 15.335938 25.539062 L 15.289062 25.535156 C 14.367188 25.464844 13.636719 24.691406 13.636719 23.75 L 13.636719 15.339844 C 13.636719 14.355469 14.441406 13.550781 15.425781 13.550781 Z M 15.425781 13.550781 " fill-opacity="1" fill-rule="evenodd"/></svg>