<svg xmlns="http://www.w3.org/2000/svg" xmlns:xlink="http://www.w3.org/1999/xlink" width="44" zoomAndPan="magnify" viewBox="0 0 33 32.249999" height="43" preserveAspectRatio="xMidYMid meet" version="1.0"><defs><clipPath id="0212485dbe"><path d="M 0.375 0 L 32.625 0 L 32.625 31.515625 L 0.375 31.515625 Z M 0.375 0 " clip-rule="nonzero"/></clipPath></defs><g clip-path="url(#0212485dbe)"><path fill="#ffffff" d="M 28.242188 0.0351562 C 27.277344 0.0351562 26.3125 0.410156 25.597656 1.125 L 16.453125 10.238281 L 7.339844 1.125 C 6.59375 0.410156 5.664062 0.0351562 4.699219 0.0351562 C 3.734375 0.0351562 2.769531 0.410156 2.054688 1.125 L 1.835938 1.34375 C 0.375 2.804688 0.375 5.167969 1.835938 6.628906 L 10.949219 15.742188 L 1.835938 24.886719 C 0.375 26.347656 0.375 28.710938 1.835938 30.171875 L 2.054688 30.390625 C 2.769531 31.105469 3.734375 31.480469 4.699219 31.480469 C 5.664062 31.480469 6.625 31.105469 7.339844 30.390625 L 16.453125 21.277344 L 25.566406 30.390625 C 26.28125 31.105469 27.246094 31.480469 28.210938 31.480469 C 29.175781 31.480469 30.136719 31.105469 30.855469 30.390625 L 31.070312 30.171875 C 32.535156 28.710938 32.535156 26.347656 31.070312 24.886719 L 21.960938 15.742188 L 31.070312 6.628906 C 32.535156 5.167969 32.535156 2.804688 31.070312 1.34375 L 30.855469 1.125 C 30.136719 0.410156 29.175781 0.0351562 28.242188 0.0351562 Z M 28.242188 0.0351562 " fill-opacity="1" fill-rule="nonzero"/></g></svg>