<svg xmlns="http://www.w3.org/2000/svg" xmlns:xlink="http://www.w3.org/1999/xlink" width="44" zoomAndPan="magnify" viewBox="0 0 33 32.999998" height="44" preserveAspectRatio="xMidYMid meet" version="1.0"><path fill="#ffffff" d="M 18.082031 16.542969 L 32.542969 2.078125 C 32.984375 1.640625 32.984375 0.925781 32.542969 0.484375 C 32.105469 0.0429688 31.390625 0.0429688 30.949219 0.484375 L 16.488281 14.949219 L 2.023438 0.484375 C 1.582031 0.0429688 0.871094 0.0429688 0.429688 0.484375 C -0.0117188 0.925781 -0.0117188 1.640625 0.429688 2.078125 L 14.894531 16.542969 L 0.429688 31.003906 C -0.0117188 31.445312 -0.0117188 32.160156 0.429688 32.597656 C 0.648438 32.820312 0.9375 32.929688 1.226562 32.929688 C 1.515625 32.929688 1.804688 32.820312 2.023438 32.597656 L 16.488281 18.136719 L 30.949219 32.597656 C 31.171875 32.820312 31.460938 32.929688 31.746094 32.929688 C 32.035156 32.929688 32.324219 32.820312 32.542969 32.597656 C 32.984375 32.160156 32.984375 31.445312 32.542969 31.003906 Z M 18.082031 16.542969 " fill-opacity="1" fill-rule="nonzero"/></svg>