<svg xmlns="http://www.w3.org/2000/svg" xmlns:xlink="http://www.w3.org/1999/xlink" width="42" zoomAndPan="magnify" viewBox="0 0 31.5 36.000001" height="48" preserveAspectRatio="xMidYMid meet" version="1.0"><defs><clipPath id="1391bc74da"><path d="M 0.183594 14 L 30.832031 14 L 30.832031 35 L 0.183594 35 Z M 0.183594 14 " clip-rule="nonzero"/></clipPath><clipPath id="57e5727f57"><path d="M 0.183594 0 L 30.832031 0 L 30.832031 21 L 0.183594 21 Z M 0.183594 0 " clip-rule="nonzero"/></clipPath></defs><g clip-path="url(#1391bc74da)"><path fill="#34495e" d="M 0.640625 28.132812 C 0.183594 28.511719 0.183594 29.125 0.640625 29.507812 L 6.707031 34.539062 C 7.28125 35.015625 8.207031 35.015625 8.78125 34.539062 C 9.351562 34.066406 9.351562 33.296875 8.78125 32.820312 L 5.421875 30.035156 L 22.980469 30.035156 C 27.023438 30.035156 30.304688 27.3125 30.304688 23.957031 L 30.304688 16.175781 C 30.304688 15.503906 29.648438 14.960938 28.839844 14.960938 C 28.03125 14.960938 27.375 15.503906 27.375 16.175781 L 27.375 23.957031 C 27.375 25.96875 25.40625 27.601562 22.980469 27.601562 L 5.421875 27.601562 L 8.78125 24.816406 C 9.351562 24.339844 9.351562 23.570312 8.78125 23.097656 C 8.207031 22.621094 7.28125 22.621094 6.707031 23.097656 Z M 0.640625 28.132812 " fill-opacity="1" fill-rule="nonzero"/></g><g clip-path="url(#57e5727f57)"><path fill="#34495e" d="M 30.375 6.894531 C 30.832031 6.515625 30.832031 5.902344 30.375 5.519531 L 24.308594 0.488281 C 23.734375 0.0117188 22.808594 0.0117188 22.238281 0.488281 C 21.664062 0.960938 21.664062 1.730469 22.238281 2.207031 L 25.59375 4.992188 L 8.035156 4.992188 C 3.992188 4.992188 0.710938 7.714844 0.710938 11.070312 L 0.710938 18.851562 C 0.710938 19.523438 1.367188 20.066406 2.175781 20.066406 C 2.984375 20.066406 3.640625 19.523438 3.640625 18.851562 L 3.640625 11.070312 C 3.640625 9.058594 5.609375 7.425781 8.035156 7.425781 L 25.59375 7.425781 L 22.238281 10.210938 C 21.664062 10.6875 21.664062 11.457031 22.238281 11.929688 C 22.808594 12.40625 23.734375 12.40625 24.308594 11.929688 Z M 30.375 6.894531 " fill-opacity="1" fill-rule="nonzero"/></g></svg>