<svg xmlns="http://www.w3.org/2000/svg" xmlns:xlink="http://www.w3.org/1999/xlink" width="216" zoomAndPan="magnify" viewBox="0 0 162 225" height="300" preserveAspectRatio="xMidYMid meet" version="1.0"><defs><clipPath id="e36b18c125"><path d="M 0.0664062 0 L 161.933594 0 L 161.933594 225 L 0.0664062 225 Z M 0.0664062 0 " clip-rule="nonzero"/></clipPath></defs><g clip-path="url(#e36b18c125)"><path fill="#34495e" d="M 161.890625 114.519531 C 161.890625 146.507812 162.074219 178.5 161.679688 210.484375 C 161.625 214.9375 159.972656 220.871094 156.855469 223.441406 C 151.894531 227.523438 147.136719 222.675781 143.015625 219.378906 C 124.773438 204.796875 106.375 190.398438 88.425781 175.460938 C 83.46875 171.335938 80.460938 170.875 75.207031 175.171875 C 56.261719 190.65625 36.960938 205.714844 17.410156 220.417969 C 14.164062 222.855469 8.28125 224.539062 4.9375 223.21875 C 2.273438 222.167969 0.296875 216.011719 0.28125 212.113281 C 0.00390625 147.023438 0.0585938 81.933594 0.113281 16.84375 C 0.121094 4.886719 4.875 0.078125 16.769531 0.0585938 C 59.59375 -0.0195312 102.414062 -0.015625 145.234375 0.0546875 C 157.078125 0.0703125 161.789062 4.859375 161.816406 16.882812 C 161.894531 49.429688 161.84375 81.972656 161.84375 114.519531 C 161.859375 114.519531 161.875 114.519531 161.890625 114.519531 " fill-opacity="1" fill-rule="nonzero"/></g></svg>