<svg xmlns="http://www.w3.org/2000/svg" xmlns:xlink="http://www.w3.org/1999/xlink" width="44" zoomAndPan="magnify" viewBox="0 0 33 32.999998" height="44" preserveAspectRatio="xMidYMid meet" version="1.0"><path fill="#34495e" d="M 16.5 2.144531 C 8.597656 2.144531 2.167969 8.574219 2.167969 16.476562 C 2.167969 24.378906 8.597656 30.808594 16.5 30.808594 C 24.402344 30.808594 30.832031 24.378906 30.832031 16.476562 C 30.832031 8.574219 24.402344 2.144531 16.5 2.144531 Z M 16.5 32.957031 C 14.277344 32.957031 12.117188 32.519531 10.085938 31.660156 C 8.121094 30.832031 6.359375 29.640625 4.847656 28.128906 C 3.335938 26.617188 2.144531 24.855469 1.316406 22.890625 C 0.457031 20.859375 0.0195312 18.699219 0.0195312 16.476562 C 0.0195312 14.253906 0.457031 12.09375 1.316406 10.0625 C 2.144531 8.097656 3.335938 6.335938 4.847656 4.824219 C 6.359375 3.3125 8.121094 2.121094 10.085938 1.292969 C 12.117188 0.433594 14.277344 -0.00390625 16.5 -0.00390625 C 18.722656 -0.00390625 20.882812 0.433594 22.914062 1.292969 C 24.878906 2.121094 26.640625 3.3125 28.152344 4.824219 C 29.664062 6.335938 30.855469 8.097656 31.683594 10.0625 C 32.542969 12.09375 32.980469 14.253906 32.980469 16.476562 C 32.980469 18.699219 32.542969 20.859375 31.683594 22.890625 C 30.855469 24.855469 29.664062 26.617188 28.152344 28.128906 C 26.640625 29.640625 24.878906 30.832031 22.914062 31.660156 C 20.882812 32.519531 18.722656 32.957031 16.5 32.957031 " fill-opacity="1" fill-rule="nonzero"/><path fill="#34495e" d="M 16.917969 6.199219 L 16.082031 6.199219 C 16.015625 6.199219 15.960938 6.144531 15.960938 6.078125 L 15.960938 3.519531 C 15.960938 3.453125 16.015625 3.398438 16.082031 3.398438 L 16.917969 3.398438 C 16.984375 3.398438 17.039062 3.453125 17.039062 3.519531 L 17.039062 6.078125 C 17.039062 6.144531 16.984375 6.199219 16.917969 6.199219 " fill-opacity="1" fill-rule="nonzero"/><path fill="#34495e" d="M 16.917969 29.554688 L 16.082031 29.554688 C 16.015625 29.554688 15.960938 29.5 15.960938 29.433594 L 15.960938 26.875 C 15.960938 26.808594 16.015625 26.753906 16.082031 26.753906 L 16.917969 26.753906 C 16.984375 26.753906 17.039062 26.808594 17.039062 26.875 L 17.039062 29.433594 C 17.039062 29.5 16.984375 29.554688 16.917969 29.554688 " fill-opacity="1" fill-rule="nonzero"/><path fill="#34495e" d="M 24.0625 9.503906 L 23.472656 8.914062 C 23.425781 8.867188 23.425781 8.789062 23.472656 8.742188 L 25.28125 6.933594 C 25.328125 6.886719 25.40625 6.886719 25.453125 6.933594 L 26.042969 7.523438 C 26.089844 7.570312 26.089844 7.648438 26.042969 7.695312 L 24.234375 9.503906 C 24.1875 9.550781 24.109375 9.550781 24.0625 9.503906 " fill-opacity="1" fill-rule="nonzero"/><path fill="#34495e" d="M 7.546875 26.019531 L 6.957031 25.429688 C 6.910156 25.382812 6.910156 25.304688 6.957031 25.257812 L 8.765625 23.449219 C 8.8125 23.402344 8.890625 23.402344 8.9375 23.449219 L 9.527344 24.039062 C 9.574219 24.085938 9.574219 24.164062 9.527344 24.210938 L 7.71875 26.019531 C 7.671875 26.066406 7.59375 26.066406 7.546875 26.019531 " fill-opacity="1" fill-rule="nonzero"/><path fill="#34495e" d="M 26.777344 16.894531 L 26.777344 16.058594 C 26.777344 15.992188 26.832031 15.9375 26.898438 15.9375 L 29.457031 15.9375 C 29.523438 15.9375 29.578125 15.992188 29.578125 16.058594 L 29.578125 16.894531 C 29.578125 16.960938 29.523438 17.015625 29.457031 17.015625 L 26.898438 17.015625 C 26.832031 17.015625 26.777344 16.960938 26.777344 16.894531 " fill-opacity="1" fill-rule="nonzero"/><path fill="#34495e" d="M 3.421875 16.894531 L 3.421875 16.058594 C 3.421875 15.992188 3.476562 15.9375 3.542969 15.9375 L 6.101562 15.9375 C 6.167969 15.9375 6.222656 15.992188 6.222656 16.058594 L 6.222656 16.894531 C 6.222656 16.960938 6.167969 17.015625 6.101562 17.015625 L 3.542969 17.015625 C 3.476562 17.015625 3.421875 16.960938 3.421875 16.894531 " fill-opacity="1" fill-rule="nonzero"/><path fill="#34495e" d="M 23.472656 24.039062 L 24.0625 23.449219 C 24.109375 23.402344 24.1875 23.402344 24.234375 23.449219 L 26.042969 25.257812 C 26.089844 25.304688 26.089844 25.382812 26.042969 25.429688 L 25.453125 26.019531 C 25.40625 26.066406 25.328125 26.066406 25.28125 26.019531 L 23.472656 24.210938 C 23.425781 24.164062 23.425781 24.085938 23.472656 24.039062 " fill-opacity="1" fill-rule="nonzero"/><path fill="#34495e" d="M 6.957031 7.523438 L 7.546875 6.933594 C 7.59375 6.886719 7.671875 6.886719 7.71875 6.933594 L 9.527344 8.742188 C 9.574219 8.789062 9.574219 8.867188 9.527344 8.914062 L 8.9375 9.503906 C 8.890625 9.550781 8.8125 9.550781 8.765625 9.503906 L 6.957031 7.695312 C 6.910156 7.648438 6.910156 7.570312 6.957031 7.523438 " fill-opacity="1" fill-rule="nonzero"/><path fill="#34495e" d="M 22.367188 20.964844 L 17.890625 16.492188 C 17.890625 16.484375 17.894531 16.480469 17.894531 16.476562 C 17.894531 16.164062 17.789062 15.878906 17.617188 15.644531 L 17.617188 9.335938 C 17.617188 8.722656 17.113281 8.21875 16.5 8.21875 C 15.886719 8.21875 15.382812 8.722656 15.382812 9.335938 L 15.382812 15.644531 C 15.210938 15.878906 15.105469 16.164062 15.105469 16.476562 C 15.105469 17.078125 15.488281 17.59375 16.027344 17.785156 L 20.789062 22.546875 C 21.222656 22.984375 21.933594 22.984375 22.367188 22.546875 C 22.804688 22.113281 22.804688 21.402344 22.367188 20.964844 " fill-opacity="1" fill-rule="nonzero"/></svg>