<svg xmlns="http://www.w3.org/2000/svg" xmlns:xlink="http://www.w3.org/1999/xlink" width="40" zoomAndPan="magnify" viewBox="0 0 30 30.000001" height="40" preserveAspectRatio="xMidYMid meet" version="1.0"><defs><clipPath id="5f30d5bb2a"><path d="M 0.484375 0 L 29.515625 0 L 29.515625 29.03125 L 0.484375 29.03125 Z M 0.484375 0 " clip-rule="nonzero"/></clipPath></defs><g clip-path="url(#5f30d5bb2a)"><path fill="#34495e" d="M 29.484375 0.4375 C 29.457031 0.34375 29.414062 0.253906 29.339844 0.179688 C 29.261719 0.101562 29.171875 0.0585938 29.078125 0.03125 C 29.050781 0.0273438 29.027344 0.0234375 29.003906 0.0195312 C 28.917969 0.00390625 28.835938 0.0078125 28.75 0.03125 C 28.738281 0.0351562 28.726562 0.0273438 28.714844 0.0351562 L 0.890625 9.710938 C 0.667969 9.789062 0.507812 9.988281 0.484375 10.226562 C 0.464844 10.460938 0.582031 10.6875 0.785156 10.804688 L 12.136719 17.378906 L 18.710938 28.730469 C 18.820312 28.917969 19.019531 29.03125 19.234375 29.03125 C 19.253906 29.03125 19.269531 29.03125 19.292969 29.03125 C 19.527344 29.007812 19.726562 28.847656 19.804688 28.625 L 29.484375 0.804688 C 29.488281 0.789062 29.480469 0.777344 29.484375 0.761719 C 29.507812 0.679688 29.511719 0.597656 29.5 0.515625 C 29.496094 0.488281 29.492188 0.464844 29.484375 0.4375 Z M 26.617188 2.042969 L 12.480469 16.179688 L 2.53125 10.421875 Z M 19.097656 26.984375 L 13.339844 17.035156 L 27.472656 2.898438 Z M 19.097656 26.984375 " fill-opacity="1" fill-rule="nonzero"/></g></svg>