<svg xmlns="http://www.w3.org/2000/svg" xmlns:xlink="http://www.w3.org/1999/xlink" width="44" zoomAndPan="magnify" viewBox="0 0 33 32.999998" height="44" preserveAspectRatio="xMidYMid meet" version="1.0"><path fill="#ffda6a" d="M 33.003906 16.5 C 33.003906 25.613281 25.613281 33 16.5 33 C 7.386719 33 0 25.613281 0 16.5 C 0 7.386719 7.386719 0 16.5 0 C 25.613281 0 33.003906 7.386719 33.003906 16.5 " fill-opacity="1" fill-rule="nonzero"/><path fill="#000000" d="M 11.257812 11.085938 C 11 12.664062 9.9375 13.800781 8.882812 13.632812 C 7.828125 13.460938 7.179688 12.042969 7.433594 10.464844 C 7.6875 8.890625 8.753906 7.75 9.808594 7.921875 C 10.863281 8.089844 11.511719 9.507812 11.257812 11.085938 " fill-opacity="1" fill-rule="nonzero"/><path fill="#000000" d="M 20.902344 11.085938 C 21.160156 12.664062 22.222656 13.800781 23.277344 13.632812 C 24.332031 13.460938 24.980469 12.042969 24.726562 10.464844 C 24.472656 8.890625 23.40625 7.75 22.351562 7.921875 C 21.296875 8.089844 20.648438 9.507812 20.902344 11.085938 " fill-opacity="1" fill-rule="nonzero"/><path fill="#000000" d="M 20.730469 22.289062 C 20.730469 25.679688 18.851562 28.425781 16.535156 28.425781 C 14.21875 28.425781 12.339844 25.679688 12.339844 22.289062 C 12.339844 18.902344 14.21875 16.152344 16.535156 16.152344 C 18.851562 16.152344 20.730469 18.902344 20.730469 22.289062 " fill-opacity="1" fill-rule="nonzero"/><path fill="#000000" d="M 11.613281 3.820312 C 10.023438 3.207031 8.214844 3.527344 6.929688 4.628906 C 6.734375 4.800781 6.734375 5.105469 6.9375 5.273438 L 6.945312 5.277344 C 7.101562 5.40625 7.328125 5.398438 7.484375 5.265625 C 8.53125 4.367188 10.007812 4.105469 11.308594 4.605469 C 11.503906 4.683594 11.726562 4.605469 11.832031 4.421875 L 11.835938 4.414062 C 11.957031 4.191406 11.851562 3.914062 11.613281 3.820312 " fill-opacity="1" fill-rule="nonzero"/><path fill="#000000" d="M 20.527344 3.820312 C 22.117188 3.207031 23.925781 3.527344 25.210938 4.628906 C 25.410156 4.800781 25.40625 5.105469 25.203125 5.273438 L 25.195312 5.277344 C 25.039062 5.40625 24.8125 5.398438 24.660156 5.265625 C 23.609375 4.367188 22.132812 4.105469 20.832031 4.605469 C 20.636719 4.683594 20.414062 4.605469 20.3125 4.421875 L 20.304688 4.414062 C 20.183594 4.191406 20.289062 3.914062 20.527344 3.820312 " fill-opacity="1" fill-rule="nonzero"/></svg>