<svg xmlns="http://www.w3.org/2000/svg" xmlns:xlink="http://www.w3.org/1999/xlink" width="121" zoomAndPan="magnify" viewBox="0 0 90.75 90.75" height="121" preserveAspectRatio="xMidYMid meet" version="1.0"><defs><clipPath id="b073bb3648"><path d="M 0 0 L 90.5 0 L 90.5 90.5 L 0 90.5 Z M 0 0 " clip-rule="nonzero"/></clipPath></defs><g clip-path="url(#b073bb3648)"><path fill="#34495e" d="M 20.628906 24.792969 C 20.628906 23.984375 20.667969 23.175781 20.75 22.367188 C 20.828125 21.5625 20.949219 20.761719 21.105469 19.964844 C 21.265625 19.171875 21.464844 18.386719 21.699219 17.609375 C 21.933594 16.835938 22.207031 16.074219 22.519531 15.324219 C 22.828125 14.578125 23.175781 13.84375 23.558594 13.128906 C 23.941406 12.414062 24.355469 11.722656 24.804688 11.046875 C 25.257812 10.375 25.738281 9.722656 26.253906 9.097656 C 26.765625 8.472656 27.3125 7.871094 27.882812 7.296875 C 28.457031 6.726562 29.054688 6.179688 29.683594 5.667969 C 30.308594 5.152344 30.960938 4.671875 31.632812 4.21875 C 32.304688 3.769531 33 3.351562 33.714844 2.972656 C 34.429688 2.589844 35.160156 2.242188 35.910156 1.929688 C 36.65625 1.621094 37.421875 1.347656 38.195312 1.113281 C 38.972656 0.875 39.753906 0.679688 40.550781 0.519531 C 41.34375 0.359375 42.144531 0.242188 42.953125 0.160156 C 43.757812 0.0820312 44.566406 0.0390625 45.378906 0.0390625 C 78.089844 1.195312 78.15625 48.285156 45.460938 49.542969 C 44.648438 49.542969 43.839844 49.507812 43.03125 49.429688 C 42.222656 49.351562 41.417969 49.234375 40.621094 49.078125 C 39.824219 48.921875 39.039062 48.726562 38.261719 48.492188 C 37.484375 48.257812 36.71875 47.984375 35.96875 47.675781 C 35.21875 47.367188 34.484375 47.023438 33.765625 46.640625 C 33.050781 46.257812 32.351562 45.84375 31.675781 45.394531 C 31 44.941406 30.347656 44.460938 29.71875 43.945312 C 29.089844 43.433594 28.488281 42.890625 27.914062 42.316406 C 27.339844 41.742188 26.792969 41.144531 26.277344 40.515625 C 25.761719 39.890625 25.277344 39.238281 24.824219 38.5625 C 24.371094 37.890625 23.953125 37.195312 23.570312 36.476562 C 23.1875 35.761719 22.835938 35.03125 22.527344 34.28125 C 22.214844 33.53125 21.941406 32.765625 21.703125 31.988281 C 21.464844 31.214844 21.269531 30.425781 21.109375 29.628906 C 20.949219 28.832031 20.828125 28.03125 20.75 27.222656 C 20.667969 26.414062 20.628906 25.605469 20.628906 24.792969 Z M 70.429688 49.554688 C 70.097656 49.351562 69.746094 49.199219 69.375 49.101562 C 69 49 68.621094 48.953125 68.234375 48.964844 C 67.847656 48.972656 67.46875 49.039062 67.101562 49.15625 C 66.734375 49.273438 66.390625 49.445312 66.070312 49.660156 C 65.335938 50.261719 64.574219 50.828125 63.785156 51.359375 C 63 51.890625 62.191406 52.390625 61.363281 52.855469 C 60.535156 53.316406 59.6875 53.746094 58.824219 54.132812 C 57.957031 54.523438 57.074219 54.878906 56.179688 55.191406 C 55.285156 55.507812 54.375 55.78125 53.457031 56.019531 C 52.535156 56.253906 51.609375 56.449219 50.671875 56.605469 C 49.734375 56.761719 48.792969 56.878906 47.847656 56.953125 C 46.898438 57.027344 45.949219 57.0625 45 57.054688 C 44.050781 57.050781 43.105469 57.003906 42.160156 56.914062 C 41.214844 56.824219 40.273438 56.695312 39.339844 56.527344 C 38.402344 56.359375 37.480469 56.148438 36.5625 55.898438 C 35.644531 55.648438 34.742188 55.363281 33.851562 55.035156 C 32.957031 54.707031 32.082031 54.34375 31.222656 53.941406 C 30.363281 53.539062 29.519531 53.101562 28.699219 52.625 C 27.875 52.148438 27.078125 51.640625 26.296875 51.097656 C 25.519531 50.550781 24.765625 49.976562 24.039062 49.367188 C 23.480469 49.109375 22.894531 48.996094 22.28125 49.03125 C 21.667969 49.0625 21.097656 49.234375 20.570312 49.550781 C 19.046875 50.5625 17.589844 51.664062 16.203125 52.855469 C 14.816406 54.046875 13.511719 55.320312 12.28125 56.675781 C 11.050781 58.027344 9.910156 59.453125 8.855469 60.949219 C 7.800781 62.441406 6.84375 63.996094 5.980469 65.609375 C 5.117188 67.222656 4.355469 68.878906 3.699219 70.585938 C 3.042969 72.292969 2.492188 74.035156 2.046875 75.808594 C 1.605469 77.582031 1.273438 79.378906 1.050781 81.191406 C 0.828125 83.007812 0.71875 84.828125 0.722656 86.660156 C 0.722656 87.164062 0.820312 87.648438 1.011719 88.113281 C 1.207031 88.582031 1.480469 88.992188 1.835938 89.347656 C 2.191406 89.703125 2.605469 89.980469 3.070312 90.171875 C 3.535156 90.367188 4.023438 90.460938 4.527344 90.460938 L 86.355469 90.460938 C 86.859375 90.460938 87.34375 90.367188 87.808594 90.171875 C 88.277344 89.980469 88.6875 89.703125 89.042969 89.347656 C 89.402344 88.992188 89.675781 88.582031 89.867188 88.113281 C 90.0625 87.648438 90.15625 87.164062 90.15625 86.660156 C 90.15625 84.835938 90.042969 83.015625 89.820312 81.207031 C 89.597656 79.394531 89.265625 77.601562 88.824219 75.832031 C 88.378906 74.0625 87.832031 72.324219 87.179688 70.621094 C 86.523438 68.917969 85.769531 67.261719 84.910156 65.652344 C 84.054688 64.039062 83.101562 62.488281 82.058594 60.992188 C 81.011719 59.496094 79.878906 58.070312 78.65625 56.714844 C 77.4375 55.359375 76.136719 54.082031 74.761719 52.882812 C 73.382812 51.683594 71.941406 50.574219 70.429688 49.554688 Z M 70.429688 49.554688 " fill-opacity="1" fill-rule="nonzero"/></g></svg>